<svg width="28" height="28" viewBox="0 0 28 28" fill="none" xmlns="http://www.w3.org/2000/svg">
<rect width="28" height="28" rx="14" fill="white"/>
<path d="M8.16505 21C7.85437 21 7.58252 20.8833 7.34951 20.65C7.1165 20.4167 7 20.1444 7 19.8333V8.16667C7 7.85556 7.1165 7.58333 7.34951 7.35C7.58252 7.11667 7.85437 7 8.16505 7H15.5243C15.6926 7 15.8317 7.05509 15.9417 7.16528C16.0518 7.27546 16.1068 7.41481 16.1068 7.58333C16.1068 7.75185 16.0518 7.8912 15.9417 8.00139C15.8317 8.11157 15.6926 8.16667 15.5243 8.16667H8.16505V19.8333H19.8155V12.4833C19.8155 12.3148 19.8706 12.1755 19.9806 12.0653C20.0906 11.9551 20.2298 11.9 20.3981 11.9C20.5663 11.9 20.7055 11.9551 20.8155 12.0653C20.9256 12.1755 20.9806 12.3148 20.9806 12.4833V19.8333C20.9806 20.1444 20.8641 20.4167 20.6311 20.65C20.3981 20.8833 20.1262 21 19.8155 21H8.16505ZM18.8447 11.3167C18.6764 11.3167 18.5372 11.2616 18.4272 11.1514C18.3172 11.0412 18.2621 10.9019 18.2621 10.7333V9.74167H17.2718C17.1036 9.74167 16.9644 9.68657 16.8544 9.57639C16.7443 9.4662 16.6893 9.32685 16.6893 9.15833C16.6893 8.98981 16.7443 8.85046 16.8544 8.74028C16.9644 8.63009 17.1036 8.575 17.2718 8.575H18.2621V7.58333C18.2621 7.41481 18.3172 7.27546 18.4272 7.16528C18.5372 7.05509 18.6764 7 18.8447 7C19.0129 7 19.1521 7.05509 19.2621 7.16528C19.3722 7.27546 19.4272 7.41481 19.4272 7.58333V8.575H20.4175C20.5858 8.575 20.7249 8.63009 20.835 8.74028C20.945 8.85046 21 8.98981 21 9.15833C21 9.32685 20.945 9.4662 20.835 9.57639C20.7249 9.68657 20.5858 9.74167 20.4175 9.74167H19.4272V10.7333C19.4272 10.9019 19.3722 11.0412 19.2621 11.1514C19.1521 11.2616 19.0129 11.3167 18.8447 11.3167ZM9.93204 17.85H18.068C18.1974 17.85 18.288 17.7981 18.3398 17.6944C18.3916 17.5907 18.3786 17.487 18.301 17.3833L16.0874 14.4278C16.0227 14.35 15.945 14.3111 15.8544 14.3111C15.7638 14.3111 15.6861 14.35 15.6214 14.4278L13.3884 17.3639L11.7961 15.2639C11.7314 15.1861 11.6537 15.1472 11.5631 15.1472C11.4725 15.1472 11.3948 15.1861 11.3301 15.2639L9.69903 17.3833C9.6343 17.487 9.63107 17.5907 9.68932 17.6944C9.74757 17.7981 9.82848 17.85 9.93204 17.85V17.85ZM8.16505 12.4833V19.8333V8.16667V12.4833Z" fill="#212121"/>
</svg>
