<svg width="48" height="44" viewBox="0 0 48 44" fill="none" xmlns="http://www.w3.org/2000/svg">
<path d="M9.5 34.8334C9.06667 34.8334 8.70833 34.7035 8.425 34.4438C8.14167 34.184 8 33.8556 8 33.4584C8 33.0611 8.14167 32.7327 8.425 32.4729C8.70833 32.2132 9.06667 32.0834 9.5 32.0834H12.2V18.0584C12.2 15.5528 13.025 13.284 14.675 11.2521C16.325 9.22016 18.5 7.94447 21.2 7.42502V6.09585C21.2 5.39308 21.475 4.81252 22.025 4.35419C22.575 3.89585 23.2333 3.66669 24 3.66669C24.7667 3.66669 25.425 3.89585 25.975 4.35419C26.525 4.81252 26.8 5.39308 26.8 6.09585V7.42502C29.5 7.94447 31.6833 9.22016 33.35 11.2521C35.0167 13.284 35.85 15.5528 35.85 18.0584V32.0834H38.5C38.9333 32.0834 39.2917 32.2132 39.575 32.4729C39.8583 32.7327 40 33.0611 40 33.4584C40 33.8556 39.8583 34.184 39.575 34.4438C39.2917 34.7035 38.9333 34.8334 38.5 34.8334H9.5ZM24 40.3334C22.9333 40.3334 22 39.9743 21.2 39.2563C20.4 38.5382 20 37.675 20 36.6667H28C28 37.675 27.6083 38.5382 26.825 39.2563C26.0417 39.9743 25.1 40.3334 24 40.3334ZM15.2 32.0834H32.85V18.0584C32.85 15.7667 32.0083 13.834 30.325 12.2604C28.6417 10.6868 26.5667 9.90002 24.1 9.90002C21.6 9.90002 19.4917 10.6868 17.775 12.2604C16.0583 13.834 15.2 15.7667 15.2 18.0584V32.0834Z" fill="#9378FF"/>
</svg>
