<svg width="74" height="74" viewBox="0 0 74 74" fill="none" xmlns="http://www.w3.org/2000/svg">
<g clip-path="url(#clip0_105_425)">
<path d="M41.88 16.256C40.36 16.256 39.0553 15.7114 37.966 14.622C36.8766 13.5327 36.332 12.228 36.332 10.708C36.332 9.18803 36.8766 7.88337 37.966 6.79403C39.0553 5.7047 40.36 5.16003 41.88 5.16003C43.4 5.16003 44.7046 5.7047 45.794 6.79403C46.8833 7.88337 47.428 9.18803 47.428 10.708C47.428 12.228 46.8833 13.5327 45.794 14.622C44.7046 15.7114 43.4 16.256 41.88 16.256ZM43.78 70.52C43.1213 70.52 42.5766 70.3047 42.146 69.874C41.7153 69.4434 41.5 68.8987 41.5 68.24V52.356L33.292 44.832L31.088 54.712C30.8346 55.928 30.176 56.878 29.112 57.562C28.048 58.246 26.908 58.4614 25.692 58.208L12.088 55.396C11.5306 55.2947 11.0873 54.9907 10.758 54.484C10.4286 53.9774 10.3146 53.42 10.416 52.812C10.5173 52.2547 10.8213 51.8114 11.328 51.482C11.8346 51.1527 12.3666 51.0387 12.924 51.14L25.92 53.724L31.468 25.68L23.868 29.252V37.156C23.868 37.8147 23.6526 38.3594 23.222 38.79C22.7913 39.2207 22.2466 39.436 21.588 39.436C20.9293 39.436 20.3846 39.2207 19.954 38.79C19.5233 38.3594 19.308 37.8147 19.308 37.156V29.176C19.308 28.264 19.5613 27.428 20.068 26.668C20.5746 25.908 21.2586 25.3507 22.12 24.996L31.772 20.892C33.3426 20.1827 34.4826 19.7394 35.192 19.562C35.9013 19.3847 36.6106 19.296 37.32 19.296C38.3333 19.296 39.2326 19.5114 40.018 19.942C40.8033 20.3727 41.4746 21.0187 42.032 21.88L45.224 26.972C46.3893 28.8467 47.922 30.506 49.8219 31.95C51.722 33.394 53.9386 34.3187 56.472 34.724C57.08 34.8254 57.5866 35.0914 57.992 35.522C58.3973 35.9527 58.6 36.4467 58.6 37.004C58.6 37.7134 58.3593 38.296 57.878 38.752C57.3966 39.208 56.8266 39.3854 56.168 39.284C53.3306 38.9294 50.7846 37.9794 48.53 36.434C46.2753 34.8887 44.1346 32.748 42.108 30.012L39.144 42.02L44.616 47.036C45.072 47.492 45.4266 48.0114 45.68 48.594C45.9333 49.1767 46.06 49.772 46.06 50.38V68.24C46.06 68.8987 45.8446 69.4434 45.414 69.874C44.9833 70.3047 44.4386 70.52 43.78 70.52Z" fill="#D9D9D9"/>
<circle cx="50" cy="61" r="13" fill="#5E4BCB"/>
<path d="M43.5 67.5001H44.4533L54.0516 57.9018L53.0983 56.9484L43.5 66.5468V67.5001ZM56.8033 56.9701L54.0299 54.1968L54.94 53.2868C55.1855 53.0412 55.4925 52.922 55.8608 52.9293C56.2291 52.9365 56.5361 53.0629 56.7816 53.3084L57.7133 54.2401C57.9588 54.4857 58.0816 54.789 58.0816 55.1501C58.0816 55.5112 57.9588 55.8145 57.7133 56.0601L56.8033 56.9701ZM42.85 68.8001C42.6622 68.8001 42.5069 68.7387 42.3841 68.6159C42.2613 68.4932 42.2 68.3379 42.2 68.1501V66.2868C42.2 66.2001 42.2144 66.1207 42.2433 66.0484C42.2722 65.9762 42.3227 65.904 42.395 65.8318L53.12 55.1068L55.8933 57.8801L45.1683 68.6051C45.0961 68.6773 45.0238 68.7279 44.9516 68.7568C44.8794 68.7857 44.8 68.8001 44.7133 68.8001H42.85ZM53.5749 57.4251L53.0983 56.9484L54.0516 57.9018L53.5749 57.4251Z" fill="#D9D9D9"/>
</g>
<defs>
<clipPath id="clip0_105_425">
<rect width="72.96" height="72.96" fill="white" transform="translate(0.839966 0.599976)"/>
</clipPath>
</defs>
</svg>
