<svg width="500" height="500" viewBox="0 0 500 500" fill="none" xmlns="http://www.w3.org/2000/svg">
<path d="M87.3208 384.779C62.859 348.779 51.3397 288.369 91.0069 257.279C129.261 227.279 190.093 271.759 225.327 240.659C267.728 203.229 200.455 148.559 205.503 104.659C211.104 55.9489 280.373 30.9989 325.303 24.9589C371.544 18.7789 414.56 43.0689 435.1 80.5789C460.975 127.799 459.132 184.299 447.07 233.929C433.216 290.929 395.177 340.389 354.916 385.129C308.9 436.259 240.235 455.529 170.382 443.509C132.609 436.999 106.735 413.319 87.3208 384.779Z" fill="#5E4BCB"/>
<path opacity="0.7" d="M87.3208 384.779C62.859 348.779 51.3397 288.369 91.0069 257.279C129.261 227.279 190.093 271.759 225.327 240.659C267.728 203.229 200.455 148.559 205.503 104.659C211.104 55.9489 280.373 30.9989 325.303 24.9589C371.544 18.7789 414.56 43.0689 435.1 80.5789C460.975 127.799 459.132 184.299 447.07 233.929C433.216 290.929 395.177 340.389 354.916 385.129C308.9 436.259 240.235 455.529 170.382 443.509C132.609 436.999 106.735 413.319 87.3208 384.779Z" fill="white"/>
<path d="M405.473 357.459V340.305H442.885" stroke="#263238" stroke-linecap="round" stroke-linejoin="round"/>
<path d="M372.223 324.083V357.459H397.658" stroke="#263238" stroke-linecap="round" stroke-linejoin="round"/>
<path d="M372.223 315.204V319.182" stroke="#263238" stroke-linecap="round" stroke-linejoin="round"/>
<path d="M304.476 362.887L322.125 375.821V302.08H372.224V308.776" stroke="#263238" stroke-linecap="round" stroke-linejoin="round"/>
<path d="M240.608 254.475L244.928 253.069V306.317L275.447 320.442V373.31L297.067 357.459L300.211 359.763" stroke="#263238" stroke-linecap="round" stroke-linejoin="round"/>
<path d="M230.992 257.59L235.487 256.132" stroke="#263238" stroke-linecap="round" stroke-linejoin="round"/>
<path d="M170.277 322.28H205.263V265.926L225.091 259.497" stroke="#263238" stroke-linecap="round" stroke-linejoin="round"/>
<path d="M451.59 340.305H455.57V431.209H409.801H405.472H372.223H359.694H322.125H275.446H272.017H244.928H235.781H208.425H205.263H158.327V322.28H164.541" stroke="#263238" stroke-linecap="round" stroke-linejoin="round"/>
<path d="M391.904 397.54V431.209H430.521V376.744" stroke="#263238" stroke-linecap="round" stroke-linejoin="round"/>
<path d="M430.521 370.601H391.904V390.197" stroke="#263238" stroke-linecap="round" stroke-linejoin="round"/>
<path d="M78.8228 333.109V305.411L127.882 294.392V299.138" stroke="#263238" stroke-linecap="round" stroke-linejoin="round"/>
<path d="M78.8228 345.733V338.623" stroke="#263238" stroke-linecap="round" stroke-linejoin="round"/>
<path d="M127.882 304.876V431.209H88.1528H78.8226H47.4399V353.162H78.8226" stroke="#263238" stroke-linecap="round" stroke-linejoin="round"/>
<path d="M119.462 373.31V362.8H115.132" stroke="#263238" stroke-linecap="round" stroke-linejoin="round"/>
<path d="M108.523 362.8H87.6655V431.209H119.462V381.162" stroke="#263238" stroke-linecap="round" stroke-linejoin="round"/>
<path d="M84.9541 333.066V339.563C84.9541 339.801 85.1599 339.995 85.4137 339.995H92.8595C93.1134 339.995 93.3191 339.801 93.3191 339.563V333.066C93.3191 332.827 93.1134 332.634 92.8595 332.634H85.4137C85.1599 332.634 84.9541 332.827 84.9541 333.066Z" stroke="#263238" stroke-linecap="round" stroke-linejoin="round"/>
<path d="M98.1353 343.757V350.254C98.1353 350.493 98.341 350.686 98.5949 350.686H106.041C106.295 350.686 106.5 350.493 106.5 350.254V343.757C106.5 343.519 106.295 343.325 106.041 343.325H98.5949C98.341 343.325 98.1353 343.519 98.1353 343.757Z" stroke="#263238" stroke-linecap="round" stroke-linejoin="round"/>
<path d="M98.1353 322.366V328.864C98.1353 329.102 98.341 329.295 98.5949 329.295H106.041C106.295 329.295 106.5 329.102 106.5 328.864V322.366C106.5 322.128 106.295 321.935 106.041 321.935H98.5949C98.341 321.935 98.1353 322.128 98.1353 322.366Z" stroke="#263238" stroke-linecap="round" stroke-linejoin="round"/>
<path d="M98.1353 311.675V318.173C98.1353 318.411 98.341 318.604 98.5949 318.604H106.041C106.295 318.604 106.5 318.411 106.5 318.173V311.675C106.5 311.437 106.295 311.244 106.041 311.244H98.5949C98.341 311.244 98.1353 311.437 98.1353 311.675Z" stroke="#263238" stroke-linecap="round" stroke-linejoin="round"/>
<path d="M111.318 343.748V350.246C111.318 350.484 111.524 350.677 111.777 350.677H119.223C119.477 350.677 119.683 350.484 119.683 350.246V343.748C119.683 343.51 119.477 343.317 119.223 343.317H111.777C111.524 343.317 111.318 343.51 111.318 343.748Z" stroke="#263238" stroke-linecap="round" stroke-linejoin="round"/>
<path d="M111.318 322.358V328.855C111.318 329.093 111.524 329.286 111.777 329.286H119.223C119.477 329.286 119.683 329.093 119.683 328.855V322.358C119.683 322.119 119.477 321.926 119.223 321.926H111.777C111.524 321.926 111.318 322.119 111.318 322.358Z" stroke="#263238" stroke-linecap="round" stroke-linejoin="round"/>
<path d="M419.279 419.828V424.85C419.279 425.088 419.485 425.281 419.738 425.281H425.511C425.765 425.281 425.971 425.088 425.971 424.85V419.828C425.971 419.589 425.765 419.396 425.511 419.396H419.738C419.485 419.396 419.279 419.589 419.279 419.828Z" stroke="#263238" stroke-linecap="round" stroke-linejoin="round"/>
<path d="M419.279 411.285V416.307C419.279 416.545 419.485 416.739 419.738 416.739H425.511C425.765 416.739 425.971 416.545 425.971 416.307V411.285C425.971 411.047 425.765 410.854 425.511 410.854H419.738C419.485 410.854 419.279 411.047 419.279 411.285Z" stroke="#263238" stroke-linecap="round" stroke-linejoin="round"/>
<path d="M419.279 385.641V390.663C419.279 390.901 419.485 391.094 419.738 391.094H425.511C425.765 391.094 425.971 390.901 425.971 390.663V385.641C425.971 385.402 425.765 385.209 425.511 385.209H419.738C419.485 385.209 419.279 385.402 419.279 385.641Z" stroke="#263238" stroke-linecap="round" stroke-linejoin="round"/>
<path d="M398.201 419.836V424.858C398.201 425.096 398.407 425.29 398.661 425.29H404.434C404.687 425.29 404.893 425.096 404.893 424.858V419.836C404.893 419.598 404.687 419.405 404.434 419.405H398.661C398.407 419.405 398.201 419.598 398.201 419.836Z" stroke="#263238" stroke-linecap="round" stroke-linejoin="round"/>
<path d="M398.201 402.734V407.756C398.201 407.994 398.407 408.188 398.661 408.188H404.434C404.687 408.188 404.893 407.994 404.893 407.756V402.734C404.893 402.496 404.687 402.303 404.434 402.303H398.661C398.407 402.303 398.201 402.496 398.201 402.734Z" stroke="#263238" stroke-linecap="round" stroke-linejoin="round"/>
<path d="M419.279 394.183V399.205C419.279 399.443 419.485 399.636 419.738 399.636H425.511C425.765 399.636 425.971 399.443 425.971 399.205V394.183C425.971 393.945 425.765 393.752 425.511 393.752H419.738C419.485 393.752 419.279 393.945 419.279 394.183Z" stroke="#263238" stroke-linecap="round" stroke-linejoin="round"/>
<path d="M408.736 411.285V416.307C408.736 416.545 408.942 416.739 409.195 416.739H414.968C415.222 416.739 415.428 416.545 415.428 416.307V411.285C415.428 411.047 415.222 410.854 414.968 410.854H409.195C408.942 410.854 408.736 411.047 408.736 411.285Z" stroke="#263238" stroke-linecap="round" stroke-linejoin="round"/>
<path d="M408.736 385.641V390.663C408.736 390.901 408.942 391.094 409.195 391.094H414.968C415.222 391.094 415.428 390.901 415.428 390.663V385.641C415.428 385.402 415.222 385.209 414.968 385.209H409.195C408.942 385.209 408.736 385.402 408.736 385.641Z" stroke="#263238" stroke-linecap="round" stroke-linejoin="round"/>
<path d="M398.201 377.09V382.112C398.201 382.35 398.407 382.543 398.661 382.543H404.434C404.687 382.543 404.893 382.35 404.893 382.112V377.09C404.893 376.851 404.687 376.658 404.434 376.658H398.661C398.407 376.658 398.201 376.851 398.201 377.09Z" stroke="#263238" stroke-linecap="round" stroke-linejoin="round"/>
<path d="M305.601 56.6419C305.601 56.6419 305.07 38.6092 321.599 36.2144C338.608 33.757 341.168 53.2373 341.168 53.2373" stroke="#263238" stroke-linecap="round" stroke-linejoin="round"/>
<path d="M297.584 57.9287C298.651 57.5356 299.746 57.2367 300.859 57.0351" stroke="#263238" stroke-linecap="round" stroke-linejoin="round"/>
<path d="M287 75.9167C287 66.2123 291.042 61.369 295.361 58.9385" stroke="#263238" stroke-linecap="round" stroke-linejoin="round"/>
<path d="M338.649 93.7439C325.918 93.7439 291.665 99.6059 287.429 80.1523" stroke="#263238" stroke-linecap="round" stroke-linejoin="round"/>
<path d="M346.808 94.0031L344.51 93.9048" stroke="#263238" stroke-linecap="round" stroke-linejoin="round"/>
<path d="M369.762 71.5917C374.57 71.4576 382.595 72.6997 382.595 82.5114C382.595 94.8251 363.557 94.7 349.032 94.1281" stroke="#263238" stroke-linecap="round" stroke-linejoin="round"/>
<path d="M345.335 51.888C353.284 49.797 369.661 48.2064 366.234 71.9581" stroke="#263238" stroke-linecap="round" stroke-linejoin="round"/>
<path d="M403.19 166.408C403.19 166.408 402.87 155.569 412.84 154.13C423.062 152.646 424.628 164.361 424.628 164.361" stroke="#263238" stroke-linecap="round" stroke-linejoin="round"/>
<path d="M398.366 167.185C399.008 166.945 399.666 166.76 400.336 166.631" stroke="#263238" stroke-linecap="round" stroke-linejoin="round"/>
<path d="M392 178.007C392 172.171 394.433 169.258 397.052 167.811" stroke="#263238" stroke-linecap="round" stroke-linejoin="round"/>
<path d="M423.062 188.73C415.408 188.73 394.804 192.251 392.261 180.553" stroke="#263238" stroke-linecap="round" stroke-linejoin="round"/>
<path d="M427.971 188.882L426.59 188.819" stroke="#263238" stroke-linecap="round" stroke-linejoin="round"/>
<path d="M441.772 175.406C444.668 175.317 449.493 176.068 449.493 181.974C449.493 189.373 438.042 189.302 429.285 188.935" stroke="#263238" stroke-linecap="round" stroke-linejoin="round"/>
<path d="M427.087 163.557C431.861 162.297 441.713 161.341 439.65 175.621" stroke="#263238" stroke-linecap="round" stroke-linejoin="round"/>
<path d="M44 431.209L386.57 431.1" stroke="#263238" stroke-linecap="round" stroke-linejoin="round"/>
<path d="M233.94 476.323C289.925 476.323 335.31 469.608 335.31 461.323C335.31 453.039 289.925 446.323 233.94 446.323C177.955 446.323 132.57 453.039 132.57 461.323C132.57 469.608 177.955 476.323 233.94 476.323Z" fill="#999999"/>
<path d="M292.71 221.973C292.71 221.973 290.44 227.873 292.71 228.813C294.98 229.753 295.47 224.473 296.23 224.633L292.71 221.973Z" fill="white" stroke="#263238" stroke-linecap="round" stroke-linejoin="round"/>
<path d="M304.53 214.613C304.53 214.613 318.38 210.803 318.38 204.613C318.38 198.083 310.21 193.763 306.64 192.613C301.445 190.796 296.399 188.576 291.55 185.973C286.06 183.103 282.82 181.973 280 180.313C275.25 177.543 268.71 172.803 262.17 169.503L266.27 195.293C266.27 195.293 289.29 207.573 298.05 206.973C298.05 206.973 292.74 211.173 291.72 212.703L304.53 214.613Z" fill="white" stroke="#263238" stroke-linecap="round" stroke-linejoin="round"/>
<path d="M297.93 205.223C299.12 203.723 299.42 199.223 303.02 198.303" stroke="#263238" stroke-linecap="round" stroke-linejoin="round"/>
<path d="M301.01 205.223C301.01 205.223 306.8 201.913 309.48 207.813C312.16 213.713 306.55 215.813 306.55 215.813L294.64 217.173C294.64 217.173 288.94 210.123 296.23 207.243L301.01 205.223Z" fill="#5E4BCB" stroke="#263238" stroke-linecap="round" stroke-linejoin="round"/>
<path d="M286.36 183.433C283.76 182.223 281.79 181.383 280 180.333C275.25 177.563 268.71 172.823 262.17 169.523L266.27 195.313C266.27 195.313 273.79 199.313 281.87 202.633C285.89 193.413 286.43 186.743 286.36 183.433Z" fill="#263238" stroke="#263238" stroke-linecap="round" stroke-linejoin="round"/>
<path d="M303.78 206.323C300.54 207.323 291.57 209.973 291.7 212.323C290.891 212.562 290.199 213.091 289.758 213.809C289.317 214.528 289.157 215.384 289.31 216.213C289.69 219.403 290.69 222.353 292.2 223.523C293.71 224.693 298.62 229.523 299.63 228.013C300.64 226.503 298.49 224.653 298.49 224.653C298.49 224.653 301.39 227.303 302.9 226.003C304.41 224.703 300.38 221.523 299.38 220.103C299.38 220.103 304.03 223.453 305.54 221.763C305.861 221.383 306.037 220.901 306.037 220.403C306.037 219.906 305.861 219.424 305.54 219.043C305.54 219.043 307.73 219.903 308.48 217.863C308.92 216.683 307.05 215.393 307.05 215.393C307.05 215.393 309.51 211.733 308.78 209.733C308.05 207.733 307.16 205.253 303.78 206.323Z" fill="white" stroke="#263238" stroke-linecap="round" stroke-linejoin="round"/>
<path d="M291.57 215.043C292.133 215.666 292.562 216.398 292.83 217.193C293.958 220.176 295.924 222.77 298.49 224.663" stroke="#263238" stroke-linecap="round" stroke-linejoin="round"/>
<path d="M295.03 213.273C295.467 213.79 295.79 214.393 295.98 215.043C296.8 216.924 297.952 218.641 299.38 220.113" stroke="#263238" stroke-linecap="round" stroke-linejoin="round"/>
<path d="M300 210.803C299.832 211.998 300.102 213.212 300.76 214.223C301.89 216.343 302.02 216.813 303.53 217.873" stroke="#263238" stroke-linecap="round" stroke-linejoin="round"/>
<path d="M306.05 214.453C306.05 214.453 304.28 211.983 304.66 210.803" stroke="#263238" stroke-linecap="round" stroke-linejoin="round"/>
<path d="M301.29 206.723L297.08 208.453C296.653 208.632 296.175 208.643 295.741 208.484C295.307 208.324 294.949 208.006 294.74 207.593V207.593C294.649 207.39 294.602 207.17 294.599 206.948C294.597 206.725 294.64 206.505 294.726 206.299C294.813 206.094 294.94 205.909 295.1 205.755C295.261 205.601 295.451 205.481 295.66 205.403L299.87 203.683C300.293 203.502 300.77 203.489 301.203 203.647C301.636 203.805 301.993 204.122 302.2 204.533V204.533C302.294 204.736 302.344 204.955 302.349 205.178C302.353 205.401 302.311 205.622 302.226 205.828C302.14 206.034 302.013 206.22 301.852 206.374C301.691 206.528 301.499 206.647 301.29 206.723Z" fill="#999999" stroke="#263238" stroke-linecap="round" stroke-linejoin="round"/>
<path d="M254.7 275.663C254.7 275.663 257.7 308.663 244.13 353.733C243.357 359.809 241.569 365.711 238.84 371.193C238.84 371.193 236.33 420.723 239.1 441.013L228.52 446.433L220.22 443.363C220.22 443.363 223.49 433.223 218.71 413.883C213.93 394.543 211.91 378.503 216.95 369.773C221.99 361.043 214.95 343.593 213.8 317.653L211.91 295.913C211.91 295.913 192.28 266.233 216.44 252.553L256.44 270.873L254.7 275.663Z" fill="white" stroke="#263238" stroke-linecap="round" stroke-linejoin="round"/>
<path d="M219.67 440.253C221.16 439.483 224.03 441.253 225.14 444.013C226.25 446.773 235.14 438.573 237.19 440.253C239.24 441.933 235.96 435.643 239.53 435.123C243.1 434.603 242.28 440.043 247.43 443.123C252.58 446.203 273.43 448.453 273.56 454.833C273.63 458.433 255.05 458.063 238.86 457.833C226.36 457.633 215.7 458.133 215.32 456.443C214.86 454.373 216.11 451.213 216.69 448.223C217.37 444.623 217.58 441.323 219.67 440.253Z" fill="#5E4BCB" stroke="#263238" stroke-linecap="round" stroke-linejoin="round"/>
<path d="M273.56 454.783C273.63 458.383 255.05 458.013 238.86 457.783C226.36 457.583 215.7 458.083 215.32 456.393C215.32 456.393 214.99 459.003 215.99 460.153C215.99 460.153 221.68 461.513 236.08 460.883C250.48 460.253 251.14 462.053 268.43 461.053C268.43 460.973 274.9 460.113 273.56 454.783Z" fill="white" stroke="#263238" stroke-linecap="round" stroke-linejoin="round"/>
<path d="M216.44 252.553C192.28 266.233 211.91 295.913 211.91 295.913L213.8 317.653C214.09 324.373 214.8 330.533 215.56 336.113C226.438 338.219 237.591 338.493 248.56 336.923C256.95 300.703 254.66 275.663 254.66 275.663L256.45 270.873L216.44 252.553Z" fill="#5E4BCB"/>
<path opacity="0.2" d="M254.7 275.663C254.7 275.663 254.29 300.533 244.39 307.663C234.49 314.793 229.22 343.723 215.22 353.723C201.22 363.723 213.3 303.423 213.3 303.423L217.29 278.273L232.6 270.383L247.54 271.493L254.7 275.663Z" fill="black"/>
<path d="M216.44 252.553C192.28 266.233 211.91 295.913 211.91 295.913L213.8 317.653C214.09 324.373 214.8 330.533 215.56 336.113C226.438 338.219 237.591 338.493 248.56 336.923C256.95 300.703 254.66 275.663 254.66 275.663L256.45 270.873L216.44 252.553Z" stroke="#263238" stroke-linecap="round" stroke-linejoin="round"/>
<path d="M229.29 366.973C229.29 366.973 231.05 369.803 235.83 371.693" stroke="#263238" stroke-linecap="round" stroke-linejoin="round"/>
<path d="M259.23 272.123C259.23 272.123 254.42 278.453 253.44 280.853C251.09 286.643 249.03 300.453 240.76 305.253C239.176 306.119 237.905 307.463 237.13 309.093C233.13 318.093 219.97 346.343 208.39 356.803C194.55 369.303 180.7 359.633 177.68 352.083C174.66 344.533 174.89 337.393 173.68 328.023C171.68 313.023 170.68 279.673 167.38 266.933C167.38 266.933 178.46 262.693 182.49 269.293C182.49 269.293 194.06 297.363 195.07 309.393C195.07 309.393 198.34 299.013 198.34 289.343C198.34 279.673 194.06 261.983 216.46 252.553L259.23 272.123Z" fill="white" stroke="#263238" stroke-linecap="round" stroke-linejoin="round"/>
<path d="M259.23 272.123L216.44 252.553C194.04 261.973 198.29 279.673 198.29 289.343C198.134 295.451 197.227 301.517 195.59 307.403C195.85 312.193 196.07 319.603 195.27 324.253C195.27 324.253 209.78 333.723 221.61 339.253C227.35 329.504 232.522 319.43 237.1 309.083C237.875 307.453 239.146 306.109 240.73 305.243C249 300.443 251.06 286.633 253.41 280.843C254.42 278.453 259.23 272.123 259.23 272.123Z" fill="#5E4BCB" stroke="#263238" stroke-linecap="round" stroke-linejoin="round"/>
<path d="M195.29 327.083C195.29 327.083 194.29 336.523 190.01 342.413" stroke="#263238" stroke-linecap="round" stroke-linejoin="round"/>
<path d="M187.5 358.973C189.569 356.792 192.321 355.381 195.3 354.973" stroke="#263238" stroke-linecap="round" stroke-linejoin="round"/>
<path d="M186.38 278.233C184.69 277.883 181.76 275.633 182.85 272.833C183.94 270.033 172.23 270.703 171.85 268.153C171.47 265.603 169.5 273.413 166.37 271.573C164.31 270.353 164.01 267.513 164.89 264.123C165.35 262.383 166.59 260.483 165.98 258.593C164.21 252.973 149.78 238.123 154.29 233.133C156.82 230.323 170.87 242.293 183.15 252.673C192.64 260.673 201.21 267.013 200.29 268.563C199.13 270.493 194.73 271.073 192.06 273.033C189.04 275.243 188.72 278.713 186.38 278.233Z" fill="#5E4BCB" stroke="#263238" stroke-linecap="round" stroke-linejoin="round"/>
<path d="M154.29 233.133C156.82 230.323 170.87 242.293 183.15 252.673C192.64 260.673 201.21 267.013 200.29 268.563C200.29 268.563 202.42 266.763 202.47 265.243C202.47 265.243 199.06 260.613 187.47 252.043C175.88 243.473 176.72 241.673 162.68 231.563C162.68 231.563 157.05 228.183 154.29 233.133Z" fill="white" stroke="#263238" stroke-linecap="round" stroke-linejoin="round"/>
<path d="M219.97 173.063C219.97 173.063 219.72 196.173 221.73 212.683C223.74 229.193 221.23 239.573 211.91 253.963C226.613 263.497 242.642 270.809 259.48 275.663C259.48 275.663 276.35 234.863 277.1 217.873C280.129 204.893 278.151 191.249 271.56 179.663C260.49 160.563 244.88 156.553 236.33 159.613C227.78 162.673 219.54 167.703 219.97 173.063Z" fill="#263238" stroke="#263238" stroke-linecap="round" stroke-linejoin="round"/>
<path d="M278.1 198.303C277.202 191.734 275.031 185.402 271.71 179.663" stroke="#7F7F7F" stroke-linecap="round" stroke-linejoin="round"/>
<path d="M253.72 146.353C251.448 141.634 249.801 136.638 248.82 131.493C247.61 124.063 252.68 123.853 252.68 123.853C252.68 123.853 251.91 118.333 258.25 116.103C264.59 113.873 273.88 117.803 279.89 114.103C285.9 110.403 282.34 116.543 282.34 116.543C282.34 116.543 288.49 111.773 289.51 112.083C290.53 112.393 287.93 119.943 287.93 119.943C287.93 119.943 289.85 116.653 290.99 117.183C292.13 117.713 287.66 125.253 286.27 129.603C284.88 133.953 274.45 143.823 274.45 143.823L265.62 154.433L259.73 152.213L253.72 146.353Z" fill="#263238" stroke="#263238" stroke-linecap="round" stroke-linejoin="round"/>
<path d="M254.29 149.973C254.29 149.973 252.18 159.593 248.86 161.153C248.86 161.153 260.33 178.313 268.64 176.153C271.86 175.313 265.92 174.153 272.72 164.833C279.52 155.513 255.5 148.393 255.5 148.393L254.29 149.973Z" fill="white"/>
<path d="M264.88 150.613C264.43 151.253 263.82 151.283 262.6 150.613H254.78C255.464 151.286 256.296 151.789 257.21 152.083C257.21 152.083 257.69 161.913 266.48 166.543C275.27 171.173 277.78 170.403 280.9 165.843C283.539 161.613 285.404 156.947 286.41 152.063C286.513 151.558 286.688 151.069 286.93 150.613H264.88Z" fill="#263238" stroke="#263238" stroke-linecap="round" stroke-linejoin="round"/>
<path d="M254.29 149.973C254.29 149.973 252.18 159.593 248.86 161.153C248.86 161.153 260.33 178.313 268.64 176.153C271.86 175.313 265.92 174.153 272.72 164.833C279.52 155.513 255.5 148.393 255.5 148.393L254.29 149.973Z" stroke="#263238" stroke-linecap="round" stroke-linejoin="round"/>
<path d="M260.9 145.713C260.9 145.713 260.44 142.713 255.9 142.463C251.36 142.213 251.07 152.793 258.4 153.643C258.4 153.643 261.19 163.123 270.85 165.813C280.51 168.503 282.78 167.223 284.75 162.133C286.318 157.438 287.033 152.5 286.86 147.553C286.71 145.003 289.13 141.893 288.22 138.213C287.31 134.533 286.22 129.583 286.22 129.583C286.22 129.583 285.16 134.393 280.48 134.533C275.8 134.673 267.04 131.423 266.13 132.833C265.22 134.243 271.71 139.063 270.5 140.473C269.29 141.883 265.98 144.583 265.83 147.693C265.68 150.803 265.68 151.803 263.26 151.093C261.57 150.583 260.9 145.713 260.9 145.713Z" fill="white" stroke="#263238" stroke-linecap="round" stroke-linejoin="round"/>
<path d="M286.37 145.443C286.1 147.323 287.46 151.983 288.13 154.133C288.167 154.265 288.173 154.404 288.148 154.539C288.122 154.674 288.065 154.801 287.981 154.909C287.898 155.018 287.79 155.106 287.666 155.166C287.543 155.225 287.407 155.255 287.27 155.253C286.12 155.253 284.48 155.433 283.98 155.903C283.76 156.103 283.79 157.013 283.79 157.013" fill="white"/>
<path d="M286.37 145.443C286.1 147.323 287.46 151.983 288.13 154.133C288.167 154.265 288.173 154.404 288.148 154.539C288.122 154.674 288.065 154.801 287.981 154.909C287.898 155.018 287.79 155.106 287.666 155.166C287.543 155.225 287.407 155.255 287.27 155.253C286.12 155.253 284.48 155.433 283.98 155.903C283.76 156.103 283.79 157.013 283.79 157.013" stroke="#263238" stroke-linecap="round" stroke-linejoin="round"/>
<path d="M281.44 147.513C281.33 148.273 280.88 148.853 280.44 148.793C280 148.733 279.72 148.073 279.83 147.313C279.94 146.553 280.38 145.973 280.83 146.023C281.28 146.073 281.55 146.743 281.44 147.513Z" fill="#263238"/>
<path d="M277.85 144.403C277.85 144.403 279.63 141.283 283.15 143.463" stroke="#263238" stroke-linecap="round" stroke-linejoin="round"/>
<path d="M282.87 158.613C282.87 158.613 280.78 159.923 276.5 157.323" stroke="#263238" stroke-linecap="round" stroke-linejoin="round"/>
<path d="M257.12 125.463C257.12 125.463 256.54 118.933 263.35 119.343C270.16 119.753 277.77 122.123 285.98 115.873" stroke="#7F7F7F" stroke-linecap="round" stroke-linejoin="round"/>
<path d="M287.93 119.973C287.93 119.973 283.93 128.383 278.42 130.973" stroke="#7F7F7F" stroke-linecap="round" stroke-linejoin="round"/>
<path d="M285.98 118.793C285.98 118.793 280.85 125.463 268.98 125.463" stroke="#7F7F7F" stroke-linecap="round" stroke-linejoin="round"/>
<path d="M162.65 230.543C162.65 230.543 173.65 193.543 176.87 183.673C180.45 172.673 191.02 173.063 216.19 164.573C241.36 156.083 246.53 159.263 249.77 162.443C253.01 165.623 256.97 184.143 229.28 187.683C201.59 191.223 195.28 193.343 195.28 193.343C195.28 193.343 186.64 207.103 183.45 213.343C180.97 218.253 173.13 234.573 173.13 234.573C173.616 237.293 174.321 239.968 175.24 242.573C176.89 247.183 179.8 252.573 178.17 252.573C173.09 252.573 175.39 248.233 171.71 247.153C168.03 246.073 170.42 253.683 165.99 258.613C165.99 258.613 162.31 258.813 162.81 255.513C162.81 255.513 160.28 255.723 160.04 251.433C159.641 251.368 159.259 251.222 158.918 251.005C158.576 250.788 158.282 250.504 158.054 250.171C157.825 249.837 157.666 249.461 157.586 249.064C157.506 248.668 157.507 248.259 157.59 247.863C156.98 247.572 156.464 247.116 156.1 246.547C155.736 245.978 155.538 245.319 155.53 244.643C155.53 242.293 155.29 239.193 162.65 230.543Z" fill="white" stroke="#263238" stroke-linecap="round" stroke-linejoin="round"/>
<path d="M249.77 162.443C246.53 159.263 241.36 156.083 216.19 164.573C211.97 165.993 208.19 167.163 204.74 168.183C206.58 171.663 210.54 180.363 210.23 190.393C215.03 189.623 221.23 188.713 229.28 187.683C256.97 184.143 253.12 165.753 249.77 162.443Z" fill="#263238" stroke="#263238" stroke-linecap="round" stroke-linejoin="round"/>
<path d="M196.22 188.393C196.48 190.116 196.156 191.876 195.3 193.393" stroke="#263238" stroke-linecap="round" stroke-linejoin="round"/>
<path d="M250.71 174.123C251.016 173.168 251.217 172.182 251.31 171.183" stroke="#7F7F7F" stroke-linecap="round" stroke-linejoin="round"/>
<path d="M222.49 188.393L228.56 187.593C240.69 186.043 246.77 181.593 249.49 176.903" stroke="#7F7F7F" stroke-linecap="round" stroke-linejoin="round"/>
<path d="M222.29 216.443C223.23 224.152 225.104 231.717 227.87 238.973" stroke="#7F7F7F" stroke-linecap="round" stroke-linejoin="round"/>
<path d="M234.92 196.443C236.24 201.163 241.39 203.873 246.27 204.293C251.15 204.713 255.99 203.403 260.85 202.853C265.71 202.303 271.08 202.683 274.8 205.853" stroke="#7F7F7F" stroke-linecap="round" stroke-linejoin="round"/>
</svg>
