<svg width="74" height="74" viewBox="0 0 74 74" fill="none" xmlns="http://www.w3.org/2000/svg">
<path d="M6.00797 61.6401C5.3493 61.6401 4.80463 61.4248 4.37397 60.9941C3.9433 60.5634 3.72797 60.0188 3.72797 59.3601V54.4961C3.72797 52.7228 4.18397 51.1141 5.09597 49.6701C6.00797 48.2261 7.27463 47.1494 8.89597 46.4401C12.5946 44.8188 15.926 43.6534 18.89 42.9441C21.854 42.2348 24.9066 41.8801 28.048 41.8801C31.1893 41.8801 34.2293 42.2348 37.168 42.9441C40.1066 43.6534 43.4253 44.8188 47.124 46.4401C48.7453 47.1494 50.0246 48.2261 50.962 49.6701C51.8993 51.1141 52.368 52.7228 52.368 54.4961V59.3601C52.368 60.0188 52.1526 60.5634 51.722 60.9941C51.2913 61.4248 50.7466 61.6401 50.088 61.6401H6.00797ZM55.256 61.6401C55.7626 61.5388 56.168 61.2728 56.472 60.8421C56.776 60.4114 56.928 59.8668 56.928 59.2081V54.4961C56.928 51.3041 56.1173 48.6821 54.496 46.6301C52.8746 44.5781 50.7466 42.9188 48.112 41.6521C51.608 42.0574 54.9013 42.6528 57.992 43.4381C61.0826 44.2234 63.5906 45.1228 65.516 46.1361C67.188 47.0988 68.5053 48.2894 69.468 49.7081C70.4306 51.1268 70.912 52.7228 70.912 54.4961V59.3601C70.912 60.0188 70.6966 60.5634 70.266 60.9941C69.8353 61.4248 69.2906 61.6401 68.632 61.6401H55.256ZM28.048 37.2441C24.704 37.2441 21.968 36.1801 19.84 34.0521C17.712 31.9241 16.648 29.1881 16.648 25.8441C16.648 22.5001 17.712 19.7641 19.84 17.6361C21.968 15.5081 24.704 14.4441 28.048 14.4441C31.392 14.4441 34.128 15.5081 36.256 17.6361C38.384 19.7641 39.448 22.5001 39.448 25.8441C39.448 29.1881 38.384 31.9241 36.256 34.0521C34.128 36.1801 31.392 37.2441 28.048 37.2441ZM55.408 25.8441C55.408 29.1881 54.344 31.9241 52.216 34.0521C50.088 36.1801 47.352 37.2441 44.008 37.2441C43.4506 37.2441 42.83 37.2061 42.146 37.1301C41.462 37.0541 40.8413 36.9148 40.284 36.7121C41.5 35.4454 42.4246 33.8874 43.058 32.0381C43.6913 30.1888 44.008 28.1241 44.008 25.8441C44.008 23.5641 43.6913 21.5501 43.058 19.8021C42.4246 18.0541 41.5 16.4454 40.284 14.9761C40.8413 14.8241 41.462 14.6974 42.146 14.5961C42.83 14.4948 43.4506 14.4441 44.008 14.4441C47.352 14.4441 50.088 15.5081 52.216 17.6361C54.344 19.7641 55.408 22.5001 55.408 25.8441ZM8.28797 57.0801H47.808V54.4961C47.808 53.6854 47.5673 52.9001 47.086 52.1401C46.6046 51.3801 46.0093 50.8481 45.3 50.5441C41.652 48.9228 38.5866 47.8334 36.104 47.2761C33.6213 46.7188 30.936 46.4401 28.048 46.4401C25.16 46.4401 22.462 46.7188 19.954 47.2761C17.446 47.8334 14.368 48.9228 10.72 50.5441C10.0106 50.8481 9.42797 51.3801 8.97197 52.1401C8.51597 52.9001 8.28797 53.6854 8.28797 54.4961V57.0801ZM28.048 32.6841C30.024 32.6841 31.658 32.0381 32.95 30.7461C34.242 29.4541 34.888 27.8201 34.888 25.8441C34.888 23.8681 34.242 22.2341 32.95 20.9421C31.658 19.6501 30.024 19.0041 28.048 19.0041C26.072 19.0041 24.438 19.6501 23.146 20.9421C21.854 22.2341 21.208 23.8681 21.208 25.8441C21.208 27.8201 21.854 29.4541 23.146 30.7461C24.438 32.0381 26.072 32.6841 28.048 32.6841Z" fill="#D9D9D9"/>
</svg>
