<svg width="40" height="40" viewBox="0 0 40 40" fill="none" xmlns="http://www.w3.org/2000/svg">
<rect width="40" height="40" rx="20" fill="#D9D9D9"/>
<path d="M20.2025 18.5706V21.9981H25.9911C25.7551 23.4694 24.2407 26.3113 20.2025 26.3113C16.7221 26.3113 13.8788 23.4856 13.8788 19.9994C13.8788 16.5131 16.7215 13.6875 20.2025 13.6875C22.1849 13.6875 23.5138 14.5112 24.2707 15.2275L27.0375 12.6137C25.261 10.9894 22.959 10 20.2025 10C14.563 10 10 14.4694 10 20C10 25.5306 14.563 30 20.2025 30C26.0905 30 30 25.9438 30 20.2281C30 19.5706 29.9267 19.0694 29.8374 18.5712L20.2025 18.5706Z" fill="black"/>
</svg>
