<svg width="500" height="500" viewBox="0 0 500 500" fill="none" xmlns="http://www.w3.org/2000/svg">
<path d="M69.0799 396.12C105.96 419.42 171.87 427.56 199.45 428.8C274.45 432.16 368.45 435.8 433.05 389.95C471.05 362.95 437.05 283.95 432.05 255.95C427.05 227.95 479.05 232.95 452.05 167.95C425.05 102.95 334.05 65.95 266.05 66.95C198.05 67.95 196.05 113.95 148.05 133.95C100.05 153.95 81.0499 128.95 46.0499 171.95C11.0499 214.95 64.0499 277.95 72.0499 297.95C76.4599 308.95 57.4399 321.24 52.3999 329.25C33.3899 359.44 45.0999 381 69.0799 396.12Z" fill="#5E4BCB"/>
<path opacity="0.8" d="M69.0799 396.12C105.96 419.42 171.87 427.56 199.45 428.8C274.45 432.16 368.45 435.8 433.05 389.95C471.05 362.95 437.05 283.95 432.05 255.95C427.05 227.95 479.05 232.95 452.05 167.95C425.05 102.95 334.05 65.95 266.05 66.95C198.05 67.95 196.05 113.95 148.05 133.95C100.05 153.95 81.0499 128.95 46.0499 171.95C11.0499 214.95 64.0499 277.95 72.0499 297.95C76.4599 308.95 57.4399 321.24 52.3999 329.25C33.3899 359.44 45.0999 381 69.0799 396.12Z" fill="white"/>
<path opacity="0.8" d="M393.17 136C388.65 133.53 386.59 135.59 384.95 133.53C383.31 131.47 389.47 126.13 377.14 120.79C377.14 120.79 376.32 109.27 359.46 108.86C342.6 108.45 347.12 120.38 342.6 123.25C338.08 126.12 336.84 121.61 332.32 124.49C327.8 127.37 329.85 133.12 326.15 133.94C322.45 134.76 317.52 130.24 312.99 133.12C308.46 136 308.47 138.47 306.41 138.47C304.35 138.47 300.25 136.82 297.78 138.47C295.31 140.12 292.43 142.17 292.43 142.17H396.43C396.43 142.17 397.7 138.48 393.17 136Z" fill="white"/>
<path opacity="0.8" d="M283.79 84C282.13 83.09 281.37 83.85 280.79 83.09C280.21 82.33 282.45 80.37 277.91 78.4C277.91 78.4 277.61 74.16 271.41 74.01C265.21 73.86 266.87 78.25 265.2 79.31C263.53 80.37 263.09 78.7 261.42 79.76C259.75 80.82 260.51 82.94 259.15 83.24C257.79 83.54 255.97 81.88 254.31 82.94C252.65 84 252.65 84.94 251.89 84.94C251.13 84.94 249.62 84.33 248.71 84.94C247.8 85.55 246.71 86.3 246.71 86.3H285C285.105 85.8353 285.041 85.3483 284.819 84.9267C284.598 84.505 284.233 84.1764 283.79 84V84Z" fill="white"/>
<path d="M44 366C47 378.12 56.29 388.06 69.13 396.17C106.01 419.47 171.92 427.61 199.5 428.85C274.5 432.21 368.5 435.85 433.1 390C441.39 384.11 446.25 375.76 448.73 366H44Z" fill="#5E4BCB"/>
<path opacity="0.6" d="M44 366C47 378.12 56.29 388.06 69.13 396.17C106.01 419.47 171.92 427.61 199.5 428.85C274.5 432.21 368.5 435.85 433.1 390C441.39 384.11 446.25 375.76 448.73 366H44Z" fill="white"/>
<path d="M187.89 232C187.89 232 230.13 236.18 251.54 262.37C251.54 262.37 274.16 232.03 314.78 232.66C324.71 220.685 331.033 206.135 333.014 190.704C334.995 175.274 332.552 159.599 325.969 145.504C319.385 131.409 308.934 119.473 295.83 111.088C282.727 102.703 267.511 98.2129 251.954 98.1406C236.398 98.0683 221.141 102.417 207.96 110.68C194.779 118.943 184.217 130.78 177.503 144.814C170.789 158.847 168.2 174.499 170.037 189.947C171.874 205.395 178.062 220.003 187.88 232.07L187.89 232Z" fill="#5E4BCB"/>
<path opacity="0.6" d="M187.89 232C187.89 232 230.13 236.18 251.54 262.37C251.54 262.37 274.16 232.03 314.78 232.66C324.71 220.685 331.033 206.135 333.014 190.704C334.995 175.274 332.552 159.599 325.969 145.504C319.385 131.409 308.934 119.473 295.83 111.088C282.727 102.703 267.511 98.2129 251.954 98.1406C236.398 98.0683 221.141 102.417 207.96 110.68C194.779 118.943 184.217 130.78 177.503 144.814C170.789 158.847 168.2 174.499 170.037 189.947C171.874 205.395 178.062 220.003 187.88 232.07L187.89 232Z" fill="white"/>
<path d="M250.14 103.96L248.72 364.95H255.84L250.14 103.96Z" fill="#263238"/>
<path d="M252.28 254.4C252.28 254.4 266.54 228.73 292.21 220.89C292.21 220.89 265.11 227.3 251.57 249.41L252.28 254.4Z" fill="#263238"/>
<path d="M252.28 181.67C252.28 181.67 266.54 156.01 292.21 148.17C292.21 148.17 265.11 154.58 251.57 176.68L252.28 181.67Z" fill="#263238"/>
<path d="M252.28 218C252.28 218 266.54 192.33 292.21 184.49C292.21 184.49 265.11 190.9 251.57 213.01L252.28 218Z" fill="#263238"/>
<path d="M250.17 200.21C250.17 200.21 236.41 174.55 211.64 166.7C211.64 166.7 237.78 173.12 250.85 195.22L250.17 200.21Z" fill="#263238"/>
<path d="M250.17 235.86C250.17 235.86 236.41 210.19 211.64 202.35C211.64 202.35 237.78 208.77 250.85 230.87L250.17 235.86Z" fill="#263238"/>
<path d="M75.8201 249.25C75.8201 249.25 109.36 252.57 126.36 273.36C126.36 273.36 144.36 249.27 176.58 249.77C184.46 240.261 189.476 228.709 191.045 216.459C192.615 204.21 190.672 191.766 185.444 180.578C180.216 169.389 171.917 159.916 161.514 153.261C151.111 146.606 139.031 143.043 126.681 142.986C114.332 142.93 102.22 146.383 91.7568 152.943C81.2933 159.502 72.9084 168.899 67.5783 180.04C62.2481 191.18 60.192 203.605 61.6494 215.869C63.1067 228.132 68.0175 239.729 75.8101 249.31L75.8201 249.25Z" fill="#5E4BCB"/>
<path opacity="0.5" d="M75.8201 249.25C75.8201 249.25 109.36 252.57 126.36 273.36C126.36 273.36 144.36 249.27 176.58 249.77C184.46 240.261 189.476 228.709 191.045 216.459C192.615 204.21 190.672 191.766 185.444 180.578C180.216 169.389 171.917 159.916 161.514 153.261C151.111 146.606 139.031 143.043 126.681 142.986C114.332 142.93 102.22 146.383 91.7568 152.943C81.2933 159.502 72.9084 168.899 67.5783 180.04C62.2481 191.18 60.192 203.605 61.6494 215.869C63.1067 228.132 68.0175 239.729 75.8101 249.31L75.8201 249.25Z" fill="white"/>
<path d="M125.25 147.57L124.12 364.95H129.78L125.25 147.57Z" fill="#263238"/>
<path d="M127 267C127 267 138.32 246.62 158.7 240.4C158.7 240.4 137.19 245.49 126.43 263.04L127 267Z" fill="#263238"/>
<path d="M127 209.28C127 209.28 138.32 188.9 158.7 182.67C158.7 182.67 137.19 187.76 126.43 205.31L127 209.28Z" fill="#263238"/>
<path d="M127 238.15C127 238.15 138.32 217.77 158.7 211.54C158.7 211.54 137.19 216.64 126.43 234.19L127 238.15Z" fill="#263238"/>
<path d="M125.27 224C125.27 224 114.34 203.62 94.6802 197.39C94.6802 197.39 115.44 202.48 125.82 220.03L125.27 224Z" fill="#263238"/>
<path d="M125.27 252.3C125.27 252.3 114.34 231.92 94.6802 225.7C94.6802 225.7 115.44 230.79 125.82 248.34L125.27 252.3Z" fill="#263238"/>
<path d="M321.29 249.25C321.29 249.25 354.84 252.57 371.84 273.36C371.84 273.36 389.84 249.27 422.06 249.77C429.942 240.26 434.96 228.706 436.53 216.454C438.1 204.202 436.158 191.756 430.929 180.566C425.7 169.375 417.4 159.9 406.995 153.244C396.59 146.587 384.508 143.023 372.156 142.967C359.804 142.91 347.691 146.364 337.225 152.925C326.76 159.486 318.374 168.885 313.043 180.028C307.712 191.17 305.656 203.598 307.115 215.863C308.573 228.129 313.485 239.728 321.28 249.31L321.29 249.25Z" fill="#5E4BCB"/>
<path opacity="0.5" d="M321.29 249.25C321.29 249.25 354.84 252.57 371.84 273.36C371.84 273.36 389.84 249.27 422.06 249.77C429.942 240.26 434.96 228.706 436.53 216.454C438.1 204.202 436.158 191.756 430.929 180.566C425.7 169.375 417.4 159.9 406.995 153.244C396.59 146.587 384.508 143.023 372.156 142.967C359.804 142.91 347.691 146.364 337.225 152.925C326.76 159.486 318.374 168.885 313.043 180.028C307.712 191.17 305.656 203.598 307.115 215.863C308.573 228.129 313.485 239.728 321.28 249.31L321.29 249.25Z" fill="white"/>
<path d="M370.73 147.57L369.59 364.95H375.25L370.73 147.57Z" fill="#263238"/>
<path d="M372.42 267C372.42 267 383.75 246.62 404.13 240.4C404.13 240.4 382.61 245.49 371.86 263.04L372.42 267Z" fill="#263238"/>
<path d="M372.42 209.28C372.42 209.28 383.75 188.9 404.13 182.67C404.13 182.67 382.61 187.76 371.86 205.31L372.42 209.28Z" fill="#263238"/>
<path d="M372.42 238.15C372.42 238.15 383.75 217.77 404.13 211.54C404.13 211.54 382.61 216.64 371.86 234.19L372.42 238.15Z" fill="#263238"/>
<path d="M370.75 224C370.75 224 359.82 203.62 340.15 197.39C340.15 197.39 360.91 202.48 371.29 220.03L370.75 224Z" fill="#263238"/>
<path d="M370.75 252.3C370.75 252.3 359.82 231.92 340.15 225.7C340.15 225.7 360.91 230.79 371.29 248.34L370.75 252.3Z" fill="#263238"/>
<path d="M439.83 372.82L407.9 369L425.78 365.81L395.72 368.58C393.99 366.38 425.78 365.81 425.78 365.81H401.52L399.6 363.25C397.69 360.7 391.3 365.81 388.11 365.81C384.92 365.81 388.11 363.25 391.94 356.87C395.77 350.49 384.12 358.17 384.12 358.17C384.333 357.236 384.281 356.261 383.97 355.355C383.659 354.448 383.101 353.647 382.36 353.04C379.81 351.12 375.98 361.34 375.98 361.34C375.98 361.34 373.18 357.42 369.59 356.23C366 355.04 367 362.6 367 362.6C367 362.6 356.78 357.5 352.31 355.6C347.84 353.7 354.22 360.71 358.7 363.26C363.18 365.81 355.5 365.18 351.7 365.18H319.78C316.59 365.18 286.58 365.82 286.58 365.82L285.94 361.99C285.3 358.15 276.36 362.62 273.81 361.35C271.26 360.08 273.81 358.15 269.97 353.05C266.13 347.95 261.67 360.05 255.97 361.35H246.39C246.216 358.704 245.078 356.213 243.19 354.35C240 351.16 240.64 359.46 238.09 359.46C235.54 359.46 236.17 358.18 231.7 356.27C227.23 354.36 230.42 360.74 228.51 360.74C226.6 360.74 220.84 356.91 216.37 357.55C211.9 358.19 222.12 363.29 222.12 363.29C222.12 363.29 217.01 363.93 213.18 364.57C207.513 365.791 201.737 366.434 195.94 366.49C187.64 366.49 185.08 367.12 171.04 365.21C157 363.3 156.35 364.57 156.35 364.57C155.904 363.975 155.326 363.491 154.662 363.158C153.997 362.825 153.264 362.651 152.52 362.65C149.96 362.65 148.05 364.57 145.52 363.29C142.99 362.01 145.52 363.29 143.61 361.38C141.7 359.47 138.5 365.21 135.31 363.93C132.12 362.65 139.14 354.35 138.5 352.44C137.86 350.53 133.39 353.08 130.84 356.27C128.29 359.46 127.64 356.27 124.45 352.44C121.26 348.61 120.62 358.18 120.62 358.18C120.62 358.18 118.7 351.8 114.23 351.18C109.76 350.56 114.23 356.93 112.32 363.95C110.41 370.97 104.65 360.12 96.99 360.12C89.33 360.12 103.99 369.06 103.99 369.06L65.67 370.98L79 372.18L60.48 377.29L109.01 381.76L87.3 373.46H130.73L114.73 376.01L150.49 376.65L133.25 381.76L187.53 375.38L161.99 374.1L236.13 369L197.82 375.39L343.41 371.55L303.82 374.11C303.82 374.11 314.77 374.35 330.05 374.62L295.52 377.3L356.82 380.49L347.24 376L401.63 375.42L409.82 377.28L389.39 383L436.64 381.08L421.31 377.25L439.83 372.82Z" fill="#5E4BCB"/>
<path d="M269.36 399.32C269.36 401.22 245.97 402.76 217.13 402.76C188.29 402.76 164.9 401.22 164.9 399.32C164.9 397.42 188.29 395.89 217.13 395.89C245.97 395.89 269.36 397.43 269.36 399.32Z" fill="#263238"/>
<path d="M269.39 355.1C269.996 358.737 270.331 362.414 270.39 366.1C270.23 369.91 268.75 376.52 270.12 377.77C271.49 379.02 272.3 377.15 274.82 373.92C277.34 370.69 281.27 362.75 282.82 359.92C284.37 357.09 286.63 354.6 285.28 352.87C283.93 351.14 280.38 350.28 278.48 350.19L272.05 349.91L269.39 355.1Z" fill="#263238"/>
<path d="M271 378.69C270.561 378.673 270.145 378.487 269.84 378.17C268.77 377.17 269.01 374.48 269.54 370.12C269.72 368.65 269.89 367.25 269.94 366.12C269.878 362.457 269.544 358.803 268.94 355.19V355.02L271.83 349.48L278.58 349.77C280.69 349.86 284.31 350.77 285.75 352.64C287.03 354.27 285.75 356.31 284.4 358.48C284.04 359.05 283.68 359.64 283.34 360.24C283 360.84 282.47 361.86 281.88 362.98C280.04 366.48 277.25 371.78 275.3 374.27C274.79 374.92 274.3 375.51 273.97 376.04C272.79 377.64 272.07 378.61 271.16 378.7L271 378.69ZM270 355.18C270.618 358.815 270.953 362.493 271 366.18C271 367.37 270.78 368.78 270.6 370.27C270.26 373.01 269.81 376.77 270.6 377.46C270.91 377.74 271.07 377.73 271.12 377.72C271.59 377.72 272.31 376.72 273.22 375.46C273.61 374.93 274.05 374.33 274.57 373.67C276.46 371.25 279.23 366 281.06 362.53C281.65 361.41 282.15 360.45 282.53 359.78C282.91 359.11 283.25 358.55 283.61 357.97C284.82 356.03 285.87 354.36 285.02 353.28C283.8 351.72 280.46 350.87 278.59 350.79L272.48 350.53L270 355.18Z" fill="#263238"/>
<path d="M280 360.1C277.138 366.111 273.734 371.848 269.83 377.24C269.898 377.448 270.01 377.639 270.16 377.8C271.54 379.05 272.34 377.18 274.86 373.95C277.38 370.72 281.31 362.78 282.86 359.95C284.41 357.12 286.67 354.63 285.32 352.9C284.797 352.31 284.157 351.836 283.44 351.51C282.72 353.53 281.65 356.33 280 360.1Z" fill="white"/>
<path d="M271 378.69C270.56 378.673 270.145 378.487 269.84 378.17C269.623 377.959 269.462 377.698 269.37 377.41L269.28 377.17L269.43 376.95C273.315 371.586 276.702 365.879 279.55 359.9V359.9C280.98 356.7 282.13 353.83 282.98 351.38L283.17 350.85L283.68 351.1C284.449 351.46 285.131 351.982 285.68 352.63C286.96 354.26 285.68 356.3 284.33 358.47C283.97 359.04 283.61 359.63 283.27 360.23C282.93 360.83 282.4 361.85 281.81 362.97C279.97 366.47 277.18 371.77 275.23 374.26C274.72 374.91 274.23 375.5 273.9 376.03C272.72 377.63 272 378.6 271.09 378.69H271ZM270.41 377.3C270.437 377.348 270.47 377.392 270.51 377.43C270.82 377.71 270.98 377.7 271.03 377.69C271.5 377.69 272.22 376.69 273.13 375.43C273.52 374.9 273.96 374.3 274.48 373.64C276.37 371.22 279.14 365.97 280.97 362.5C281.56 361.38 282.06 360.42 282.44 359.75C282.82 359.08 283.16 358.52 283.52 357.94C284.73 356 285.78 354.33 284.93 353.25C284.595 352.846 284.188 352.507 283.73 352.25C282.89 354.6 281.8 357.3 280.46 360.25C277.622 366.228 274.245 371.935 270.37 377.3H270.41Z" fill="#263238"/>
<path d="M174.32 376.25C174.32 376.25 176.93 383.93 177.1 386.35C177.27 388.77 177.44 391.2 174.66 390.98C171.88 390.76 168.23 389.98 167.31 390.28C164.838 390.743 162.297 390.685 159.85 390.11C156.973 389.506 154.163 388.622 151.46 387.47C150.29 386.8 149.89 384.47 151.73 383.93C153.57 383.39 160.58 382 162.59 381.2C164.6 380.4 168.1 377 168.1 377L174.32 376.25Z" fill="#263238"/>
<path d="M175 391.49H174.62C173.54 391.4 172.35 391.24 171.21 391.09C169.967 390.854 168.704 390.747 167.44 390.77C164.887 391.265 162.258 391.207 159.73 390.6C156.806 389.993 153.952 389.092 151.21 387.91C150.781 387.629 150.438 387.234 150.221 386.77C150.004 386.305 149.92 385.789 149.98 385.28C150.03 384.849 150.212 384.443 150.5 384.118C150.787 383.793 151.168 383.563 151.59 383.46C152.22 383.29 153.42 383.02 154.8 382.7C157.46 382.09 161.1 381.26 162.4 380.7C164.29 379.95 167.71 376.61 167.75 376.58L167.87 376.46L174.67 375.67L174.8 376.06C174.9 376.37 177.42 383.83 177.6 386.29C177.72 388.03 177.85 389.83 176.87 390.8C176.62 391.034 176.325 391.215 176.004 391.334C175.683 391.452 175.342 391.505 175 391.49V391.49ZM167.87 389.73C169.032 389.786 170.19 389.903 171.34 390.08C172.47 390.24 173.65 390.39 174.7 390.48C174.955 390.529 175.217 390.522 175.469 390.46C175.721 390.398 175.957 390.282 176.16 390.12C176.82 389.47 176.71 387.9 176.6 386.39C176.46 384.39 174.5 378.39 173.98 376.79L168.32 377.45C167.67 378.08 164.65 380.91 162.77 381.66C160.223 382.462 157.636 383.129 155.02 383.66C153.65 383.97 152.46 384.24 151.86 384.41C151.624 384.458 151.41 384.581 151.251 384.762C151.092 384.942 150.997 385.17 150.98 385.41C150.944 385.722 150.993 386.038 151.121 386.325C151.249 386.612 151.453 386.859 151.71 387.04C154.37 388.167 157.133 389.035 159.96 389.63C162.325 390.189 164.78 390.25 167.17 389.81C167.398 389.753 167.634 389.726 167.87 389.73Z" fill="#263238"/>
<path d="M177.15 387.09C175.22 387.32 171.76 387.73 167.95 388.09C162.18 388.68 156.08 387.15 154.03 385.98C152.82 385.29 151.8 384.65 151.03 384.27C150.826 384.496 150.673 384.763 150.584 385.054C150.494 385.345 150.47 385.651 150.512 385.953C150.554 386.254 150.661 386.543 150.827 386.798C150.992 387.053 151.212 387.269 151.47 387.43C154.173 388.582 156.984 389.466 159.86 390.07C162.307 390.645 164.848 390.703 167.32 390.24C168.24 389.99 171.89 390.71 174.67 390.94C177.16 391.18 177.27 389.24 177.15 387.09Z" fill="white"/>
<path d="M175 391.49H174.62C173.54 391.4 172.35 391.24 171.21 391.09C169.967 390.859 168.704 390.752 167.44 390.77C164.887 391.265 162.258 391.207 159.73 390.6C156.806 389.993 153.952 389.092 151.21 387.91C150.868 387.691 150.579 387.397 150.366 387.051C150.153 386.704 150.021 386.314 149.98 385.91C149.934 385.555 149.974 385.194 150.098 384.858C150.222 384.522 150.425 384.221 150.69 383.98L150.94 383.76L151.24 383.91C151.76 384.16 152.36 384.52 153.06 384.91L154.28 385.61C156.37 386.81 162.43 388.22 167.9 387.66C171.81 387.25 175.34 386.84 177.09 386.66L177.62 386.6V387.13C177.7 388.5 177.71 390.04 176.83 390.91C176.317 391.332 175.662 391.539 175 391.49V391.49ZM167.87 389.73C169.032 389.786 170.19 389.903 171.34 390.08C172.47 390.24 173.65 390.39 174.7 390.48C174.955 390.532 175.218 390.526 175.47 390.464C175.723 390.402 175.958 390.284 176.16 390.12C176.633 389.389 176.815 388.508 176.67 387.65C174.79 387.88 171.56 388.26 168 388.65C162.26 389.25 156.05 387.77 153.78 386.48L152.55 385.77C152.02 385.46 151.55 385.18 151.14 384.96C150.999 385.212 150.943 385.503 150.98 385.79C150.996 386.043 151.071 386.29 151.197 386.51C151.324 386.73 151.499 386.918 151.71 387.06C154.37 388.187 157.133 389.055 159.96 389.65C162.325 390.209 164.78 390.27 167.17 389.83C167.398 389.766 167.633 389.733 167.87 389.73Z" fill="#263238"/>
<path d="M202.67 288.55C198.821 292.339 194.765 295.911 190.52 299.25C182.99 305.25 168.77 313.05 168.77 313.05C168.77 313.05 178.07 325.6 178.37 333.17C178.67 340.74 173.03 372.51 174.05 376.4C174.05 376.4 170.92 379.4 168.9 377.4C166.88 375.4 161.83 331.4 158.6 325.1C155.37 318.8 153.1 309.35 154.39 306.42C156.86 300.83 172.86 284.26 180.31 279.54C184.518 276.908 188.562 274.023 192.42 270.9" fill="#263238"/>
<path d="M170.59 378.58C170.205 378.585 169.823 378.508 169.47 378.354C169.117 378.201 168.8 377.975 168.54 377.69C167.54 376.69 166.26 368.92 164.1 355.32C162.1 342.78 159.84 328.56 158.15 325.32C155.07 319.32 152.5 309.46 153.93 306.21C156.42 300.59 172.52 283.87 180.04 279.11C184.23 276.49 188.258 273.618 192.1 270.51L192.75 271.28C188.866 274.405 184.802 277.299 180.58 279.95C173.15 284.65 157.28 301.1 154.85 306.62C153.66 309.3 155.78 318.51 159.04 324.86C160.81 328.29 162.98 341.97 165.09 355.2C166.65 365.02 168.42 376.15 169.26 377.04C169.94 377.74 170.84 377.81 172.02 377.25C172.556 376.979 173.057 376.644 173.51 376.25C173.12 373.63 174.32 364.55 175.6 354.96C176.79 346.03 178.01 336.8 177.87 333.22C177.58 325.89 168.46 313.51 168.37 313.38L168.03 312.92L168.53 312.65C168.67 312.57 182.79 304.78 190.21 298.89C194.433 295.561 198.472 292.006 202.31 288.24L203.02 288.93C199.161 292.735 195.091 296.321 190.83 299.67C184.14 304.98 172.09 311.8 169.51 313.25C171.21 315.62 178.59 326.25 178.87 333.18C179.02 336.84 177.78 346.12 176.59 355.1C175.33 364.57 174.03 374.37 174.54 376.3L174.61 376.59L174.4 376.79C173.803 377.336 173.129 377.791 172.4 378.14C171.837 378.418 171.218 378.569 170.59 378.58V378.58Z" fill="#263238"/>
<path d="M185.71 216.78C185.71 216.78 191.08 211.38 197.01 210.78C202.94 210.18 212.95 212.25 215.86 212.35C218.77 212.45 225.12 213.18 225.45 214.15C227.544 220.598 228.935 227.253 229.6 234C230.6 244.45 229.81 263.66 229.81 263.66L225.29 263.02C224.741 256.079 223.077 249.271 220.36 242.86C217.756 237.047 215.72 230.995 214.28 224.79C214.28 224.79 200.82 226.44 194.46 225.7" fill="#5E4BCB"/>
<path d="M230.29 264.22L224.81 263.45V263.04C224.254 256.157 222.606 249.406 219.93 243.04C217.388 237.327 215.38 231.392 213.93 225.31C211.5 225.59 200.21 226.84 194.45 226.17L194.56 225.17C200.78 225.89 214.12 224.26 214.26 224.25L214.71 224.19L214.81 224.64C216.231 230.818 218.24 236.845 220.81 242.64C223.484 248.982 225.151 255.703 225.75 262.56L229.33 263.06C229.44 259.84 229.98 243.33 229.09 234.06C228.44 227.362 227.069 220.754 225 214.35C224.51 213.77 219.34 213 215.86 212.88C214.86 212.88 213.28 212.63 211.22 212.35C206.93 211.76 201.05 210.95 197.07 211.35C191.4 211.88 186.14 217.11 186.07 217.16L185.36 216.46C185.58 216.23 190.93 210.92 196.96 210.36C201.05 209.97 206.96 210.79 211.34 211.36C213.29 211.63 214.97 211.86 215.88 211.9C215.97 211.9 225.35 212.32 225.88 214.04C227.987 220.506 229.389 227.182 230.06 233.95C231.06 244.31 230.28 263.48 230.27 263.68L230.29 264.22Z" fill="#263238"/>
<path d="M229.81 263.65C229.81 263.65 230.6 244.44 229.6 233.99C228.932 227.26 227.54 220.622 225.45 214.19C225.13 213.25 219.12 212.53 216.11 212.4C216.114 216.605 215.463 220.785 214.18 224.79H214.28C215.72 230.995 217.756 237.047 220.36 242.86C223.074 249.265 224.739 256.065 225.29 263C225.29 263 221.29 266.5 220.29 267.28C219.29 268.06 222.29 271.8 222.29 271.8C222.29 271.8 223.29 276.19 225.67 276.7C226.372 276.831 227.096 276.781 227.774 276.553C228.451 276.326 229.059 275.929 229.54 275.4C230.416 274 231.067 272.472 231.47 270.87C232.41 267.51 229.81 263.65 229.81 263.65Z" fill="white"/>
<path d="M226.42 277.3C226.104 277.3 225.789 277.266 225.48 277.2C223.07 276.67 221.94 272.76 221.75 272.04C221.23 271.37 219.39 268.92 219.56 267.62C219.57 267.477 219.611 267.337 219.68 267.211C219.749 267.085 219.845 266.976 219.96 266.89C220.84 266.23 223.96 263.5 224.77 262.8C224.198 256.005 222.558 249.343 219.91 243.06C217.369 237.344 215.361 231.405 213.91 225.32L213.45 225.38L213.73 224.62C214.991 220.666 215.632 216.54 215.63 212.39V211.87H216.14C216.24 211.87 225.36 212.31 225.93 214C228.037 220.466 229.439 227.142 230.11 233.91C231.05 243.77 230.4 261.61 230.33 263.48C230.8 264.23 232.85 267.77 231.87 270.99C231.464 272.652 230.788 274.236 229.87 275.68C229.435 276.17 228.904 276.566 228.311 276.845C227.718 277.123 227.075 277.278 226.42 277.3V277.3ZM214.76 224.65C216.18 230.828 218.19 236.855 220.76 242.65C223.494 249.118 225.182 255.981 225.76 262.98V263.23L225.58 263.39C225.41 263.53 221.58 266.91 220.52 267.69C220.31 267.99 221.17 269.76 222.52 271.5L222.62 271.69C222.89 272.83 223.96 275.86 225.62 276.22C226.235 276.334 226.869 276.289 227.463 276.09C228.056 275.89 228.588 275.543 229.01 275.08V275.08C229.835 273.73 230.452 272.264 230.84 270.73C231.78 267.63 229.35 263.96 229.33 263.92L229.24 263.79V263.63C229.24 263.43 230.02 244.33 229.03 234.04C228.398 227.351 227.047 220.749 225 214.35C224.58 213.85 220.37 213.13 216.62 212.92C216.572 216.9 215.946 220.851 214.76 224.65V224.65Z" fill="#263238"/>
<path d="M187.65 193.1C187.65 193.1 186.81 198.17 187.65 201.27C188.49 204.37 193.01 209.73 192.44 212.27C191.87 214.81 183.99 219.32 181.73 218.19C179.47 217.06 178.91 203.54 178.91 203.54C178.91 203.54 184 194.51 187.65 193.1Z" fill="white"/>
<path d="M182.65 218.86C182.257 218.872 181.867 218.793 181.51 218.63C179.11 217.43 178.51 205.85 178.42 203.55V203.4L178.49 203.28C178.7 202.91 183.69 194.09 187.49 192.63L188.31 192.31L188.17 193.18C188.17 193.18 187.35 198.18 188.17 201.18C188.738 202.738 189.479 204.227 190.38 205.62C191.9 208.24 193.38 210.72 192.96 212.41C192.54 214.1 189.55 216.41 186.76 217.72C185.478 218.367 184.082 218.755 182.65 218.86V218.86ZM179.42 203.65C179.66 209.14 180.6 217.06 181.96 217.74C182.64 218.08 184.35 217.74 186.3 216.74C189.16 215.38 191.69 213.31 191.96 212.13C192.23 210.95 190.78 208.28 189.48 206.05C188.531 204.585 187.756 203.014 187.17 201.37C186.699 198.94 186.642 196.449 187 194C183.89 196 180 202.66 179.42 203.65V203.65Z" fill="#263238"/>
<path d="M190.44 206.17C190.44 206.17 182.16 210.78 177.36 215.29C172.56 219.8 172 233.9 173.7 241.23C175.4 248.56 179.45 258.05 181.59 262.65C185.21 270.41 182.31 279.65 185.59 287.41C191.71 301.86 211.97 293.96 214.11 280.94C215.34 273.42 209.7 266.83 208.92 259.55C208.07 251.66 206.64 224.01 203.82 216.39C201 208.77 195 206.35 190.44 206.17Z" fill="#263238"/>
<path d="M196.85 295.65C191.55 295.65 187.35 292.79 185.15 287.65C183.5 283.77 183.37 279.52 183.23 275.41C183.09 271.3 182.95 266.8 181.14 262.91C180.14 260.81 175.14 249.91 173.21 241.39C171.45 233.74 172.05 219.65 177.02 214.98C181.8 210.48 190.11 205.83 190.2 205.78L190.32 205.71H190.46C192.83 205.8 200.82 206.83 204.31 216.26C206.46 222.08 207.81 239.38 208.7 250.83C208.98 254.47 209.23 257.62 209.43 259.54C209.911 262.539 210.789 265.462 212.04 268.23C213.67 272.31 215.36 276.52 214.62 281.06C213.3 289.11 205.49 294.76 198.71 295.58C198.092 295.637 197.471 295.661 196.85 295.65ZM190.56 206.65C189.56 207.25 182.08 211.52 177.71 215.65C173.07 220.01 172.52 233.86 174.19 241.1C176.13 249.53 181.08 260.35 182.05 262.43C183.95 266.5 184.05 270.98 184.23 275.32C184.36 279.32 184.5 283.49 186.07 287.2C188.33 292.54 192.89 295.2 198.59 294.53C205.01 293.76 212.39 288.43 213.59 280.85C214.29 276.59 212.73 272.68 211.08 268.55C209.779 265.687 208.877 262.658 208.4 259.55C208.19 257.62 207.95 254.47 207.66 250.81C206.78 239.42 205.44 222.21 203.33 216.52C200.16 207.9 192.93 206.8 190.56 206.67V206.65Z" fill="#263238"/>
<path d="M177.36 215.29C182.16 210.78 190.44 206.17 190.44 206.17C194.99 206.35 201.02 208.78 203.84 216.39C206.66 224 208.09 251.66 208.94 259.55C209.395 262.535 210.26 265.442 211.51 268.19C205.95 269.98 194.51 273.09 183.62 272.5C183.6 269.118 182.921 265.772 181.62 262.65C179.48 258.05 175.42 248.55 173.73 241.23C172.04 233.91 172.57 219.8 177.36 215.29Z" fill="#5E4BCB"/>
<path d="M186.4 273.08C185.46 273.08 184.53 273.08 183.59 273H183.14V272.55C183.107 269.227 182.427 265.943 181.14 262.88C180.14 260.78 175.14 249.88 173.21 241.36C171.45 233.71 172.05 219.62 177.02 214.95C181.8 210.45 190.11 205.8 190.2 205.75L190.32 205.68H190.46C192.83 205.77 200.82 206.8 204.31 216.23C206.46 222.05 207.81 239.35 208.7 250.8C208.98 254.44 209.23 257.59 209.43 259.51C209.905 262.442 210.769 265.297 212 268L212.2 268.5L211.69 268.67C206.35 270.38 196.4 273.08 186.4 273.08ZM184.09 272C194.39 272.47 205.09 269.68 210.84 267.85C209.672 265.21 208.865 262.425 208.44 259.57C208.23 257.64 207.99 254.49 207.7 250.83C206.82 239.44 205.48 222.23 203.37 216.54C200.16 207.87 192.93 206.77 190.56 206.64C189.56 207.24 182.08 211.51 177.71 215.64C173.07 220 172.52 233.85 174.19 241.09C176.13 249.52 181.08 260.34 182.05 262.42C183.335 265.454 184.027 268.706 184.09 272V272Z" fill="#263238"/>
<path d="M200.73 266.74C191.35 266.74 181.8 259.26 181.4 258.94C181.297 258.857 181.231 258.738 181.216 258.606C181.201 258.475 181.238 258.344 181.32 258.24C181.36 258.188 181.41 258.144 181.467 258.112C181.524 258.08 181.588 258.059 181.653 258.052C181.718 258.044 181.784 258.05 181.847 258.068C181.91 258.087 181.969 258.118 182.02 258.16C182.12 258.23 191.71 265.74 200.73 265.74C200.862 265.74 200.99 265.793 201.083 265.886C201.177 265.98 201.23 266.107 201.23 266.24C201.227 266.372 201.174 266.498 201.081 266.591C200.987 266.684 200.862 266.737 200.73 266.74Z" fill="#263238"/>
<path d="M199.44 269.06C196.18 269.071 192.956 268.389 189.98 267.06C189.864 266.998 189.776 266.894 189.735 266.769C189.694 266.644 189.703 266.509 189.76 266.39C189.789 266.331 189.829 266.278 189.878 266.234C189.927 266.191 189.985 266.157 190.047 266.136C190.109 266.115 190.175 266.106 190.241 266.11C190.307 266.114 190.371 266.131 190.43 266.16C194.407 267.879 198.793 268.424 203.07 267.73C203.202 267.71 203.337 267.742 203.446 267.821C203.555 267.9 203.628 268.018 203.65 268.15C203.66 268.215 203.657 268.281 203.641 268.345C203.625 268.409 203.597 268.469 203.558 268.522C203.519 268.575 203.47 268.62 203.414 268.654C203.357 268.688 203.295 268.71 203.23 268.72C201.978 268.937 200.71 269.051 199.44 269.06V269.06Z" fill="#263238"/>
<path d="M196.08 214.28C196.08 214.28 199.61 221.33 198.2 227.33C196.79 233.33 191.5 242.49 190.44 245.33C189.38 248.17 186.56 254.14 185.5 254.14C178.498 254.071 171.524 253.246 164.7 251.68C154.12 249.21 134.7 241.1 134.7 241.1L136.46 237.57C136.46 237.57 148.1 240.74 159.03 239.69C165.594 239.05 172.205 239.05 178.77 239.69C178.77 239.69 181.59 225.93 184.41 219.94" fill="#5E4BCB"/>
<path d="M185.5 254.62C178.457 254.555 171.443 253.724 164.58 252.14C154.09 249.69 134.73 241.62 134.53 241.54L134.04 241.33L136.23 236.96L136.62 237.07C136.74 237.07 148.3 240.21 159.01 239.17C165.463 238.575 171.957 238.575 178.41 239.17C178.92 236.72 181.41 225.17 183.99 219.76L184.9 220.18C182.13 226.06 179.32 239.68 179.29 239.82L179.2 240.27L178.74 240.21C172.209 239.581 165.632 239.581 159.1 240.21C149.34 241.21 138.9 238.72 136.76 238.21L135.41 240.89C138.51 242.17 155.33 249.03 164.81 251.24C171.598 252.803 178.535 253.624 185.5 253.69C186.23 253.42 188.7 248.6 189.97 245.2C190.32 244.28 191.07 242.76 192.03 240.83C194.03 236.83 196.76 231.31 197.71 227.28C199.06 221.53 195.71 214.64 195.63 214.57L196.53 214.13C196.68 214.42 200.12 221.41 198.68 227.51C197.68 231.65 194.95 237.21 192.93 241.27C192.02 243.1 191.24 244.68 190.93 245.55C190.87 245.58 187.33 254.62 185.5 254.62Z" fill="#263238"/>
<path d="M222.21 271.81L228.29 272.48C228.29 272.48 229.92 271.66 225.02 268.39" fill="white"/>
<path d="M228.38 273L222.16 272.31L222.27 271.31L228.05 271.95C227.97 271.58 227.52 270.66 224.74 268.81L225.29 267.98C227.88 269.7 229.11 271.04 229.04 272.06C229.037 272.239 228.987 272.414 228.894 272.568C228.801 272.721 228.668 272.846 228.51 272.93L228.38 273Z" fill="#263238"/>
<path d="M212 281.63C213.352 286.857 214.41 292.155 215.17 297.5C216.58 307.02 216.23 323.24 216.23 323.24C216.23 323.24 231.74 321.47 238.44 325C245.14 328.53 269.83 349.33 273.71 350.39C273.71 350.39 274.71 354.62 271.94 355.32C269.17 356.02 228.57 338.4 221.52 338.05C214.47 337.7 204.63 334.83 202.52 330.64C201.06 327.8 193.35 305.25 193 296.44C192.833 291.479 192.362 286.533 191.59 281.63" fill="#263238"/>
<path d="M271.72 355.84C269.72 355.84 262.55 353.1 250.43 348.45C238.57 343.89 225.13 338.73 221.43 338.54C215.01 338.22 204.38 335.54 201.97 330.87C200.38 327.77 192.75 305.23 192.4 296.46C192.236 291.519 191.768 286.593 191 281.71L192 281.54C192.772 286.467 193.246 291.436 193.42 296.42C193.76 305.08 201.31 327.35 202.88 330.42C204.88 334.23 214.09 337.19 221.5 337.56C225.35 337.75 238.29 342.72 250.8 347.56C260.07 351.13 270.59 355.19 271.8 354.89C273.8 354.4 273.41 351.68 273.25 350.82C270.79 349.82 263.54 344.25 255.88 338.35C248.74 332.85 241.36 327.16 238.19 325.49C231.7 322.08 216.42 323.77 216.27 323.78L215.7 323.85V323.28C215.7 323.11 216.04 306.99 214.65 297.62C213.883 292.297 212.828 287.019 211.49 281.81L212.49 281.54C213.847 286.787 214.912 292.105 215.68 297.47C216.93 305.92 216.79 319.77 216.75 322.73C219.65 322.44 232.58 321.39 238.69 324.61C241.94 326.32 249.35 332.03 256.52 337.56C264.09 343.39 271.92 349.43 273.85 349.95L274.13 350.03L274.2 350.32C274.61 351.95 274.69 355.2 272.07 355.86C271.953 355.872 271.835 355.865 271.72 355.84Z" fill="#263238"/>
<path d="M206.79 313.66C206.674 313.66 206.563 313.62 206.473 313.547C206.384 313.474 206.323 313.373 206.3 313.26L200.3 283.72C200.287 283.656 200.286 283.589 200.299 283.525C200.311 283.46 200.336 283.399 200.372 283.344C200.409 283.289 200.455 283.242 200.51 283.206C200.564 283.169 200.625 283.143 200.69 283.13C200.819 283.106 200.953 283.133 201.063 283.206C201.173 283.279 201.251 283.391 201.28 283.52L207.28 313.06C207.294 313.124 207.296 313.191 207.284 313.256C207.272 313.321 207.247 313.383 207.21 313.438C207.174 313.493 207.127 313.54 207.072 313.577C207.017 313.613 206.955 313.638 206.89 313.65L206.79 313.66Z" fill="white"/>
<path d="M200.17 281.25C200.055 281.248 199.944 281.208 199.855 281.135C199.766 281.063 199.705 280.962 199.68 280.85L198.62 275.64C198.593 275.507 198.62 275.37 198.696 275.257C198.771 275.145 198.887 275.067 199.02 275.04C199.152 275.013 199.29 275.041 199.403 275.116C199.515 275.191 199.593 275.307 199.62 275.44L200.68 280.65C200.693 280.714 200.693 280.781 200.681 280.845C200.668 280.91 200.643 280.971 200.607 281.026C200.571 281.081 200.524 281.128 200.47 281.164C200.415 281.201 200.354 281.227 200.29 281.24L200.17 281.25Z" fill="white"/>
<path d="M209.22 312.86C209.105 312.858 208.994 312.818 208.905 312.745C208.816 312.673 208.754 312.572 208.73 312.46L201 274.83C200.976 274.7 201.003 274.566 201.076 274.456C201.148 274.346 201.261 274.269 201.39 274.24C201.454 274.227 201.52 274.227 201.585 274.239C201.649 274.252 201.711 274.277 201.765 274.313C201.82 274.349 201.867 274.396 201.904 274.45C201.941 274.505 201.967 274.566 201.98 274.63L209.67 312.26C209.683 312.324 209.683 312.391 209.671 312.455C209.658 312.52 209.633 312.581 209.597 312.636C209.561 312.691 209.514 312.738 209.46 312.774C209.405 312.811 209.344 312.837 209.28 312.85L209.22 312.86Z" fill="white"/>
<path d="M202.43 330.64C200.354 325.562 198.558 320.374 197.05 315.1C203.549 315.584 210.075 314.597 216.14 312.21C216.29 318.26 216.14 323.21 216.14 323.21C216.14 323.21 231.65 321.44 238.35 324.97C245.05 328.5 269.74 349.3 273.62 350.36C273.62 350.36 274.62 354.59 271.85 355.29C269.08 355.99 228.48 338.37 221.43 338.02C214.38 337.67 204.58 334.83 202.43 330.64Z" fill="white"/>
<path d="M271.72 355.84C269.72 355.84 262.55 353.1 250.43 348.45C238.57 343.89 225.13 338.73 221.43 338.54C215.01 338.22 204.38 335.54 201.97 330.87C199.891 325.763 198.085 320.549 196.56 315.25L196.35 314.54L197.09 314.61C203.529 315.089 209.993 314.108 216 311.74L216.66 311.49V312.2C216.77 317.02 216.72 321.2 216.66 322.68C219.56 322.39 232.49 321.34 238.6 324.56C241.85 326.27 249.26 331.98 256.43 337.51C264 343.34 271.83 349.38 273.76 349.9L274.04 349.98L274.11 350.27C274.52 351.9 274.6 355.15 271.98 355.81C271.894 355.83 271.807 355.84 271.72 355.84ZM197.72 315.66C199.169 320.663 200.881 325.587 202.85 330.41V330.41C204.85 334.22 214.06 337.18 221.47 337.55C225.32 337.74 238.26 342.71 250.77 347.55C260.04 351.12 270.56 355.18 271.77 354.88C273.77 354.39 273.38 351.67 273.22 350.81C270.76 349.81 263.51 344.24 255.85 338.34C248.71 332.84 241.33 327.15 238.16 325.48C231.67 322.07 216.39 323.76 216.24 323.77L215.67 323.84V323.27C215.67 323.22 215.77 318.62 215.67 312.97C209.944 315.102 203.838 316.018 197.74 315.66H197.72Z" fill="#263238"/>
<path d="M174.05 376.4C174.05 376.4 170.92 379.4 168.9 377.4C166.88 375.4 161.83 331.4 158.6 325.1C155.37 318.8 153.1 309.35 154.39 306.42C155.543 304.244 156.946 302.211 158.57 300.36C162.874 304.488 167.763 307.959 173.08 310.66C170.5 312.15 168.77 313.1 168.77 313.1C168.77 313.1 178.07 325.65 178.37 333.22C178.67 340.79 173 372.51 174.05 376.4Z" fill="white"/>
<path d="M170.59 378.58C170.205 378.585 169.823 378.508 169.47 378.354C169.117 378.201 168.8 377.975 168.54 377.69C167.54 376.69 166.26 368.92 164.1 355.32C162.1 342.78 159.84 328.56 158.15 325.32C155.07 319.32 152.5 309.46 153.93 306.21C155.103 303.99 156.533 301.916 158.19 300.03L158.54 299.6L158.93 300C163.198 304.086 168.043 307.523 173.31 310.2L174.11 310.62L173.33 311.08C171.57 312.08 170.2 312.87 169.51 313.26C171.21 315.63 178.59 326.26 178.87 333.19C179.02 336.85 177.78 346.13 176.59 355.11C175.33 364.58 174.03 374.38 174.54 376.31L174.61 376.6L174.4 376.8C173.803 377.346 173.129 377.801 172.4 378.15C171.836 378.425 171.218 378.572 170.59 378.58V378.58ZM158.59 301.05C157.126 302.741 155.864 304.597 154.83 306.58C153.64 309.26 155.76 318.47 159.02 324.82C160.79 328.25 162.96 341.93 165.07 355.16C166.63 364.98 168.4 376.11 169.24 377C170.63 378.44 172.82 376.78 173.49 376.22C173.1 373.6 174.3 364.52 175.58 354.93C176.77 346 177.99 336.77 177.85 333.19C177.56 325.86 168.44 313.48 168.35 313.35L168.01 312.89L168.51 312.62C168.51 312.62 169.9 311.85 172.03 310.62C167.147 308.048 162.633 304.829 158.61 301.05H158.59Z" fill="#263238"/>
<path d="M180.46 232.46C179.46 236.46 178.8 239.67 178.8 239.67C172.236 239.03 165.624 239.03 159.06 239.67C148.13 240.72 136.56 235.11 136.56 235.11L135.56 233.99C135.02 232.68 134.11 230.45 133.72 229.27C133.25 227.86 129.44 230.04 129.44 230.04C129.44 230.04 125.91 228.29 124.5 230.63C123.09 232.97 124.11 237.54 124.11 237.54C124.11 237.54 123.99 238.54 127.27 240.9C129.78 242.69 133.65 242.9 135.76 242.67C145.27 246.154 154.949 249.158 164.76 251.67C171.585 253.236 178.558 254.061 185.56 254.13C186.62 254.13 189.44 248.13 190.5 245.32C190.85 244.39 191.66 242.76 192.64 240.79C188.98 237.469 184.882 234.666 180.46 232.46V232.46Z" fill="white"/>
<path d="M185.5 254.62C178.457 254.555 171.442 253.724 164.58 252.14C155.1 249.93 138.84 244.48 135.65 243.19C133.75 243.39 129.65 243.25 126.94 241.3C123.94 239.2 123.59 238.03 123.57 237.6C123.55 237.17 122.57 232.75 124.03 230.37C125.26 228.37 127.94 228.85 129.38 229.48C130.19 229.04 132.38 227.97 133.47 228.4C133.63 228.459 133.774 228.553 133.892 228.676C134.01 228.799 134.098 228.948 134.15 229.11C134.5 230.11 135.3 232.11 135.95 233.71L136.86 234.71C137.92 235.21 148.86 240.17 159.01 239.18C165.463 238.585 171.957 238.585 178.41 239.18C178.62 238.18 179.2 235.5 179.98 232.39L180.13 231.79L180.69 232.07C185.125 234.305 189.238 237.127 192.92 240.46L193.2 240.72L192.95 241.21C192.03 243.06 191.24 244.66 190.95 245.54C190.87 245.58 187.33 254.62 185.5 254.62ZM135.79 242.16L135.91 242.21C145.386 245.693 155.031 248.697 164.81 251.21C171.598 252.773 178.535 253.594 185.5 253.66C186.23 253.39 188.7 248.57 189.97 245.17C190.31 244.27 191.04 242.8 191.97 240.93C188.581 237.909 184.829 235.323 180.8 233.23C179.9 236.88 179.3 239.78 179.29 239.81L179.2 240.26L178.74 240.2C172.208 239.571 165.631 239.571 159.1 240.2C148.15 241.26 136.45 235.66 136.34 235.6L136.19 235.49L135.06 234.22C134.4 232.64 133.57 230.56 133.21 229.47C133.202 229.447 133.189 229.426 133.171 229.408C133.154 229.391 133.133 229.378 133.11 229.37C132.51 229.14 130.69 229.92 129.65 230.51L129.42 230.65L129.18 230.53C129.18 230.53 126.04 229.01 124.89 230.93C123.61 233.07 124.55 237.43 124.56 237.47V237.64C124.56 237.64 124.77 238.57 127.56 240.53C130.09 242.34 133.99 242.43 135.7 242.22L135.79 242.16Z" fill="#263238"/>
<path d="M171.88 176.9C171.009 176.809 170.197 176.421 169.578 175.802C168.959 175.183 168.571 174.37 168.48 173.5C167.91 170.24 173.72 167.83 174.72 168.5C175.72 169.17 174.72 170.76 174.72 170.76C174.72 170.76 178.12 168.21 178.4 169.35C178.585 169.902 178.585 170.498 178.4 171.05C178.4 171.05 185.63 170.2 189.6 172.05C193.57 173.9 198.39 179.14 196.54 185.66C194.69 192.18 190.87 197.66 188.32 198.27C185.77 198.88 182.09 197.7 181.38 196.15C180.67 194.6 181.8 194.59 178.97 192.32C176.14 190.05 172.87 186.51 174.29 183.53C175.71 180.55 173.72 177.18 171.88 176.9Z" fill="#263238"/>
<path d="M186.83 199C184.31 199 181.59 197.9 180.92 196.42C180.738 196.025 180.623 195.603 180.58 195.17C180.51 194.62 180.46 194.22 178.65 192.78C176.14 190.78 172.18 186.88 173.84 183.39C174.146 182.715 174.292 181.978 174.266 181.237C174.24 180.497 174.043 179.772 173.69 179.12C173.518 178.721 173.262 178.365 172.939 178.075C172.617 177.785 172.235 177.568 171.82 177.44C170.846 177.324 169.939 176.885 169.245 176.192C168.55 175.499 168.108 174.594 167.99 173.62C167.71 172.05 168.69 170.44 170.65 169.2C172.17 168.25 174.21 167.6 175.01 168.2C175.234 168.358 175.413 168.573 175.527 168.822C175.641 169.072 175.687 169.347 175.66 169.62C176.59 169.04 177.71 168.5 178.34 168.73C178.477 168.775 178.599 168.855 178.696 168.962C178.792 169.069 178.859 169.199 178.89 169.34C178.993 169.748 179.037 170.169 179.02 170.59C180.94 170.43 186.44 170.13 189.81 171.7C193.65 173.48 199 178.91 197.02 185.89C195.19 192.4 191.33 198.22 188.43 198.89C187.902 198.983 187.366 199.02 186.83 199V199ZM174.19 168.95C172.959 169.095 171.79 169.565 170.8 170.31C170.01 170.87 168.72 172.03 168.97 173.45C169.041 174.212 169.372 174.926 169.907 175.472C170.443 176.018 171.15 176.364 171.91 176.45H172C172.573 176.595 173.106 176.868 173.558 177.249C174.011 177.63 174.37 178.109 174.61 178.65C175.038 179.439 175.276 180.318 175.306 181.215C175.335 182.112 175.155 183.004 174.78 183.82C173.36 186.82 177.48 190.53 179.32 192C181.32 193.61 181.5 194.21 181.61 195C181.637 195.346 181.725 195.685 181.87 196C182.44 197.24 185.76 198.4 188.25 197.84C190.47 197.35 194.25 192.2 196.1 185.58C197.91 179.19 192.97 174.21 189.43 172.58C185.63 170.82 178.57 171.63 178.5 171.63L177.58 171.74L177.99 170.91C178.112 170.495 178.112 170.055 177.99 169.64C176.904 169.967 175.889 170.496 175 171.2L172.83 172.83L174.27 170.54C174.27 170.54 174.99 169.36 174.4 168.94C174.332 168.918 174.261 168.907 174.19 168.91V168.95Z" fill="#263238"/>
<path d="M171 175.62C169.425 177.441 168.35 179.639 167.88 182C167.17 185.83 168.45 187.39 167.32 188.95C166.19 190.51 163.63 192.35 164.62 193.48C165.597 194.317 166.764 194.901 168.02 195.18C168.135 197.121 168.533 199.034 169.2 200.86C170.2 203.12 171 207.51 173.69 207.23C176.38 206.95 183.19 202.7 183.61 200.29C183.838 198.45 183.791 196.586 183.47 194.76C183.47 194.76 186.47 189.51 185.47 187.25C184.47 184.99 181.64 186.54 180.79 187.67C179.94 188.8 180.36 190.79 178.95 189.37C177.54 187.95 178.38 186.68 177.53 186.11C177.237 185.954 176.982 185.736 176.783 185.471C176.584 185.206 176.446 184.901 176.378 184.576C176.311 184.252 176.315 183.917 176.391 183.594C176.468 183.271 176.614 182.97 176.82 182.71C177.96 181.15 179.82 178.88 177.82 177.04C175.82 175.2 172.45 175.48 171 175.62Z" fill="white"/>
<path d="M173.46 207.75C171.17 207.75 170.18 204.94 169.38 202.66C169.17 202.08 168.98 201.52 168.78 201.06C168.113 199.299 167.708 197.449 167.58 195.57C166.349 195.272 165.213 194.666 164.28 193.81C163.28 192.66 164.6 191.24 165.78 189.99C166.193 189.567 166.58 189.12 166.94 188.65C167.366 187.908 167.488 187.03 167.28 186.2C167.115 184.771 167.162 183.325 167.42 181.91C167.897 179.451 169.019 177.163 170.67 175.28L170.79 175.15H170.98C172.21 175.02 175.98 174.65 178.17 176.69C180.36 178.73 178.53 181.27 177.42 182.78L177.25 183.02C177.095 183.208 176.98 183.426 176.911 183.659C176.842 183.893 176.821 184.138 176.85 184.38C177 184.938 177.357 185.418 177.85 185.72C178.072 185.893 178.251 186.117 178.371 186.372C178.491 186.628 178.549 186.908 178.54 187.19C178.556 187.606 178.665 188.013 178.859 188.381C179.053 188.75 179.326 189.071 179.66 189.32C179.66 189.2 179.75 189.02 179.79 188.88C179.912 188.349 180.129 187.844 180.43 187.39C180.872 186.836 181.433 186.389 182.072 186.082C182.711 185.776 183.411 185.618 184.12 185.62C184.531 185.669 184.922 185.83 185.248 186.086C185.574 186.341 185.824 186.682 185.97 187.07C186.97 189.34 184.61 193.85 184.05 194.87C184.356 196.695 184.393 198.554 184.16 200.39C183.69 203.07 176.62 207.45 173.8 207.75H173.46ZM171.27 176.1C169.835 177.834 168.85 179.895 168.4 182.1C168.168 183.421 168.124 184.767 168.27 186.1C168.516 187.168 168.329 188.29 167.75 189.22C167.365 189.721 166.951 190.199 166.51 190.65C165.62 191.65 164.62 192.65 165.03 193.13C165.935 193.894 167.013 194.426 168.17 194.68L168.53 194.76V195.14C168.645 197.018 169.028 198.871 169.67 200.64C169.88 201.12 170.09 201.7 170.3 202.31C171.06 204.46 171.93 206.89 173.65 206.71C176.28 206.44 182.77 202.22 183.13 200.18C183.349 198.4 183.302 196.596 182.99 194.83V194.65L183.08 194.49C183.87 193.09 185.77 189.1 185.08 187.43C185.007 187.21 184.876 187.014 184.699 186.865C184.523 186.715 184.308 186.616 184.08 186.58C183.544 186.591 183.018 186.72 182.538 186.956C182.057 187.193 181.635 187.532 181.3 187.95C181.073 188.306 180.911 188.698 180.82 189.11C180.67 189.66 180.52 190.19 180.01 190.32C179.5 190.45 179.08 190.08 178.7 189.71C178.045 189.062 177.659 188.19 177.62 187.27C177.56 186.79 177.53 186.62 177.36 186.51C176.649 186.052 176.147 185.334 175.96 184.51C175.9 184.136 175.919 183.754 176.018 183.389C176.116 183.024 176.29 182.683 176.53 182.39L176.71 182.14C178.09 180.26 179.03 178.72 177.58 177.38C175.72 175.76 172.56 176 171.27 176.1Z" fill="#263238"/>
<path d="M171.37 188.07C171.37 188.85 171.09 189.49 170.74 189.49C170.39 189.49 170.12 188.85 170.12 188.07C170.12 187.29 170.4 186.64 170.74 186.64C171.08 186.64 171.37 187.28 171.37 188.07Z" fill="#263238"/>
<path d="M173 185.72C172.907 185.721 172.816 185.696 172.736 185.649C172.657 185.601 172.592 185.532 172.55 185.45C172.14 184.64 171.67 184.17 171.15 184.06C170.938 184.025 170.72 184.034 170.512 184.088C170.304 184.141 170.109 184.237 169.94 184.37C169.889 184.412 169.83 184.444 169.766 184.463C169.703 184.482 169.636 184.489 169.57 184.482C169.504 184.476 169.44 184.456 169.382 184.425C169.323 184.394 169.272 184.351 169.23 184.3C169.188 184.249 169.156 184.19 169.137 184.126C169.118 184.063 169.111 183.996 169.118 183.931C169.124 183.865 169.144 183.801 169.175 183.742C169.206 183.684 169.249 183.632 169.3 183.59C169.589 183.368 169.922 183.208 170.276 183.12C170.631 183.032 171 183.018 171.36 183.08C171.83 183.22 172.262 183.466 172.623 183.798C172.983 184.131 173.263 184.542 173.44 185C173.47 185.058 173.489 185.122 173.495 185.188C173.5 185.253 173.493 185.319 173.472 185.382C173.451 185.444 173.419 185.502 173.375 185.552C173.332 185.601 173.279 185.641 173.22 185.67C173.152 185.706 173.076 185.723 173 185.72V185.72Z" fill="#263238"/>
<path d="M170.38 198.3H170.07C170.003 198.296 169.938 198.279 169.878 198.25C169.818 198.22 169.765 198.179 169.721 198.129C169.677 198.079 169.644 198.02 169.623 197.957C169.602 197.893 169.594 197.826 169.6 197.76C169.613 197.628 169.676 197.507 169.777 197.421C169.878 197.335 170.008 197.292 170.14 197.3C170.14 197.3 172.68 197.45 173.01 195.79C173.022 195.725 173.047 195.663 173.083 195.608C173.119 195.553 173.167 195.506 173.222 195.469C173.277 195.433 173.339 195.408 173.404 195.396C173.469 195.384 173.535 195.385 173.6 195.4C173.664 195.413 173.725 195.439 173.78 195.476C173.834 195.512 173.881 195.559 173.917 195.614C173.953 195.669 173.978 195.73 173.991 195.795C174.003 195.859 174.003 195.926 173.99 195.99C173.62 197.83 171.62 198.3 170.38 198.3Z" fill="#263238"/>
<path d="M372.44 409.29C372.44 411.76 342.9 413.76 306.44 413.76C269.98 413.76 240.44 411.76 240.44 409.29C240.44 406.82 269.98 404.82 306.44 404.82C342.9 404.82 372.44 406.82 372.44 409.29Z" fill="#263238"/>
<path d="M280.39 287.11C280.39 287.11 267.01 309.31 264.17 317.28C261.1 325.86 255.35 329.13 255.06 338.06C254.2 364.24 239.5 388.61 237.98 391.57C236.46 394.53 232.57 394.42 227.98 392.71C223.39 391 215.49 389 215.21 391C214.93 393 220.33 398.4 223.46 400.11C226.59 401.82 230.86 402.11 232.57 403.81C234.28 405.51 236.84 407.81 239.97 406.94C243.1 406.07 244.81 395.27 247.66 391C250.51 386.73 258.76 373.64 265.02 365.1C271.28 356.56 271.02 338.91 271.85 337.49C272.68 336.07 285.51 323.54 289.78 317.56C294.05 311.58 296.61 302.76 296.61 302.76C297.3 299.574 297.3 296.276 296.61 293.09C295.48 287.68 290.92 281.7 280.39 287.11Z" fill="#263238"/>
<path d="M238.58 407.63C236.07 407.63 233.98 405.92 232.22 404.16C231.36 403.31 229.67 402.81 227.87 402.28C226.266 401.861 224.708 401.281 223.22 400.55C220.28 398.94 214.37 393.36 214.71 390.93C214.739 390.742 214.811 390.563 214.921 390.407C215.03 390.251 215.173 390.122 215.34 390.03C217.55 388.73 225.56 391.25 228.19 392.24C231.59 393.51 235.97 394.39 237.53 391.34L238.2 390.11C248.54 371.37 254 353.85 254.56 338C254.74 332.52 256.95 329.08 259.28 325.44C261.084 322.837 262.568 320.027 263.7 317.07C266.53 309.15 279.41 287.72 279.96 286.81C280.008 286.733 280.078 286.67 280.16 286.63C284.76 284.27 288.64 283.81 291.71 285.27C294.38 286.54 296.34 289.34 297.1 292.94C297.813 296.205 297.813 299.585 297.1 302.85C297.1 302.95 294.46 311.85 290.19 317.85C287.49 321.63 281.47 327.93 277.07 332.54C274.66 335.07 272.57 337.25 272.28 337.74C272.002 339.024 271.829 340.328 271.76 341.64C271.18 347.71 270.1 359.01 265.42 365.38C260.74 371.75 254.91 380.76 251.06 386.68C249.81 388.62 248.78 390.21 248.06 391.27C246.791 393.594 245.785 396.053 245.06 398.6C243.61 402.84 242.24 406.84 240.14 407.41C239.632 407.553 239.107 407.627 238.58 407.63V407.63ZM217.19 390.63C216.731 390.597 216.271 390.676 215.85 390.86C215.813 390.877 215.781 390.903 215.755 390.934C215.729 390.965 215.71 391.001 215.7 391.04C215.48 392.58 220.34 397.81 223.7 399.64C225.122 400.342 226.614 400.895 228.15 401.29C230.08 401.85 231.89 402.39 232.93 403.42C234.82 405.32 237.13 407.16 239.84 406.42C241.43 405.98 242.84 401.87 244.07 398.24C244.839 395.609 245.903 393.073 247.24 390.68C247.94 389.63 248.98 388.04 250.24 386.11C254.09 380.17 259.9 371.2 264.63 364.76C269.14 358.61 270.21 347.49 270.78 341.51C271.03 338.85 271.16 337.65 271.43 337.19C272.979 335.316 274.624 333.523 276.36 331.82C280.73 327.24 286.72 320.96 289.36 317.23C293.53 311.39 296.09 302.67 296.11 302.58C296.771 299.471 296.771 296.259 296.11 293.15C295.41 289.85 293.65 287.31 291.26 286.15C288.52 284.84 284.97 285.27 280.72 287.42C279.65 289.21 267.31 309.85 264.62 317.42C263.469 320.451 261.951 323.329 260.1 325.99C257.74 329.66 255.71 332.83 255.54 338.04C255.02 354.04 249.47 371.68 239.06 390.56C238.76 391.11 238.53 391.56 238.41 391.77C237.36 393.77 234.67 395.72 227.82 393.14C224.18 391.8 219.59 390.66 217.19 390.66V390.63Z" fill="#263238"/>
<path d="M298.6 218C302.193 219.976 305.296 222.734 307.68 226.07C310.96 231.07 318.24 245.6 319.28 247.5C320.8 250.28 319.53 251.79 316.51 253.56C315.11 254.37 301.63 260.11 298.86 261.37C297.013 262.163 295.058 262.676 293.06 262.89L292.06 258.35L305.67 247C305.67 247 303.4 244.23 301.38 237.67C299.36 231.11 292.05 222 298.6 218Z" fill="white"/>
<path d="M293.06 263.34C292.945 263.342 292.834 263.305 292.744 263.233C292.655 263.162 292.593 263.062 292.57 262.95L291.57 258.41C291.549 258.319 291.553 258.224 291.583 258.136C291.613 258.047 291.667 257.969 291.74 257.91L304.99 246.91C303.18 244.099 301.805 241.031 300.91 237.81C300.265 235.925 299.49 234.087 298.59 232.31C296.04 226.9 293.14 220.77 298.35 217.56C298.426 217.516 298.512 217.493 298.6 217.493C298.687 217.493 298.774 217.516 298.85 217.56C302.526 219.563 305.693 222.382 308.11 225.8C310.67 229.74 315.59 239.26 318.23 244.38C318.96 245.8 319.5 246.84 319.73 247.26C321.45 250.42 319.88 252.18 316.73 253.99C315.79 254.54 309.67 257.19 304.73 259.33C302.18 260.44 299.96 261.4 299.01 261.83C297.102 262.653 295.078 263.176 293.01 263.38L293.06 263.34ZM292.6 258.49L293.45 262.29C295.24 262.059 296.99 261.581 298.65 260.87C299.65 260.44 301.82 259.47 304.39 258.36C309.02 256.36 315.39 253.59 316.26 253.08C319.47 251.2 320.07 249.94 318.84 247.69C318.61 247.27 318.07 246.22 317.33 244.79C314.7 239.69 309.8 230.19 307.26 226.29C304.985 223.103 302.039 220.454 298.63 218.53C294.51 221.32 297.04 226.67 299.49 231.84C300.404 233.662 301.195 235.543 301.86 237.47C303.81 243.83 306.03 246.61 306.05 246.63C306.093 246.68 306.125 246.737 306.145 246.799C306.166 246.862 306.173 246.927 306.167 246.993C306.162 247.058 306.143 247.121 306.113 247.179C306.082 247.237 306.04 247.289 305.99 247.33L292.6 258.49Z" fill="#263238"/>
<path d="M302.39 188.19C302.39 188.19 307.68 187.69 309.45 191.98C311.22 196.27 310.96 202.31 309.2 209.88C307.44 217.45 310.71 224 313.2 225.01C314.638 225.617 316.243 225.706 317.74 225.26L316.48 219.71C319.331 223.574 323.428 226.336 328.08 227.53C335.9 229.53 349.01 224.53 353.3 218.71C357.59 212.89 356.83 206.1 355.3 207.61C353.77 209.12 347.23 210.89 342.19 204.84C337.15 198.79 335.13 188.95 330.34 185.17C325.55 181.39 313.69 183.91 313.69 183.91C313.69 183.91 320.76 181.13 316.69 181.13C313.917 181.087 311.174 181.705 308.687 182.933C306.2 184.161 304.042 185.963 302.39 188.19V188.19Z" fill="#263238"/>
<path d="M332.06 228.49C330.691 228.494 329.328 228.329 328 228C323.966 226.951 320.32 224.76 317.5 221.69L318.28 225.13C318.305 225.248 318.288 225.37 318.231 225.477C318.174 225.583 318.082 225.665 317.97 225.71C316.353 226.196 314.617 226.104 313.06 225.45C310.15 224.29 306.94 217.45 308.73 209.75C310.56 201.9 310.65 196.14 309.01 192.15C307.37 188.16 302.51 188.67 302.45 188.67C302.354 188.68 302.258 188.662 302.172 188.617C302.087 188.573 302.016 188.504 301.97 188.42C301.918 188.339 301.891 188.246 301.891 188.15C301.891 188.054 301.918 187.961 301.97 187.88C303.677 185.579 305.909 183.72 308.479 182.455C311.05 181.191 313.885 180.558 316.75 180.61C317.27 180.61 318.35 180.61 318.48 181.33C318.53 181.56 318.61 182 317.19 182.84C321.19 182.38 327.4 182.17 330.68 184.75C333.35 186.87 335.15 190.75 337.06 194.75C338.66 198.17 340.32 201.75 342.6 204.46C343.504 205.629 344.649 206.591 345.956 207.281C347.264 207.971 348.704 208.373 350.18 208.46C351.885 208.629 353.593 208.166 354.98 207.16C355.057 207.059 355.154 206.974 355.265 206.912C355.375 206.85 355.498 206.811 355.624 206.797C355.751 206.784 355.879 206.797 356 206.836C356.122 206.874 356.234 206.937 356.33 207.02C357.59 208.11 357.33 214.02 353.72 218.9C350.11 223.78 340.07 228.49 332.06 228.49ZM316.51 219.21C316.593 219.213 316.674 219.235 316.747 219.275C316.82 219.315 316.883 219.371 316.93 219.44C319.718 223.192 323.705 225.877 328.23 227.05C336 229.05 348.94 223.8 352.92 218.41C356.43 213.66 356.32 208.63 355.74 207.93C354.161 209.15 352.176 209.722 350.19 209.53C348.572 209.435 346.993 208.994 345.56 208.234C344.128 207.475 342.876 206.416 341.89 205.13C339.52 202.29 337.83 198.68 336.2 195.2C334.35 191.2 332.6 187.49 330.11 185.53C325.55 181.93 313.99 184.34 313.88 184.37C313.747 184.408 313.605 184.393 313.484 184.326C313.363 184.26 313.273 184.148 313.235 184.015C313.196 183.882 313.212 183.74 313.279 183.619C313.345 183.498 313.457 183.408 313.59 183.37C314.87 182.89 316.102 182.29 317.27 181.58H316.8C314.264 181.536 311.751 182.058 309.442 183.106C307.133 184.154 305.086 185.703 303.45 187.64C305.19 187.75 308.57 188.39 309.95 191.73C311.68 195.93 311.6 201.89 309.72 209.94C308.02 217.24 311.22 223.6 313.46 224.5C314.651 224.983 315.958 225.108 317.22 224.86L316 219.83C315.975 219.715 315.991 219.595 316.043 219.489C316.096 219.384 316.183 219.3 316.29 219.25C316.361 219.225 316.435 219.212 316.51 219.21V219.21Z" fill="#263238"/>
<path d="M341.5 224.8C341.404 224.813 341.307 224.789 341.229 224.732C341.152 224.674 341.099 224.589 341.084 224.494C341.068 224.398 341.09 224.301 341.146 224.221C341.201 224.142 341.285 224.088 341.38 224.07C342.923 223.557 344.371 222.797 345.67 221.82C345.75 221.76 345.85 221.733 345.949 221.746C346.049 221.759 346.139 221.811 346.2 221.89C346.258 221.971 346.283 222.07 346.27 222.169C346.257 222.267 346.207 222.357 346.13 222.42C344.762 223.442 343.24 224.239 341.62 224.78L341.5 224.8Z" fill="white"/>
<path d="M335.34 225.78C328.96 225.78 323.04 222.86 320.67 218.32C318.67 214.46 318.28 209.75 317.92 205.19C317.56 200.63 317.2 196.06 315.25 192.34C313.3 188.62 311.77 187.82 310.78 187.72C310.452 187.697 310.123 187.748 309.818 187.871C309.513 187.994 309.24 188.185 309.02 188.43C308.989 188.468 308.951 188.5 308.908 188.523C308.865 188.546 308.817 188.561 308.769 188.566C308.72 188.571 308.671 188.567 308.624 188.553C308.577 188.539 308.533 188.516 308.495 188.485C308.457 188.454 308.425 188.416 308.402 188.373C308.378 188.33 308.364 188.283 308.358 188.234C308.353 188.185 308.358 188.136 308.372 188.089C308.386 188.042 308.409 187.998 308.44 187.96C308.735 187.616 309.107 187.346 309.525 187.173C309.944 186.999 310.398 186.926 310.85 186.96C312.55 187.13 314.26 188.82 315.92 191.96C317.92 195.82 318.31 200.54 318.67 205.1C319.03 209.66 319.38 214.22 321.33 217.94C323.89 222.83 330.83 225.73 337.85 224.84C337.899 224.833 337.949 224.836 337.998 224.849C338.046 224.862 338.091 224.885 338.13 224.915C338.169 224.946 338.202 224.985 338.226 225.028C338.25 225.072 338.265 225.12 338.27 225.17C338.281 225.268 338.254 225.366 338.195 225.445C338.135 225.523 338.047 225.575 337.95 225.59C337.085 225.708 336.213 225.771 335.34 225.78V225.78Z" fill="white"/>
<path d="M341.93 219.54C341.486 219.542 341.042 219.519 340.6 219.47C338.602 219.258 336.68 218.591 334.98 217.522C333.279 216.453 331.846 215.008 330.79 213.3C328.61 209.84 327.79 205.18 327.02 200.67C326.35 196.83 325.72 193.19 324.27 191.06C324.216 190.977 324.196 190.877 324.214 190.78C324.233 190.683 324.289 190.597 324.37 190.54C324.454 190.485 324.556 190.465 324.655 190.484C324.754 190.502 324.841 190.558 324.9 190.64C326.43 192.91 327.07 196.64 327.75 200.55C328.52 204.98 329.32 209.55 331.42 212.9C332.416 214.512 333.767 215.875 335.37 216.886C336.973 217.896 338.786 218.527 340.67 218.73C345.35 219.2 350.31 216.98 354.67 212.47C354.742 212.403 354.837 212.366 354.935 212.366C355.033 212.366 355.128 212.403 355.2 212.47C355.236 212.505 355.264 212.547 355.283 212.594C355.303 212.64 355.312 212.69 355.312 212.74C355.312 212.79 355.303 212.84 355.283 212.886C355.264 212.933 355.236 212.975 355.2 213.01C351.09 217.25 346.43 219.54 341.93 219.54Z" fill="white"/>
<path d="M321.31 188.56C321.254 188.57 321.196 188.57 321.14 188.56C320.257 188.124 319.328 187.788 318.37 187.56C318.274 187.536 318.191 187.476 318.138 187.392C318.086 187.308 318.069 187.207 318.09 187.11C318.099 187.061 318.118 187.015 318.147 186.973C318.175 186.932 318.211 186.898 318.253 186.871C318.296 186.845 318.343 186.828 318.392 186.821C318.442 186.813 318.492 186.817 318.54 186.83C319.551 187.053 320.534 187.388 321.47 187.83C321.515 187.85 321.556 187.88 321.589 187.916C321.623 187.953 321.648 187.996 321.664 188.043C321.68 188.09 321.686 188.14 321.682 188.189C321.678 188.238 321.663 188.286 321.64 188.33C321.615 188.398 321.57 188.456 321.511 188.497C321.452 188.538 321.382 188.56 321.31 188.56V188.56Z" fill="white"/>
<path d="M284.09 205.7C284.09 205.7 286.94 210.83 287.51 213.39C288.08 215.95 288.36 219.39 282.95 224.21C277.54 229.03 272.95 236.16 274.41 240.71C275.87 245.26 279.25 255.23 280.41 263.48C281.57 271.73 278.99 284.26 279.56 289.1C280.13 293.94 286.67 302.19 295.5 306.46C304.33 310.73 312.86 299.63 313.71 291.66C314.56 283.69 308.3 274.3 304.89 270.03C301.48 265.76 300.62 266.33 300.62 263.77C300.62 261.21 305.46 233.6 303.75 223.64C302.04 213.68 297.49 211.64 296.63 208.84C295.77 206.04 293.22 193.75 293.22 193.75L284.09 205.7Z" fill="#263238"/>
<path d="M299.48 307.91C298.015 307.905 296.571 307.563 295.26 306.91C286.26 302.58 279.64 294.23 279.04 289.16C278.914 286.003 279.061 282.841 279.48 279.71C279.98 274.35 280.54 268.26 279.89 263.55C278.89 256.43 276.21 247.98 274.59 242.93C274.34 242.16 274.12 241.46 273.94 240.86C272.38 235.86 277.35 228.55 282.62 223.86C287.89 219.17 287.62 216.11 287.02 213.53C286.42 210.95 283.68 206.03 283.65 205.98C283.599 205.897 283.571 205.802 283.571 205.705C283.571 205.608 283.599 205.512 283.65 205.43L292.76 193.43C292.818 193.352 292.896 193.293 292.987 193.26C293.077 193.226 293.176 193.219 293.27 193.24C293.363 193.264 293.448 193.312 293.515 193.381C293.582 193.45 293.629 193.536 293.65 193.63C293.65 193.75 296.21 205.88 297.05 208.63C297.447 209.598 298.017 210.485 298.73 211.25C301.666 214.733 303.556 218.977 304.18 223.49C305.47 231.01 303.08 248.39 301.8 257.72C301.38 260.72 301.06 263.1 301.06 263.72C301.06 265.16 301.29 265.39 302.42 266.53C303.409 267.526 304.344 268.574 305.22 269.67C307.55 272.59 315.1 282.8 314.15 291.67C313.53 297.41 309.42 303.76 304.59 306.44C303.041 307.359 301.281 307.866 299.48 307.91V307.91ZM284.68 205.75C285.3 206.88 287.49 211 287.99 213.28C288.68 216.35 288.58 219.84 283.28 224.58C277.98 229.32 273.53 236.22 274.89 240.58L275.54 242.64C277.17 247.72 279.89 256.22 280.88 263.44C281.55 268.26 280.98 274.44 280.47 279.82C280.062 282.862 279.904 285.932 280 289C280.56 293.71 287.13 301.84 295.66 306C296.99 306.644 298.459 306.945 299.935 306.877C301.41 306.809 302.845 306.373 304.11 305.61C309.11 302.82 312.66 296.29 313.16 291.61C314.07 283.12 306.72 273.19 304.45 270.34C303.597 269.287 302.682 268.285 301.71 267.34C300.55 266.15 300.07 265.67 300.07 263.82C300.07 263.14 300.37 260.97 300.82 257.69C302.09 248.41 304.47 231.14 303.21 223.77C302.642 219.406 300.834 215.297 298 211.93C297.194 211.06 296.565 210.041 296.15 208.93C295.43 206.56 293.59 197.93 292.94 194.87L284.68 205.75Z" fill="#263238"/>
<path d="M300.46 214.49C298.78 211.8 297.1 210.49 296.61 208.84C295.76 205.99 293.2 193.75 293.2 193.75L284.09 205.7C284.09 205.7 286.94 210.83 287.51 213.39C287.97 215.48 288.24 218.13 285.4 221.66L300.46 214.49Z" fill="white"/>
<path d="M285.4 222.16C285.306 222.16 285.214 222.133 285.135 222.083C285.056 222.033 284.992 221.961 284.951 221.877C284.911 221.792 284.895 221.698 284.905 221.605C284.915 221.512 284.952 221.424 285.01 221.35C287.72 217.98 287.47 215.53 287.01 213.5C286.46 211.04 283.67 206 283.64 205.95C283.588 205.867 283.561 205.772 283.561 205.675C283.561 205.578 283.588 205.483 283.64 205.4L292.75 193.4C292.808 193.323 292.887 193.265 292.977 193.231C293.067 193.198 293.165 193.19 293.26 193.21C293.353 193.234 293.438 193.282 293.505 193.351C293.572 193.42 293.619 193.506 293.64 193.6C293.64 193.72 296.2 205.85 297.04 208.6C297.437 209.568 298.006 210.455 298.72 211.22C299.48 212.151 300.185 213.126 300.83 214.14C300.868 214.198 300.894 214.264 300.904 214.333C300.914 214.402 300.909 214.473 300.89 214.54C300.87 214.608 300.835 214.671 300.789 214.725C300.742 214.778 300.684 214.821 300.62 214.85L285.57 222.02C285.526 222.08 285.467 222.129 285.4 222.16ZM284.68 205.75C285.3 206.88 287.49 211 287.99 213.28C288.318 214.475 288.391 215.725 288.205 216.95C288.019 218.175 287.578 219.347 286.91 220.39L299.73 214.28C299.12 213.37 298.52 212.61 297.99 211.94C297.186 211.068 296.558 210.049 296.14 208.94C295.42 206.57 293.58 197.94 292.93 194.88L284.68 205.75Z" fill="#263238"/>
<path d="M273.84 185.21C273.5 186.316 273.405 187.483 273.56 188.63C273.84 190.33 274.98 190.9 273.56 192.33C272.14 193.76 269.86 194.89 271 195.74C272.089 196.484 273.228 197.153 274.41 197.74C274.41 197.74 275.27 204.86 276.41 206.85C277.55 208.84 281.53 208.28 284.09 207.14C286.65 206 292.63 202.87 294.09 200.02C295.55 197.17 297.51 189.78 296.94 186.07C296.37 182.36 287.26 178.39 282.14 178.39C277.02 178.39 273.27 181.23 273.84 185.21Z" fill="white"/>
<path d="M279.5 208.67C278.824 208.747 278.14 208.641 277.519 208.363C276.898 208.085 276.363 207.645 275.97 207.09C274.91 205.24 274.12 199.4 273.97 198.09C272.843 197.527 271.757 196.886 270.72 196.17C270.569 196.074 270.444 195.943 270.355 195.788C270.266 195.633 270.216 195.459 270.21 195.28C270.21 194.52 270.97 193.9 271.95 193.11C272.39 192.75 272.84 192.39 273.23 192C273.97 191.26 273.85 191 273.53 190.17C273.322 189.714 273.174 189.234 273.09 188.74C272.927 187.555 273.015 186.349 273.35 185.2C273.242 184.405 273.307 183.596 273.54 182.828C273.773 182.06 274.169 181.351 274.7 180.75C275.668 179.782 276.829 179.028 278.107 178.539C279.386 178.05 280.753 177.835 282.12 177.91C287.28 177.91 296.78 181.91 297.41 186.02C297.98 189.71 296.05 197.21 294.52 200.27C292.73 203.84 284.66 207.46 284.31 207.61C282.792 208.276 281.157 208.636 279.5 208.67V208.67ZM282.1 178.88C279.24 178.88 276.81 179.79 275.43 181.38C274.984 181.889 274.655 182.489 274.467 183.139C274.279 183.789 274.235 184.472 274.34 185.14C274.355 185.216 274.355 185.294 274.34 185.37C274.023 186.395 273.931 187.476 274.07 188.54C274.152 188.959 274.279 189.368 274.45 189.76C274.736 190.226 274.842 190.781 274.746 191.319C274.65 191.857 274.36 192.342 273.93 192.68C273.501 193.094 273.051 193.484 272.58 193.85C272.03 194.3 271.2 194.96 271.21 195.23C271.236 195.276 271.274 195.314 271.32 195.34C272.387 196.066 273.503 196.717 274.66 197.29C274.734 197.327 274.798 197.382 274.845 197.45C274.893 197.518 274.922 197.597 274.93 197.68C274.93 197.75 275.78 204.68 276.86 206.59C277.86 208.27 281.56 207.71 283.91 206.67C286.7 205.43 292.32 202.39 293.62 199.79C294.92 197.19 296.98 189.79 296.42 186.14C295.9 182.84 287.19 178.88 282.1 178.88Z" fill="#263238"/>
<path d="M277.67 192.57C278.084 192.57 278.42 191.804 278.42 190.86C278.42 189.916 278.084 189.15 277.67 189.15C277.256 189.15 276.92 189.916 276.92 190.86C276.92 191.804 277.256 192.57 277.67 192.57Z" fill="#263238"/>
<path d="M279.58 188.94C279.486 188.941 279.394 188.916 279.314 188.866C279.234 188.816 279.17 188.745 279.13 188.66C278.985 188.261 278.752 187.9 278.45 187.602C278.147 187.304 277.781 187.078 277.38 186.94C276.835 186.864 276.283 187.004 275.84 187.33C275.79 187.372 275.732 187.404 275.669 187.424C275.606 187.443 275.54 187.45 275.475 187.443C275.41 187.437 275.347 187.417 275.289 187.386C275.231 187.354 275.181 187.311 275.14 187.26C275.098 187.21 275.066 187.152 275.046 187.089C275.027 187.026 275.02 186.96 275.027 186.895C275.033 186.83 275.053 186.767 275.084 186.709C275.116 186.651 275.159 186.601 275.21 186.56C275.542 186.298 275.926 186.109 276.336 186.005C276.746 185.902 277.173 185.887 277.59 185.96C278.14 186.125 278.644 186.414 279.065 186.804C279.486 187.194 279.813 187.675 280.02 188.21C280.051 188.269 280.07 188.333 280.075 188.4C280.081 188.466 280.073 188.533 280.053 188.596C280.032 188.66 280 188.718 279.956 188.769C279.913 188.819 279.86 188.86 279.8 188.89C279.731 188.921 279.656 188.938 279.58 188.94V188.94Z" fill="#263238"/>
<path d="M277.5 200.21H277.12C276.989 200.2 276.867 200.138 276.781 200.039C276.695 199.94 276.651 199.811 276.66 199.68C276.672 199.549 276.734 199.428 276.832 199.341C276.931 199.254 277.058 199.207 277.19 199.21C277.19 199.21 280.33 199.4 280.75 197.32C280.762 197.256 280.786 197.195 280.822 197.141C280.858 197.086 280.904 197.04 280.958 197.003C281.012 196.967 281.073 196.942 281.136 196.929C281.2 196.917 281.266 196.917 281.33 196.93C281.395 196.942 281.457 196.967 281.513 197.003C281.568 197.039 281.616 197.086 281.653 197.141C281.691 197.196 281.716 197.258 281.73 197.323C281.743 197.388 281.743 197.455 281.73 197.52C281.29 199.67 279 200.21 277.5 200.21Z" fill="#263238"/>
<path d="M282.59 180.36C282.59 180.36 280.86 185.1 285.18 190.28C289.5 195.46 295.53 192 295.53 192C295.53 192 290.41 199.81 294.05 200C297.69 200.19 302.34 196.88 302.39 188.18C302.44 179.48 293.38 173 282.59 180.36Z" fill="#263238"/>
<path d="M294.35 200.52H294C293.679 200.53 293.362 200.45 293.085 200.289C292.807 200.128 292.58 199.893 292.43 199.61C291.66 198.08 293.22 194.91 294.27 193.07C292.628 193.719 290.823 193.831 289.114 193.389C287.405 192.947 285.88 191.974 284.76 190.61C280.32 185.27 282.02 180.4 282.09 180.2C282.126 180.099 282.192 180.012 282.28 179.95C287.44 176.45 292.81 175.72 297.02 177.95C298.836 178.96 300.341 180.449 301.37 182.254C302.4 184.059 302.915 186.112 302.86 188.19C302.86 193.88 300.86 196.9 299.27 198.43C297.951 199.721 296.194 200.467 294.35 200.52ZM295.53 191.52C295.621 191.517 295.711 191.539 295.79 191.584C295.869 191.629 295.934 191.695 295.978 191.775C296.022 191.855 296.042 191.946 296.037 192.037C296.032 192.127 296.002 192.215 295.95 192.29C294.63 194.29 292.75 197.97 293.36 199.16C293.43 199.3 293.58 199.5 294.08 199.52C294.917 199.543 295.751 199.395 296.53 199.085C297.308 198.776 298.016 198.311 298.61 197.72C300.09 196.33 301.86 193.55 301.89 188.2C301.942 186.305 301.474 184.433 300.538 182.785C299.602 181.137 298.233 179.776 296.58 178.85C292.75 176.85 287.81 177.48 283.01 180.69C282.77 181.51 281.86 185.53 285.56 189.97C289.56 194.77 295.23 191.61 295.28 191.58C295.356 191.538 295.442 191.514 295.53 191.51V191.52Z" fill="#263238"/>
<path d="M274.41 179.8C274.41 179.8 256.77 181.51 258.76 183.22C260.75 184.93 269 185.22 273.84 185.22C277.396 185.07 280.911 184.396 284.27 183.22L274.41 179.8Z" fill="#5E4BCB"/>
<path d="M273.84 185.71C269.01 185.71 260.58 185.44 258.43 183.6C258.295 183.503 258.194 183.365 258.142 183.207C258.09 183.049 258.089 182.879 258.14 182.72C258.66 181.06 268.53 179.87 274.37 179.31C274.436 179.295 274.504 179.295 274.57 179.31L284.43 182.67C284.527 182.705 284.612 182.768 284.673 182.852C284.734 182.936 284.768 183.036 284.77 183.14C284.769 183.244 284.737 183.345 284.678 183.431C284.619 183.516 284.536 183.582 284.44 183.62C281.03 184.84 277.457 185.545 273.84 185.71V185.71ZM259.21 182.93C260.79 184.05 266.21 184.71 273.84 184.71C276.85 184.597 279.83 184.076 282.7 183.16L274.35 180.31C267.64 181 260.41 182.09 259.21 182.93Z" fill="#263238"/>
<path d="M274.41 179.8L302.88 190.9C302.88 190.9 306.01 182.08 304.88 176.39C303.75 170.7 296.05 165.57 288.37 165.57C280.69 165.57 275.84 169.56 274.41 179.8Z" fill="#5E4BCB"/>
<path d="M302.88 191.4C302.817 191.41 302.753 191.41 302.69 191.4L274.23 180.3C274.127 180.255 274.041 180.179 273.985 180.082C273.929 179.984 273.906 179.871 273.92 179.76C275.31 169.76 279.92 165.1 288.36 165.1C296.22 165.1 304.16 170.34 305.36 176.32C306.51 182.08 303.48 190.74 303.36 191.1C303.336 191.164 303.3 191.222 303.254 191.272C303.208 191.322 303.152 191.362 303.09 191.39C303.022 191.41 302.95 191.413 302.88 191.4V191.4ZM275 179.48L302.61 190.25C303.23 188.33 305.37 181.25 304.42 176.49C303.31 170.94 295.82 166.07 288.42 166.07C280.6 166.07 276.33 170.33 275 179.48Z" fill="#263238"/>
<path d="M293.2 186.63L294.62 165.29L297.18 166.14L295.76 187.49L293.2 186.63Z" fill="white"/>
<path d="M295.76 188C295.707 188.01 295.653 188.01 295.6 188L293.04 187.15C292.933 187.116 292.842 187.047 292.78 186.955C292.718 186.862 292.69 186.751 292.7 186.64L294.12 165.29C294.125 165.214 294.148 165.14 294.186 165.075C294.224 165.009 294.276 164.952 294.34 164.91C294.404 164.868 294.477 164.841 294.553 164.831C294.629 164.82 294.706 164.827 294.78 164.85L297.34 165.71C297.445 165.742 297.536 165.809 297.598 165.9C297.66 165.991 297.689 166.1 297.68 166.21L296.26 187.56C296.257 187.636 296.235 187.711 296.197 187.777C296.158 187.843 296.104 187.899 296.04 187.94C295.955 187.989 295.857 188.01 295.76 188V188ZM293.76 186.29L295.34 186.82L296.7 166.5L295.12 165.98L293.76 186.29Z" fill="#263238"/>
<path d="M300 191.19C300 190.003 299.648 188.843 298.989 187.857C298.33 186.87 297.392 186.101 296.296 185.647C295.2 185.193 293.993 185.074 292.829 185.305C291.666 185.537 290.596 186.108 289.757 186.947C288.918 187.786 288.347 188.856 288.115 190.019C287.884 191.183 288.003 192.39 288.457 193.486C288.911 194.582 289.68 195.52 290.667 196.179C291.653 196.838 292.813 197.19 294 197.19C295.591 197.19 297.117 196.558 298.243 195.433C299.368 194.307 300 192.781 300 191.19Z" fill="white"/>
<path d="M294.05 197.67C292.768 197.67 291.515 197.29 290.45 196.578C289.384 195.866 288.554 194.854 288.063 193.67C287.573 192.486 287.444 191.183 287.694 189.926C287.944 188.669 288.562 187.514 289.468 186.608C290.374 185.702 291.529 185.085 292.786 184.835C294.043 184.584 295.346 184.713 296.53 185.203C297.714 185.694 298.726 186.524 299.438 187.59C300.15 188.656 300.53 189.908 300.53 191.19C300.53 192.909 299.847 194.557 298.632 195.772C297.417 196.987 295.768 197.67 294.05 197.67V197.67ZM294.05 185.67C292.966 185.67 291.906 185.991 291.005 186.594C290.104 187.196 289.402 188.052 288.987 189.053C288.572 190.054 288.464 191.156 288.675 192.219C288.887 193.282 289.408 194.259 290.175 195.025C290.941 195.791 291.918 196.313 292.981 196.525C294.044 196.736 295.146 196.628 296.147 196.213C297.148 195.798 298.004 195.096 298.606 194.195C299.208 193.293 299.53 192.234 299.53 191.15C299.519 189.704 298.937 188.32 297.911 187.301C296.884 186.282 295.496 185.71 294.05 185.71V185.67Z" fill="#263238"/>
<path d="M297.27 191.19C297.27 190.553 297.081 189.931 296.727 189.401C296.374 188.872 295.871 188.459 295.282 188.215C294.694 187.971 294.047 187.908 293.422 188.032C292.797 188.156 292.224 188.463 291.773 188.913C291.323 189.363 291.016 189.937 290.892 190.562C290.768 191.186 290.831 191.834 291.075 192.422C291.319 193.011 291.732 193.514 292.261 193.867C292.791 194.221 293.413 194.41 294.05 194.41C294.473 194.41 294.892 194.327 295.282 194.165C295.673 194.003 296.028 193.766 296.327 193.467C296.626 193.168 296.863 192.813 297.025 192.422C297.187 192.032 297.27 191.613 297.27 191.19V191.19Z" fill="white"/>
<path d="M294.05 194.91C293.314 194.91 292.595 194.692 291.983 194.283C291.372 193.874 290.895 193.293 290.613 192.614C290.332 191.934 290.258 191.186 290.402 190.464C290.545 189.743 290.899 189.08 291.42 188.56C291.94 188.039 292.603 187.685 293.324 187.541C294.046 187.398 294.794 187.472 295.474 187.753C296.153 188.035 296.734 188.512 297.143 189.123C297.552 189.735 297.77 190.454 297.77 191.19C297.767 192.176 297.375 193.12 296.678 193.818C295.981 194.515 295.036 194.907 294.05 194.91ZM294.05 188.47C293.512 188.47 292.986 188.63 292.539 188.928C292.092 189.227 291.743 189.652 291.537 190.149C291.331 190.646 291.277 191.193 291.382 191.721C291.487 192.248 291.746 192.733 292.127 193.113C292.507 193.494 292.992 193.753 293.519 193.858C294.047 193.963 294.594 193.909 295.091 193.703C295.588 193.497 296.013 193.148 296.312 192.701C296.611 192.254 296.77 191.728 296.77 191.19C296.77 190.469 296.484 189.777 295.973 189.267C295.463 188.757 294.771 188.47 294.05 188.47Z" fill="#263238"/>
<path d="M295.76 296.22C295.76 296.22 298.89 319.22 301.76 332.08C304.63 344.94 310.87 356.84 313.71 358.27C316.55 359.7 331.64 361.97 343.31 363.67C354.98 365.37 373.77 366.52 373.77 366.52C373.77 366.52 376.33 375.34 376.33 379.04C376.33 382.74 374.91 387.3 377.18 387.58C379.45 387.86 382.88 380.18 383.73 376.77C384.58 373.36 384.87 365.1 385.73 361.97C386.59 358.84 386.3 358.27 382.6 357.97C378.9 357.67 375.77 357.97 373.21 357.4C370.65 356.83 356.42 354.27 349.59 350.29C342.76 346.31 330.2 346 328.49 346H323.65C323.65 346 321.38 327.21 321.38 320.38C321.38 313.55 321.66 299.03 317.38 289.38C313.1 279.73 308.28 276 306.86 276" fill="#263238"/>
<path d="M377.28 388.09H377.1C375 387.83 375.28 385.15 375.58 382.32C375.69 381.23 375.81 380.1 375.81 379.05C375.81 375.87 373.81 368.65 373.37 367.05C370.72 366.88 353.9 365.78 343.22 364.22C329.38 362.22 316.22 360.13 313.47 358.76C310.27 357.16 304 344.61 301.25 332.24C298.43 319.56 295.3 296.56 295.25 296.33C295.235 296.199 295.272 296.068 295.352 295.964C295.432 295.859 295.55 295.79 295.68 295.77C295.745 295.76 295.811 295.764 295.875 295.78C295.939 295.797 295.999 295.826 296.051 295.866C296.103 295.906 296.147 295.956 296.179 296.014C296.212 296.071 296.232 296.135 296.24 296.2C296.24 296.43 299.41 319.38 302.24 332.02C305.09 344.86 311.24 356.55 313.93 357.87C316.93 359.35 334.78 361.97 343.38 363.23C354.89 364.92 373.6 366.06 373.79 366.07C373.892 366.079 373.989 366.118 374.069 366.182C374.149 366.246 374.208 366.332 374.24 366.43C374.34 366.8 376.82 375.37 376.82 379.09C376.799 380.22 376.719 381.348 376.58 382.47C376.3 385.2 376.19 387.01 377.24 387.14C378.87 387.31 382.24 380.68 383.24 376.7C383.713 374.278 384.046 371.83 384.24 369.37C384.409 366.854 384.743 364.352 385.24 361.88C385.6 360.57 385.76 359.68 385.48 359.27C385.2 358.86 384.08 358.65 382.55 358.53C381.02 358.41 379.78 358.4 378.48 358.37C376.673 358.412 374.868 358.271 373.09 357.95L371.74 357.67C367.28 356.76 355.42 354.34 349.32 350.78C342.2 346.63 328.65 346.58 328.51 346.58H323.67C323.549 346.578 323.432 346.533 323.342 346.452C323.252 346.371 323.194 346.26 323.18 346.14C323.18 345.95 320.9 327.24 320.9 320.46V319.2C320.9 312.01 320.9 298.63 316.95 289.59C312.57 279.64 307.83 276.51 306.88 276.51C306.747 276.51 306.62 276.457 306.526 276.364C306.432 276.27 306.38 276.143 306.38 276.01C306.38 275.877 306.432 275.75 306.526 275.656C306.62 275.563 306.747 275.51 306.88 275.51C308.61 275.51 313.6 279.51 317.88 289.18C321.95 298.42 321.88 311.94 321.88 319.18V320.39C321.88 326.54 323.76 342.64 324.1 345.51H328.49C328.63 345.51 342.49 345.56 349.81 349.85C355.76 353.32 367.5 355.72 371.92 356.62L373.29 356.9C375.002 357.206 376.741 357.34 378.48 357.3C379.79 357.3 381.14 357.35 382.61 357.46C384.56 357.61 385.72 357.84 386.27 358.63C386.82 359.42 386.65 360.37 386.19 362.08C385.693 364.495 385.359 366.94 385.19 369.4C385.009 371.908 384.675 374.403 384.19 376.87C383.5 379.65 380.16 388.09 377.28 388.09Z" fill="#263238"/>
<path d="M343.54 356.55H343.42L339.42 355.55C339.356 355.536 339.295 355.509 339.242 355.471C339.189 355.433 339.144 355.384 339.11 355.328C339.076 355.272 339.054 355.209 339.046 355.144C339.037 355.079 339.042 355.013 339.06 354.95C339.074 354.886 339.101 354.825 339.139 354.771C339.177 354.718 339.225 354.672 339.281 354.638C339.337 354.603 339.4 354.58 339.465 354.57C339.53 354.56 339.596 354.564 339.66 354.58L343.66 355.58C343.787 355.615 343.896 355.699 343.963 355.812C344.03 355.926 344.05 356.062 344.02 356.19C343.991 356.295 343.928 356.387 343.841 356.452C343.754 356.517 343.648 356.552 343.54 356.55Z" fill="white"/>
<path d="M335.05 354.47H334.93L322.16 351.34C321.794 351.547 321.386 351.668 320.966 351.692C320.547 351.716 320.127 351.644 319.74 351.48C319.382 351.224 319.101 350.876 318.925 350.473C318.749 350.07 318.685 349.626 318.74 349.19C318.74 348.09 318.39 344.26 317.95 339.4C317.09 329.93 315.95 316.95 315.95 309.54C315.95 305.09 314.43 299.24 311.55 292.62C311.504 292.499 311.507 292.365 311.558 292.246C311.609 292.127 311.703 292.033 311.822 291.982C311.941 291.932 312.075 291.93 312.196 291.976C312.317 292.022 312.415 292.113 312.47 292.23C315.47 299.06 316.95 304.89 316.95 309.54C316.95 316.9 318.13 329.86 318.95 339.31C319.41 344.38 319.74 348.04 319.74 349.19C319.74 349.71 319.82 350.38 320.22 350.61C320.62 350.84 321.56 350.52 321.83 350.37L322 350.28L335.15 353.5C335.283 353.516 335.404 353.584 335.486 353.689C335.569 353.794 335.606 353.927 335.59 354.06C335.574 354.193 335.506 354.313 335.401 354.396C335.296 354.478 335.163 354.516 335.03 354.5L335.05 354.47Z" fill="white"/>
<path d="M310.2 289C310.106 289.003 310.013 288.978 309.933 288.928C309.853 288.878 309.789 288.806 309.75 288.72C308.08 285.34 306.75 283.06 306.7 283.04C306.665 282.984 306.642 282.921 306.632 282.856C306.622 282.79 306.625 282.724 306.641 282.66C306.657 282.595 306.685 282.535 306.724 282.482C306.764 282.429 306.813 282.384 306.87 282.35C306.983 282.284 307.117 282.264 307.245 282.296C307.372 282.328 307.481 282.408 307.55 282.52C307.55 282.52 308.96 284.85 310.64 288.28C310.699 288.398 310.709 288.535 310.668 288.66C310.627 288.786 310.538 288.89 310.42 288.95C310.35 288.98 310.276 288.997 310.2 289V289Z" fill="white"/>
<path d="M382.57 358C378.87 357.72 375.74 358 373.18 357.43C370.62 356.86 356.39 354.3 349.56 350.32C348.258 349.585 346.884 348.985 345.46 348.53C346.014 351.795 345.76 355.146 344.72 358.29C344.019 360.092 343.208 361.848 342.29 363.55L343.29 363.69C354.96 365.4 373.75 366.54 373.75 366.54C373.75 366.54 376.31 375.36 376.31 379.06C376.31 382.76 374.89 387.32 377.16 387.6C379.43 387.88 382.86 380.2 383.71 376.79C384.56 373.38 384.85 365.12 385.71 361.99C386.57 358.86 386.27 358.27 382.57 358Z" fill="white"/>
<path d="M377.28 388.09H377.1C375 387.83 375.28 385.15 375.58 382.32C375.69 381.23 375.81 380.1 375.81 379.05C375.81 375.87 373.81 368.65 373.37 367.05C370.72 366.88 353.9 365.78 343.22 364.22L342.22 364.07C342.14 364.06 342.065 364.03 342 363.983C341.935 363.936 341.884 363.873 341.85 363.8C341.813 363.729 341.794 363.65 341.794 363.57C341.794 363.49 341.813 363.411 341.85 363.34C342.76 361.656 343.562 359.916 344.25 358.13C345.279 355.073 345.523 351.806 344.96 348.63C344.949 348.545 344.96 348.459 344.991 348.379C345.023 348.3 345.074 348.229 345.139 348.174C345.205 348.12 345.284 348.082 345.368 348.066C345.452 348.049 345.538 348.054 345.62 348.08C347.076 348.548 348.48 349.164 349.81 349.92C355.76 353.39 367.5 355.79 371.92 356.69L373.29 356.97C375.002 357.276 376.741 357.41 378.48 357.37C379.79 357.37 381.14 357.42 382.61 357.53C384.56 357.68 385.72 357.91 386.27 358.7C386.82 359.49 386.65 360.44 386.19 362.15C385.694 364.565 385.359 367.01 385.19 369.47C385.01 371.978 384.676 374.473 384.19 376.94C383.5 379.65 380.16 388.09 377.28 388.09ZM343.07 363.14H343.37C354.88 364.83 373.59 365.97 373.78 365.98C373.882 365.989 373.979 366.028 374.059 366.092C374.139 366.156 374.199 366.242 374.23 366.34C374.33 366.71 376.81 375.28 376.81 379C376.789 380.13 376.709 381.258 376.57 382.38C376.29 385.11 376.18 386.92 377.23 387.05C378.86 387.22 382.23 380.59 383.23 376.61C383.703 374.188 384.037 371.74 384.23 369.28C384.399 366.764 384.733 364.262 385.23 361.79C385.59 360.48 385.75 359.59 385.47 359.18C385.19 358.77 384.07 358.56 382.54 358.44C381.1 358.33 379.77 358.31 378.47 358.28C376.664 358.322 374.858 358.181 373.08 357.86L371.73 357.58C367.27 356.67 355.41 354.25 349.31 350.69C348.273 350.098 347.185 349.6 346.06 349.2C346.517 352.295 346.218 355.455 345.19 358.41C344.568 360.023 343.86 361.602 343.07 363.14Z" fill="#263238"/>
<path d="M382.57 358C381.57 357.93 380.69 357.89 379.8 357.87C379.927 358.381 379.997 358.904 380.01 359.43C380.01 361.7 378.3 365.69 376.31 365.69C374.32 365.69 373.75 366.54 373.75 366.54C373.75 366.54 376.31 375.36 376.31 379.06C376.31 382.76 374.89 387.32 377.16 387.6C379.43 387.88 382.86 380.2 383.71 376.79C384.56 373.38 384.85 365.12 385.71 361.99C386.57 358.86 386.27 358.27 382.57 358Z" fill="#5E4BCB"/>
<path d="M377.28 388.09H377.1C375 387.83 375.28 385.15 375.58 382.32C375.69 381.23 375.81 380.1 375.81 379.05C375.81 375.47 373.29 366.76 373.27 366.67C373.25 366.6 373.245 366.526 373.255 366.454C373.266 366.381 373.291 366.312 373.33 366.25C373.41 366.14 374.11 365.18 376.33 365.18C377.92 365.18 379.53 361.48 379.53 359.42C379.515 358.931 379.448 358.445 379.33 357.97C379.315 357.896 379.317 357.82 379.336 357.747C379.355 357.674 379.391 357.607 379.44 357.55C379.484 357.488 379.542 357.438 379.611 357.405C379.679 357.372 379.754 357.356 379.83 357.36C380.93 357.36 381.83 357.43 382.63 357.49C384.58 357.64 385.74 357.87 386.29 358.66C386.84 359.45 386.67 360.4 386.21 362.11C385.714 364.525 385.379 366.97 385.21 369.43C385.03 371.938 384.696 374.433 384.21 376.9C383.5 379.65 380.16 388.09 377.28 388.09ZM374.28 366.67C374.73 368.25 376.78 375.67 376.78 379.04C376.759 380.17 376.679 381.298 376.54 382.42C376.26 385.15 376.15 386.96 377.2 387.09C378.83 387.26 382.2 380.63 383.2 376.65C383.673 374.228 384.007 371.78 384.2 369.32C384.369 366.804 384.703 364.302 385.2 361.83C385.56 360.52 385.72 359.63 385.44 359.22C385.16 358.81 384.04 358.6 382.51 358.48C381.86 358.43 381.19 358.39 380.39 358.37C380.452 358.7 380.485 359.034 380.49 359.37C380.49 361.68 378.72 366.13 376.29 366.13C375.589 366.094 374.896 366.284 374.31 366.67H374.28Z" fill="#263238"/>
<path d="M385.7 362C386.42 359.38 386.33 358.55 384.12 358.19C383.58 362.34 382 373.35 380.43 378.46C379.516 381.207 377.96 383.696 375.89 385.72C375.97 386.78 376.3 387.51 377.16 387.61C379.44 387.9 382.86 380.21 383.71 376.8C384.56 373.39 384.85 365.1 385.7 362Z" fill="#263238"/>
<path d="M377.28 388.09H377.1C376.1 387.96 375.5 387.17 375.39 385.74V385.51L375.55 385.35C377.562 383.382 379.074 380.962 379.96 378.29C381.72 372.59 383.44 359.57 383.63 358.1L383.7 357.59L384.21 357.67C384.612 357.678 385.008 357.772 385.372 357.944C385.735 358.116 386.058 358.364 386.32 358.67C386.79 359.41 386.64 360.43 386.2 362.06C385.703 364.475 385.369 366.92 385.2 369.38C385.019 371.888 384.685 374.383 384.2 376.85C383.5 379.65 380.16 388.09 377.28 388.09ZM376.41 385.88C376.55 387 377 387.06 377.23 387.09C378.86 387.26 382.23 380.63 383.23 376.65C383.703 374.228 384.036 371.78 384.23 369.32C384.399 366.804 384.733 364.302 385.23 361.83C385.58 360.55 385.75 359.67 385.48 359.25C385.239 358.978 384.909 358.801 384.55 358.75C384.17 361.65 382.55 373.24 380.92 378.58C380.003 381.33 378.459 383.83 376.41 385.88V385.88Z" fill="#263238"/>
<path d="M249.63 365.85C246.54 374.758 242.647 383.367 238 391.57C236.48 394.57 232.59 394.42 228 392.71C223.41 391 215.49 389 215.21 391C214.93 393 220.33 398.4 223.46 400.11C226.59 401.82 230.86 402.11 232.57 403.81C234.28 405.51 236.84 407.81 239.97 406.94C243.1 406.07 244.81 395.27 247.66 391C249.97 387.54 255.83 378.27 261.31 370.33C257.103 369.838 253.087 368.298 249.63 365.85V365.85Z" fill="white"/>
<path d="M238.58 407.63C236.07 407.63 233.98 405.92 232.22 404.16C231.36 403.31 229.67 402.81 227.87 402.28C226.266 401.861 224.708 401.281 223.22 400.55C220.28 398.94 214.37 393.36 214.71 390.93C214.739 390.742 214.811 390.563 214.921 390.407C215.03 390.251 215.173 390.122 215.34 390.03C217.55 388.73 225.56 391.25 228.19 392.24C231.59 393.51 235.97 394.39 237.53 391.34L238.2 390.11C242.586 382.314 246.268 374.141 249.2 365.69C249.225 365.617 249.267 365.55 249.323 365.497C249.378 365.443 249.446 365.403 249.52 365.38C249.593 365.354 249.672 365.347 249.749 365.36C249.825 365.372 249.898 365.403 249.96 365.45C253.348 367.848 257.286 369.355 261.41 369.83C261.495 369.846 261.576 369.881 261.645 369.933C261.715 369.985 261.771 370.052 261.81 370.13C261.851 370.205 261.873 370.289 261.873 370.375C261.873 370.461 261.851 370.545 261.81 370.62C258.01 376.13 254.05 382.24 251.15 386.7C249.9 388.63 248.87 390.22 248.15 391.28C246.881 393.604 245.875 396.063 245.15 398.61C243.7 402.85 242.33 406.85 240.23 407.42C239.693 407.568 239.137 407.639 238.58 407.63V407.63ZM217.19 390.63C216.731 390.597 216.271 390.676 215.85 390.86C215.813 390.877 215.781 390.902 215.755 390.934C215.729 390.965 215.71 391.001 215.7 391.04C215.48 392.58 220.34 397.81 223.7 399.64C225.122 400.342 226.614 400.895 228.15 401.29C230.08 401.85 231.89 402.39 232.93 403.42C234.82 405.32 237.13 407.16 239.84 406.42C241.43 405.98 242.84 401.87 244.07 398.24C244.839 395.609 245.903 393.073 247.24 390.68C247.94 389.63 248.97 388.04 250.24 386.11C253.02 381.83 256.79 376.02 260.46 370.68C256.684 370.119 253.08 368.726 249.91 366.6C247.007 374.898 243.39 382.928 239.1 390.6C238.8 391.14 238.57 391.55 238.45 391.8C237.4 393.8 234.71 395.75 227.86 393.17C224.18 391.8 219.59 390.66 217.19 390.66V390.63Z" fill="#263238"/>
<path d="M240 406.94C241.59 406.51 242.82 403.5 244 400.09C237.74 399.79 237.72 396.78 237.72 394.7C237.701 394.009 237.459 393.342 237.03 392.8C235.15 394.44 231.82 394.13 228.03 392.71C223.47 391 215.5 389.01 215.22 391C214.94 392.99 220.34 398.4 223.47 400.11C226.6 401.82 230.87 402.11 232.58 403.81C234.29 405.51 236.84 407.79 240 406.94Z" fill="#5E4BCB"/>
<path d="M238.58 407.63C236.07 407.63 233.98 405.92 232.22 404.16C231.36 403.31 229.67 402.81 227.87 402.28C226.266 401.861 224.708 401.281 223.22 400.55C220.28 398.94 214.37 393.36 214.71 390.93C214.739 390.742 214.811 390.563 214.921 390.407C215.03 390.251 215.173 390.122 215.34 390.03C217.55 388.73 225.56 391.25 228.19 392.24C230.97 393.24 234.69 394.16 236.69 392.43C236.739 392.382 236.799 392.345 236.865 392.325C236.932 392.304 237.002 392.299 237.07 392.31C237.139 392.318 237.205 392.34 237.265 392.374C237.326 392.408 237.378 392.455 237.42 392.51C237.908 393.138 238.181 393.905 238.2 394.7C238.2 396.75 238.2 399.31 244 399.59C244.077 399.595 244.153 399.617 244.22 399.655C244.288 399.693 244.346 399.746 244.39 399.81C244.434 399.875 244.462 399.95 244.473 400.028C244.483 400.106 244.475 400.185 244.45 400.26C242.99 404.44 241.81 406.96 240.1 407.42C239.605 407.556 239.094 407.627 238.58 407.63V407.63ZM217.19 390.63C216.731 390.597 216.271 390.676 215.85 390.86C215.813 390.877 215.781 390.903 215.755 390.934C215.729 390.965 215.71 391.001 215.7 391.04C215.48 392.58 220.34 397.81 223.7 399.64C225.122 400.342 226.614 400.895 228.15 401.29C230.08 401.85 231.89 402.39 232.93 403.42C234.82 405.32 237.13 407.16 239.84 406.42C241.23 406.04 242.51 402.71 243.29 400.51C237.2 399.99 237.2 396.67 237.2 394.66C237.193 394.249 237.083 393.847 236.88 393.49C234.96 394.75 231.88 394.64 227.88 393.13C224.18 391.8 219.59 390.66 217.19 390.66V390.63Z" fill="#263238"/>
<path d="M240 406.94C240.627 406.7 241.155 406.256 241.5 405.68C236.68 404.46 235.71 402.52 233.17 401.25C230.32 399.82 226.91 400.11 223.17 396.69C220.69 394.4 217.96 391.74 216.43 390.22C215.72 390.32 215.26 390.56 215.2 391C214.91 393 220.32 398.4 223.45 400.11C226.58 401.82 230.85 402.11 232.56 403.81C234.27 405.51 236.84 407.79 240 406.94Z" fill="#263238"/>
<path d="M238.58 407.63C236.07 407.63 233.98 405.92 232.22 404.16C231.36 403.31 229.67 402.81 227.87 402.28C226.266 401.861 224.708 401.281 223.22 400.55C220.28 398.94 214.37 393.36 214.71 390.93C214.78 390.47 215.12 389.93 216.37 389.73H216.61L216.79 389.91C218.55 391.65 221.15 394.18 223.52 396.37C225.406 398.061 227.708 399.221 230.19 399.73C231.281 399.994 232.342 400.366 233.36 400.84C234.182 401.269 234.962 401.775 235.69 402.35C237.409 403.757 239.433 404.743 241.6 405.23L242.31 405.41L241.88 406.01C241.471 406.684 240.843 407.196 240.1 407.46C239.603 407.583 239.092 407.64 238.58 407.63V407.63ZM216.27 390.76C215.93 390.83 215.72 390.94 215.7 391.07C215.48 392.61 220.34 397.84 223.7 399.67C225.122 400.372 226.614 400.925 228.15 401.32C230.08 401.88 231.89 402.42 232.93 403.45C234.82 405.35 237.13 407.19 239.84 406.45C240.127 406.348 240.385 406.176 240.59 405.95C238.584 405.383 236.714 404.417 235.09 403.11C234.416 402.563 233.689 402.084 232.92 401.68C231.955 401.25 230.95 400.915 229.92 400.68C227.285 400.122 224.843 398.881 222.84 397.08C220.54 394.94 218 392.5 216.27 390.76Z" fill="#263238"/>
<path d="M306.62 272.36C305.99 271.48 305.4 270.69 304.87 270.03C301.45 265.76 300.6 266.33 300.6 263.77C300.6 261.21 305.44 233.6 303.73 223.64C303.104 219.05 301.143 214.745 298.09 211.26C295.89 212.69 291.79 215.33 287.42 218.08C286.87 219.83 285.59 221.84 282.95 224.21C277.54 229.04 272.95 236.16 274.41 240.71C275.87 245.26 279.25 255.23 280.41 263.48C280.82 267.742 280.786 272.035 280.31 276.29C289.201 275.981 298.027 274.662 306.62 272.36V272.36Z" fill="#5E4BCB"/>
<path d="M280.29 276.79C280.221 276.791 280.153 276.778 280.09 276.753C280.026 276.727 279.969 276.689 279.92 276.64C279.829 276.531 279.782 276.392 279.79 276.25C280.262 272.031 280.296 267.775 279.89 263.55C278.89 256.43 276.21 247.98 274.59 242.93C274.34 242.16 274.12 241.46 273.94 240.86C272.38 235.86 277.35 228.55 282.62 223.86C284.562 222.309 286.057 220.269 286.95 217.95C286.986 217.838 287.061 217.743 287.16 217.68C291.56 214.92 295.73 212.23 297.82 210.87C297.926 210.803 298.052 210.777 298.176 210.797C298.3 210.818 298.411 210.883 298.49 210.98L298.77 211.34C301.706 214.823 303.596 219.067 304.22 223.58C305.51 231.1 303.12 248.48 301.84 257.81C301.42 260.81 301.1 263.19 301.1 263.81C301.1 265.25 301.33 265.48 302.46 266.62C303.449 267.616 304.384 268.664 305.26 269.76C305.82 270.46 306.43 271.27 307.03 272.11C307.076 272.176 307.106 272.252 307.116 272.332C307.127 272.411 307.118 272.492 307.091 272.568C307.063 272.643 307.018 272.711 306.959 272.766C306.899 272.82 306.828 272.859 306.75 272.88C298.114 275.212 289.24 276.554 280.3 276.88L280.29 276.79ZM287.84 218.4C286.877 220.818 285.306 222.946 283.28 224.58C278.08 229.23 273.53 236.22 274.89 240.58L275.54 242.64C277.17 247.72 279.89 256.22 280.88 263.44C281.288 267.547 281.271 271.686 280.83 275.79C289.273 275.461 297.655 274.217 305.83 272.08C305.38 271.47 304.93 270.88 304.52 270.36C303.667 269.307 302.752 268.305 301.78 267.36C300.62 266.17 300.14 265.69 300.14 263.84C300.14 263.16 300.44 260.99 300.89 257.71C302.16 248.43 304.54 231.16 303.28 223.79C302.695 219.412 300.862 215.294 298 211.93C295.82 213.33 291.94 215.83 287.84 218.4V218.4Z" fill="#263238"/>
<path d="M287.3 272.4C287.234 272.406 287.168 272.399 287.105 272.379C287.042 272.359 286.984 272.328 286.933 272.285C286.883 272.243 286.841 272.191 286.81 272.133C286.78 272.074 286.761 272.011 286.755 271.945C286.749 271.879 286.756 271.813 286.776 271.75C286.795 271.687 286.827 271.629 286.87 271.578C286.912 271.528 286.964 271.486 287.022 271.455C287.08 271.425 287.144 271.406 287.21 271.4C291.52 270.61 299.51 265.84 299.59 265.8C299.701 265.752 299.826 265.746 299.941 265.783C300.057 265.82 300.155 265.898 300.217 266.002C300.279 266.106 300.302 266.229 300.28 266.348C300.259 266.467 300.195 266.574 300.1 266.65C299.77 266.85 291.88 271.57 287.39 272.38L287.3 272.4Z" fill="#263238"/>
<path d="M288.92 268.35C288.787 268.362 288.656 268.321 288.553 268.235C288.451 268.15 288.387 268.028 288.375 267.895C288.363 267.762 288.404 267.63 288.49 267.528C288.575 267.426 288.697 267.362 288.83 267.35C291.577 266.854 294.261 266.052 296.83 264.96C296.89 264.932 296.954 264.917 297.02 264.914C297.086 264.912 297.152 264.922 297.213 264.945C297.275 264.968 297.332 265.002 297.38 265.047C297.428 265.092 297.467 265.145 297.495 265.205C297.523 265.265 297.538 265.329 297.541 265.395C297.543 265.461 297.533 265.526 297.51 265.588C297.488 265.65 297.453 265.707 297.408 265.755C297.364 265.803 297.31 265.842 297.25 265.87C294.61 266.995 291.853 267.823 289.03 268.34L288.92 268.35Z" fill="#263238"/>
<path d="M298.66 215.71C298.66 215.71 290.91 217.92 286.12 227.52C281.33 237.12 285.75 246.34 292.39 247.07C299.03 247.8 302.72 237.07 302.72 228.99C302.72 220.91 302 216.08 298.66 215.71Z" fill="white"/>
<path d="M293 247.61C292.763 247.625 292.526 247.625 292.29 247.61C290.78 247.397 289.344 246.819 288.108 245.925C286.873 245.031 285.874 243.848 285.2 242.48C282.87 238.19 283.03 232.53 285.63 227.33C290.47 217.65 298.16 215.33 298.48 215.27C298.546 215.26 298.614 215.26 298.68 215.27C302.43 215.69 303.18 220.85 303.18 229.05C303.18 234.67 301.38 242.32 297.44 245.85C296.233 246.972 294.648 247.6 293 247.61V247.61ZM298.67 216.22C297.79 216.51 290.88 219.03 286.52 227.74C284.07 232.65 283.9 237.96 286.08 241.96C286.678 243.186 287.567 244.247 288.668 245.052C289.769 245.857 291.05 246.382 292.4 246.58C293.196 246.656 294 246.558 294.755 246.292C295.509 246.026 296.197 245.599 296.77 245.04C300.32 241.86 302.18 234.56 302.18 229.04C302.22 221.64 301.62 216.65 298.71 216.22H298.67Z" fill="#263238"/>
<path d="M290.81 224.9C290.81 224.9 287.72 228.78 285.88 236.16C284.04 243.54 280.66 253 280.66 253C280.66 253 270.66 248.57 262.21 245.62C253.76 242.67 245.61 235.29 245.61 235.29C245.61 235.29 244.5 228.64 242.61 228.64C240.72 228.64 233.93 228.35 233.55 229.89C233.17 231.43 234.13 235.3 234.55 236.27C234.97 237.24 236.48 238.01 237.84 238.2C238.553 238.294 239.261 238.424 239.96 238.59C240.024 239.044 240.199 239.475 240.469 239.845C240.739 240.214 241.097 240.512 241.51 240.71C242.699 241.345 244.022 241.688 245.37 241.71C245.37 241.71 256.37 250.98 261.02 254.26C265.67 257.54 277.24 262.96 280.72 264.5C284.2 266.04 286.52 266.43 287.87 265.27C289.22 264.11 299.4 237.57 300.75 233.9C302.1 230.23 302.1 221.73 299.2 219.03" fill="white"/>
<path d="M285.82 266.4C283.971 266.256 282.17 265.746 280.52 264.9C276.85 263.27 265.34 257.9 260.73 254.61C256.41 251.55 246.46 243.22 245.18 242.14C243.806 242.121 242.456 241.778 241.24 241.14C240.41 240.677 239.794 239.909 239.52 239C239.18 238.93 238.58 238.81 237.77 238.7C236.3 238.49 234.57 237.7 234.09 236.45C233.75 235.62 232.65 231.56 233.09 229.77C233.46 228.31 236.71 228.07 241.84 228.13H242.64C244.64 228.13 245.74 233.19 246.06 235.02C247.12 235.96 254.65 242.45 262.36 245.13C269.7 247.69 278.24 251.38 280.36 252.31C281.08 250.31 283.8 242.36 285.36 236.06C287.21 228.66 290.26 224.77 290.36 224.61C290.4 224.558 290.45 224.514 290.507 224.482C290.564 224.45 290.627 224.429 290.693 224.422C290.758 224.414 290.824 224.42 290.887 224.438C290.95 224.457 291.009 224.488 291.06 224.53C291.163 224.612 291.229 224.732 291.244 224.864C291.259 224.995 291.221 225.126 291.14 225.23C288.829 228.574 287.186 232.333 286.3 236.3C284.47 243.62 281.11 253.06 281.07 253.15C281.023 253.282 280.926 253.39 280.8 253.45C280.737 253.478 280.669 253.492 280.6 253.492C280.531 253.492 280.463 253.478 280.4 253.45C280.3 253.45 270.4 249 261.99 246.09C253.58 243.18 245.29 235.73 245.21 235.66C245.128 235.582 245.073 235.481 245.05 235.37C244.55 232.37 243.44 229.14 242.59 229.14H241.78C235.22 229.05 234.1 229.66 234.01 230.03C233.67 231.41 234.57 235.12 235.01 236.09C235.29 236.8 236.59 237.53 237.9 237.72C239.21 237.91 240.04 238.1 240.07 238.11C240.178 238.139 240.274 238.202 240.343 238.291C240.411 238.379 240.449 238.488 240.45 238.6C240.45 238.6 240.45 239.51 241.76 240.3C242.876 240.869 244.107 241.173 245.36 241.19C245.478 241.188 245.592 241.231 245.68 241.31C245.79 241.4 256.73 250.6 261.3 253.83C265.87 257.06 277.3 262.41 280.91 264.02C284.38 265.57 286.42 265.83 287.53 264.87C288.75 263.69 298.04 239.77 300.27 233.71C301.61 230.06 301.51 221.85 298.85 219.37C298.803 219.324 298.766 219.27 298.741 219.21C298.716 219.15 298.703 219.085 298.703 219.02C298.703 218.955 298.716 218.89 298.741 218.83C298.766 218.77 298.803 218.716 298.85 218.67C298.943 218.578 299.069 218.527 299.2 218.527C299.331 218.527 299.456 218.578 299.55 218.67C302.77 221.67 302.55 230.47 301.23 234.09C301.12 234.38 289.83 264.27 288.23 265.66C287.549 266.203 286.688 266.467 285.82 266.4V266.4Z" fill="#263238"/>
</svg>
