<svg width="74" height="74" viewBox="0 0 74 74" fill="none" xmlns="http://www.w3.org/2000/svg">
<path d="M11.76 33.28V59.12H25.44V33.28H11.76ZM30 15.04V59.12H43.68V15.04H30ZM48.24 39.36V59.12H61.92V39.36H48.24ZM61.92 63.68H11.76C10.4933 63.68 9.41665 63.2366 8.52998 62.35C7.64332 61.4633 7.19998 60.3866 7.19998 59.12V33.28C7.19998 32.0133 7.64332 30.9366 8.52998 30.05C9.41665 29.1633 10.4933 28.72 11.76 28.72H25.44V15.04C25.44 13.7733 25.8833 12.6966 26.77 11.81C27.6566 10.9233 28.7333 10.48 30 10.48H43.68C44.9466 10.48 46.0233 10.9233 46.91 11.81C47.7966 12.6966 48.24 13.7733 48.24 15.04V34.8H61.92C63.1866 34.8 64.2633 35.2433 65.15 36.13C66.0366 37.0166 66.48 38.0933 66.48 39.36V59.12C66.48 60.3866 66.0366 61.4633 65.15 62.35C64.2633 63.2366 63.1866 63.68 61.92 63.68Z" fill="#D9D9D9"/>
</svg>
