<svg width="48" height="48" viewBox="0 0 48 48" fill="none" xmlns="http://www.w3.org/2000/svg">
<path d="M24 23.95C21.8 23.95 20 23.25 18.6 21.85C17.2 20.45 16.5 18.65 16.5 16.45C16.5 14.25 17.2 12.45 18.6 11.05C20 9.65001 21.8 8.95001 24 8.95001C26.2 8.95001 28 9.65001 29.4 11.05C30.8 12.45 31.5 14.25 31.5 16.45C31.5 18.65 30.8 20.45 29.4 21.85C28 23.25 26.2 23.95 24 23.95V23.95ZM37 40H11C10.1667 40 9.45833 39.7083 8.875 39.125C8.29167 38.5417 8 37.8333 8 37V35.3C8 34.0333 8.31667 32.95 8.95 32.05C9.58333 31.15 10.4 30.4667 11.4 30C13.6333 29 15.775 28.25 17.825 27.75C19.875 27.25 21.9333 27 24 27C26.0667 27 28.1167 27.2583 30.15 27.775C32.1833 28.2917 34.3167 29.0333 36.55 30C37.5833 30.4667 38.4167 31.15 39.05 32.05C39.6833 32.95 40 34.0333 40 35.3V37C40 37.8333 39.7083 38.5417 39.125 39.125C38.5417 39.7083 37.8333 40 37 40ZM11 37H37V35.3C37 34.7667 36.8417 34.2583 36.525 33.775C36.2083 33.2917 35.8167 32.9333 35.35 32.7C33.2167 31.6667 31.2667 30.9583 29.5 30.575C27.7333 30.1917 25.9 30 24 30C22.1 30 20.25 30.1917 18.45 30.575C16.65 30.9583 14.7 31.6667 12.6 32.7C12.1333 32.9333 11.75 33.2917 11.45 33.775C11.15 34.2583 11 34.7667 11 35.3V37ZM24 20.95C25.3 20.95 26.375 20.525 27.225 19.675C28.075 18.825 28.5 17.75 28.5 16.45C28.5 15.15 28.075 14.075 27.225 13.225C26.375 12.375 25.3 11.95 24 11.95C22.7 11.95 21.625 12.375 20.775 13.225C19.925 14.075 19.5 15.15 19.5 16.45C19.5 17.75 19.925 18.825 20.775 19.675C21.625 20.525 22.7 20.95 24 20.95Z" fill="#9378FF"/>
<path d="M34.82 43C34.7 43 34.5933 42.96 34.5 42.88C34.42 42.7867 34.38 42.68 34.38 42.56C34.38 42.52 34.3867 42.4733 34.4 42.42C34.4267 42.3533 34.46 42.2933 34.5 42.24L37.88 37.66L34.78 33.36C34.74 33.3067 34.7067 33.2533 34.68 33.2C34.6667 33.1467 34.66 33.0933 34.66 33.04C34.66 32.92 34.7 32.82 34.78 32.74C34.8733 32.6467 34.98 32.6 35.1 32.6H37.18C37.34 32.6 37.46 32.64 37.54 32.72C37.6333 32.8 37.7 32.8733 37.74 32.94L39.8 35.74L41.86 32.96C41.9133 32.8933 41.98 32.82 42.06 32.74C42.14 32.6467 42.2667 32.6 42.44 32.6H44.42C44.54 32.6 44.64 32.6467 44.72 32.74C44.8133 32.82 44.86 32.92 44.86 33.04C44.86 33.0933 44.8533 33.1467 44.84 33.2C44.8267 33.2533 44.7933 33.3067 44.74 33.36L41.58 37.68L45 42.24C45.04 42.2933 45.0667 42.3467 45.08 42.4C45.1067 42.4533 45.12 42.5067 45.12 42.56C45.12 42.68 45.0733 42.7867 44.98 42.88C44.9 42.96 44.8 43 44.68 43H42.5C42.3533 43 42.24 42.9667 42.16 42.9C42.08 42.82 42.0133 42.7467 41.96 42.68L39.74 39.72L37.48 42.68C37.44 42.7333 37.38 42.8 37.3 42.88C37.22 42.96 37.1 43 36.94 43H34.82Z" fill="#9378FF"/>
<path d="M34.5 42.88L33.7407 43.5308L33.7908 43.5892L33.8492 43.6393L34.5 42.88ZM34.4 42.42L33.4715 42.0486L33.4463 42.1116L33.4299 42.1775L34.4 42.42ZM34.5 42.24L35.3 42.84L35.3046 42.8338L34.5 42.24ZM37.88 37.66L38.6846 38.2538L39.1177 37.6669L38.6912 37.0752L37.88 37.66ZM34.78 33.36L35.5912 32.7752L35.5857 32.7675L35.58 32.76L34.78 33.36ZM34.68 33.2L33.7099 33.4425L33.7365 33.549L33.7856 33.6472L34.68 33.2ZM34.78 32.74L35.4871 33.4471L35.4871 33.4471L34.78 32.74ZM37.54 32.72L36.8329 33.4271L36.86 33.4543L36.8892 33.4793L37.54 32.72ZM37.74 32.94L36.8825 33.4545L36.9067 33.4948L36.9345 33.5326L37.74 32.94ZM39.8 35.74L38.9945 36.3326L39.7971 37.4235L40.6035 36.3354L39.8 35.74ZM41.86 32.96L41.0791 32.3353L41.0676 32.3498L41.0565 32.3646L41.86 32.96ZM42.06 32.74L42.7671 33.4471L42.7943 33.4199L42.8193 33.3908L42.06 32.74ZM44.72 32.74L43.9607 33.3908L44.0108 33.4492L44.0692 33.4993L44.72 32.74ZM44.84 33.2L45.8101 33.4425L45.8101 33.4425L44.84 33.2ZM44.74 33.36L44.0329 32.6529L43.9784 32.7074L43.9329 32.7696L44.74 33.36ZM41.58 37.68L40.7729 37.0896L40.3356 37.6874L40.78 38.28L41.58 37.68ZM45 42.24L44.2 42.84L44.2 42.84L45 42.24ZM45.08 42.4L44.1099 42.6425L44.1365 42.749L44.1856 42.8472L45.08 42.4ZM44.98 42.88L44.2729 42.1729L44.2729 42.1729L44.98 42.88ZM42.16 42.9L41.4529 43.6071L41.485 43.6392L41.5198 43.6682L42.16 42.9ZM41.96 42.68L41.16 43.28L41.1694 43.2925L41.1791 43.3047L41.96 42.68ZM39.74 39.72L40.54 39.12L39.7471 38.0628L38.9452 39.1131L39.74 39.72ZM37.48 42.68L36.6852 42.0731L36.68 42.08L37.48 42.68ZM34.82 42C34.8734 42 34.9363 42.0094 35.0011 42.0337C35.0656 42.0579 35.1157 42.0907 35.1508 42.1207L33.8492 43.6393C34.1189 43.8705 34.455 44 34.82 44V42ZM35.2593 42.2292C35.2893 42.2643 35.3221 42.3144 35.3463 42.3789C35.3706 42.4437 35.38 42.5066 35.38 42.56H33.38C33.38 42.925 33.5095 43.2611 33.7407 43.5308L35.2593 42.2292ZM35.38 42.56C35.38 42.5948 35.3772 42.6209 35.3749 42.6364C35.3727 42.6521 35.3705 42.6612 35.3701 42.6625L33.4299 42.1775C33.4035 42.2828 33.38 42.4142 33.38 42.56H35.38ZM35.3285 42.7914C35.325 42.8 35.3166 42.8179 35.3 42.84L33.7 41.64C33.6034 41.7687 33.5283 41.9067 33.4715 42.0486L35.3285 42.7914ZM35.3046 42.8338L38.6846 38.2538L37.0754 37.0662L33.6954 41.6462L35.3046 42.8338ZM38.6912 37.0752L35.5912 32.7752L33.9688 33.9448L37.0688 38.2448L38.6912 37.0752ZM35.58 32.76C35.5718 32.7491 35.5713 32.7466 35.5744 32.7528L33.7856 33.6472C33.842 33.7601 33.9082 33.8642 33.98 33.96L35.58 32.76ZM35.6501 32.9575C35.656 32.981 35.66 33.0091 35.66 33.04H33.66C33.66 33.1776 33.6773 33.3123 33.7099 33.4425L35.6501 32.9575ZM35.66 33.04C35.66 33.0927 35.6508 33.1655 35.6185 33.2464C35.5857 33.3284 35.5379 33.3963 35.4871 33.4471L34.0729 32.0329C33.7931 32.3127 33.66 32.6726 33.66 33.04H35.66ZM35.4871 33.4471C35.4573 33.4769 35.406 33.5183 35.3308 33.5512C35.2538 33.5848 35.1736 33.6 35.1 33.6V31.6C34.687 31.6 34.3332 31.7726 34.0729 32.0329L35.4871 33.4471ZM35.1 33.6H37.18V31.6H35.1V33.6ZM37.18 33.6C37.1797 33.6 37.1386 33.6003 37.0738 33.5787C37.0041 33.5554 36.9151 33.5093 36.8329 33.4271L38.2471 32.0129C37.9134 31.6792 37.4941 31.6 37.18 31.6V33.6ZM36.8892 33.4793C36.9 33.4885 36.9078 33.4957 36.9131 33.5007C36.9184 33.5058 36.9205 33.5082 36.9201 33.5077C36.9197 33.5072 36.9158 33.5029 36.9096 33.4948C36.9034 33.4867 36.8938 33.4733 36.8825 33.4545L38.5975 32.4255C38.4797 32.2291 38.3241 32.075 38.1908 31.9607L36.8892 33.4793ZM36.9345 33.5326L38.9945 36.3326L40.6055 35.1474L38.5455 32.3474L36.9345 33.5326ZM40.6035 36.3354L42.6635 33.5554L41.0565 32.3646L38.9965 35.1446L40.6035 36.3354ZM42.6409 33.5847C42.6651 33.5544 42.7054 33.5088 42.7671 33.4471L41.3529 32.0329C41.2546 32.1312 41.1615 32.2323 41.0791 32.3353L42.6409 33.5847ZM42.8193 33.3908C42.7375 33.4861 42.6414 33.5436 42.5607 33.5733C42.5231 33.5872 42.4925 33.5938 42.4725 33.5969C42.4526 33.6 42.4411 33.6 42.44 33.6V31.6C42.099 31.6 41.6389 31.6947 41.3007 32.0892L42.8193 33.3908ZM42.44 33.6H44.42V31.6H42.44V33.6ZM44.42 33.6C44.3468 33.6 44.2558 33.5849 44.1621 33.5412C44.0691 33.4978 44.0028 33.4398 43.9607 33.3908L45.4793 32.0892C45.2146 31.7804 44.84 31.6 44.42 31.6V33.6ZM44.0692 33.4993C44.0202 33.4572 43.9622 33.3909 43.9188 33.2979C43.8751 33.2042 43.86 33.1132 43.86 33.04H45.86C45.86 32.62 45.6796 32.2454 45.3708 31.9807L44.0692 33.4993ZM43.86 33.04C43.86 33.0091 43.864 32.981 43.8699 32.9575L45.8101 33.4425C45.8427 33.3123 45.86 33.1776 45.86 33.04H43.86ZM43.8699 32.9575C43.9139 32.7813 44.0039 32.6819 44.0329 32.6529L45.4471 34.0671C45.5828 33.9314 45.7394 33.7254 45.8101 33.4425L43.8699 32.9575ZM43.9329 32.7696L40.7729 37.0896L42.3871 38.2704L45.5471 33.9504L43.9329 32.7696ZM40.78 38.28L44.2 42.84L45.8 41.64L42.38 37.08L40.78 38.28ZM44.2 42.84C44.1766 42.8088 44.1349 42.7429 44.1099 42.6425L46.0501 42.1575C45.9984 41.9504 45.9034 41.7778 45.8 41.64L44.2 42.84ZM44.1856 42.8472C44.1511 42.7783 44.12 42.6794 44.12 42.56H46.12C46.12 42.3339 46.0622 42.1284 45.9744 41.9528L44.1856 42.8472ZM44.12 42.56C44.12 42.4864 44.1352 42.4062 44.1688 42.3292C44.2017 42.254 44.2431 42.2027 44.2729 42.1729L45.6871 43.5871C45.9474 43.3268 46.12 42.973 46.12 42.56H44.12ZM44.2729 42.1729C44.3237 42.1221 44.3916 42.0743 44.4736 42.0415C44.5545 42.0092 44.6273 42 44.68 42V44C45.0474 44 45.4073 43.8669 45.6871 43.5871L44.2729 42.1729ZM44.68 42H42.5V44H44.68V42ZM42.5 42C42.5002 42 42.5332 41.9998 42.5872 42.0156C42.6441 42.0324 42.7219 42.0666 42.8002 42.1318L41.5198 43.6682C41.8406 43.9356 42.2137 44 42.5 44V42ZM42.8671 42.1929C42.8054 42.1312 42.7651 42.0857 42.7409 42.0553L41.1791 43.3047C41.2615 43.4077 41.3546 43.5088 41.4529 43.6071L42.8671 42.1929ZM42.76 42.08L40.54 39.12L38.94 40.32L41.16 43.28L42.76 42.08ZM38.9452 39.1131L36.6852 42.0731L38.2748 43.2869L40.5348 40.3269L38.9452 39.1131ZM36.68 42.08C36.6827 42.0763 36.6781 42.0828 36.6617 42.101C36.646 42.1185 36.6235 42.1423 36.5929 42.1729L38.0071 43.5871C38.101 43.4932 38.1988 43.3883 38.28 43.28L36.68 42.08ZM36.5929 42.1729C36.6751 42.0907 36.7641 42.0446 36.8338 42.0213C36.8986 41.9997 36.9397 42 36.94 42V44C37.2541 44 37.6734 43.9208 38.0071 43.5871L36.5929 42.1729ZM36.94 42H34.82V44H36.94V42Z" fill="white"/>
</svg>
