<svg width="74" height="74" viewBox="0 0 74 74" fill="none" xmlns="http://www.w3.org/2000/svg">
<path d="M44.0198 14.9761C42.4998 14.9761 41.1951 14.4315 40.1058 13.3421C39.0164 12.2528 38.4718 10.9481 38.4718 9.42813C38.4718 7.90813 39.0164 6.60346 40.1058 5.51413C41.1951 4.42479 42.4998 3.88013 44.0198 3.88013C45.5398 3.88013 46.8444 4.42479 47.9338 5.51413C49.0231 6.60346 49.5678 7.90813 49.5678 9.42813C49.5678 10.9481 49.0231 12.2528 47.9338 13.3421C46.8444 14.4315 45.5398 14.9761 44.0198 14.9761ZM45.9198 69.2401C45.2611 69.2401 44.7164 69.0248 44.2858 68.5941C43.8551 68.1635 43.6398 67.6188 43.6398 66.9601V51.0761L35.4318 43.5521L33.2278 53.4321C32.9744 54.6481 32.3158 55.5981 31.2518 56.2821C30.1878 56.9661 29.0478 57.1815 27.8318 56.9281L14.2278 54.1161C13.6704 54.0148 13.2271 53.7108 12.8978 53.2041C12.5684 52.6975 12.4544 52.1401 12.5558 51.5321C12.6571 50.9748 12.9611 50.5315 13.4678 50.2021C13.9744 49.8728 14.5064 49.7588 15.0638 49.8601L28.0598 52.4441L33.6078 24.4001L26.0078 27.9721V35.8761C26.0078 36.5348 25.7924 37.0795 25.3618 37.5101C24.9311 37.9408 24.3864 38.1561 23.7278 38.1561C23.0691 38.1561 22.5244 37.9408 22.0938 37.5101C21.6631 37.0795 21.4478 36.5348 21.4478 35.8761V27.8961C21.4478 26.9841 21.7011 26.1481 22.2078 25.3881C22.7144 24.6281 23.3984 24.0708 24.2598 23.7161L33.9118 19.6121C35.4824 18.9028 36.6224 18.4595 37.3318 18.2821C38.0411 18.1048 38.7504 18.0161 39.4598 18.0161C40.4731 18.0161 41.3724 18.2315 42.1578 18.6621C42.9431 19.0928 43.6144 19.7388 44.1718 20.6001L47.3638 25.6921C48.5291 27.5668 50.0618 29.2261 51.9618 30.6701C53.8618 32.1141 56.0784 33.0388 58.6118 33.4441C59.2198 33.5455 59.7264 33.8115 60.1318 34.2421C60.5371 34.6728 60.7398 35.1668 60.7398 35.7241C60.7398 36.4335 60.4991 37.0161 60.0178 37.4721C59.5364 37.9281 58.9664 38.1055 58.3078 38.0041C55.4704 37.6495 52.9244 36.6995 50.6698 35.1541C48.4151 33.6088 46.2744 31.4681 44.2478 28.7321L41.2838 40.7401L46.7558 45.7561C47.2118 46.2121 47.5664 46.7315 47.8198 47.3141C48.0731 47.8968 48.1998 48.4921 48.1998 49.1001V66.9601C48.1998 67.6188 47.9844 68.1635 47.5538 68.5941C47.1231 69.0248 46.5784 69.2401 45.9198 69.2401Z" fill="#D9D9D9"/>
</svg>
