<svg width="500" height="500" viewBox="0 0 500 500" fill="none" xmlns="http://www.w3.org/2000/svg">
<path opacity="0.7" d="M441.9 329.796C441.9 361.585 436.79 384.986 426.98 402.29H69.5501C59.4701 384.765 54.1001 360.906 54.1001 328.42C54.1001 207.265 127.82 95 246.19 95C364.56 95 441.9 208.641 441.9 329.796Z" fill="#5E4BCB"/>
<path opacity="0.7" d="M441.9 329.796C441.9 361.585 436.79 384.986 426.98 402.29H69.5501C59.4701 384.765 54.1001 360.906 54.1001 328.42C54.1001 207.265 127.82 95 246.19 95C364.56 95 441.9 208.641 441.9 329.796Z" fill="white"/>
<path opacity="0.8" d="M377.74 167.15C373.22 164.68 371.16 166.74 369.52 164.68C367.88 162.62 374.04 157.28 361.71 151.94C361.71 151.94 360.89 140.42 344.03 140.01C327.17 139.6 331.69 151.53 327.17 154.4C322.65 157.27 321.41 152.76 316.89 155.64C312.37 158.52 314.42 164.27 310.72 165.09C307.02 165.91 302.09 161.39 297.56 164.27C293.03 167.15 293.04 169.62 290.98 169.62C288.92 169.62 284.82 167.97 282.35 169.62C279.88 171.27 277 173.32 277 173.32H381C381 173.32 382.27 169.63 377.74 167.15Z" fill="white"/>
<path d="M402.68 432.44C380.01 453.44 261.2 459.34 246.19 459.34C230.31 459.34 123.85 455.77 93.0702 432.39L92.9102 432.25L198.91 402.25H295.77L402.68 432.44Z" fill="#BFBFBF"/>
<path d="M350.59 436.98L276.22 402.28" stroke="#263238" stroke-linecap="round" stroke-linejoin="round"/>
<path d="M372.07 447L354.1 438.62" stroke="#263238" stroke-linecap="round" stroke-linejoin="round"/>
<path d="M266.73 415.33L257.41 402.29" stroke="#263238" stroke-linecap="round" stroke-linejoin="round"/>
<path d="M289.36 447L268.9 418.36" stroke="#263238" stroke-linecap="round" stroke-linejoin="round"/>
<path d="M215.06 435.22L238.59 402.29" stroke="#263238" stroke-linecap="round" stroke-linejoin="round"/>
<path d="M206.64 447L212.04 439.45" stroke="#263238" stroke-linecap="round" stroke-linejoin="round"/>
<path d="M189.97 416.19L219.77 402.29" stroke="#263238" stroke-linecap="round" stroke-linejoin="round"/>
<path d="M123.93 447L184.4 418.79" stroke="#263238" stroke-linecap="round" stroke-linejoin="round"/>
<path d="M42.5 446.5L92.91 432.25L198.93 402.29" stroke="#263238" stroke-linecap="round" stroke-linejoin="round"/>
<path d="M454.78 402.29H426.98H426.58H384.95H379.98H295.79H295.64H295.05H276.24H257.41H238.59H219.77H200.96H198.93H69.5502H69.4502H41.2202" stroke="#263238" stroke-linecap="round" stroke-linejoin="round"/>
<path d="M295.79 402.29L402.68 432.44L458.9 448.29" stroke="#263238" stroke-linecap="round" stroke-linejoin="round"/>
<path d="M419.6 383.35C419.6 383.35 437.24 382.08 446.04 365.35C455.54 347.26 432.37 304.35 420.53 301.17C407.53 297.67 387.01 331.95 391.21 358.6C394.09 376.76 411.45 382.88 419.6 383.35Z" fill="#5E4BCB"/>
<path opacity="0.3" d="M419.6 383.35C419.6 383.35 437.24 382.08 446.04 365.35C455.54 347.26 432.37 304.35 420.53 301.17C407.53 297.67 387.01 331.95 391.21 358.6C394.09 376.76 411.45 382.88 419.6 383.35Z" fill="white"/>
<path d="M431.92 352.58L420.63 364.94C420.63 365.37 420.63 365.79 420.63 366.22C420.71 371.74 420.82 377.45 420.91 383.22C420.91 383.59 420.91 383.97 420.91 384.34C420.97 388.83 421.18 398.41 421.25 402.98C421.255 403.312 421.194 403.642 421.071 403.951C420.948 404.259 420.765 404.54 420.532 404.777C420.3 405.014 420.022 405.203 419.716 405.332C419.41 405.462 419.082 405.529 418.75 405.53V405.53C418.412 405.534 418.076 405.47 417.763 405.341C417.451 405.213 417.167 405.022 416.93 404.781C416.693 404.54 416.507 404.254 416.383 403.939C416.259 403.624 416.2 403.288 416.21 402.95L416.65 384.31V383.04L416.71 380.96L416.78 377.85L402.31 362.11C403.47 362.11 401.39 359.93 401.18 359.72L417 372.06L417.63 345.12L408.14 334.79C408.96 334.79 407.48 333.25 407.33 333.09L417.72 341.27V340.76L418.29 317.34L419.85 319.05C419.85 319.05 420.16 337.37 420.55 360.32L432.83 350.55C432.66 350.74 431 352.59 431.92 352.58Z" fill="white" stroke="#263238" stroke-linecap="round" stroke-linejoin="round"/>
<path d="M87.6499 383.24C88.6515 383.318 89.6588 383.274 90.6499 383.11C95.7699 382.24 110.53 377.85 126.56 355.51C143.94 331.28 110.95 256.27 92.4599 239.02C73.9699 221.77 37.9999 316 42.1399 339.87C47.9999 373.07 72.5299 382 87.6499 383.24Z" fill="#5E4BCB"/>
<path opacity="0.3" d="M87.6499 383.24C88.6515 383.318 89.6588 383.274 90.6499 383.11C95.7699 382.24 110.53 377.85 126.56 355.51C143.94 331.28 110.95 256.27 92.4599 239.02C73.9699 221.77 37.9999 316 42.1399 339.87C47.9999 373.07 72.5299 382 87.6499 383.24Z" fill="white"/>
<path d="M121.83 333.86L94.22 361.31L96.82 426.59C96.8442 427.191 96.7468 427.791 96.5337 428.354C96.3206 428.916 95.996 429.43 95.5796 429.864C95.1631 430.298 94.6633 430.644 94.1101 430.88C93.5569 431.117 92.9616 431.239 92.36 431.24V431.24C91.7731 431.241 91.1917 431.127 90.6493 430.902C90.107 430.678 89.6143 430.349 89.1998 429.933C88.7852 429.518 88.457 429.024 88.2339 428.481C88.0108 427.939 87.8973 427.357 87.9 426.77C87.9 413.55 88.2 372.69 88.45 326.39L67.28 306.09C68.89 306.09 66.01 303.35 65.73 303.09L88.5 318.92C88.68 283.81 88.85 255.53 88.85 255.53L90.92 253L92.07 290.55L111.59 276.5C111.3 276.77 108.42 279.5 110.03 279.5L92.27 297.13L93.93 351.23L124.05 329.54C123.65 329.93 119.52 333.86 121.83 333.86Z" fill="white" stroke="#263238" stroke-linecap="round" stroke-linejoin="round"/>
<path d="M223.57 408.871C222.492 409.253 221.578 409.992 220.98 410.965C220.381 411.939 220.134 413.088 220.28 414.221C220.53 418.501 215.89 430.271 220.56 432.871C225.86 435.821 234.92 435.601 235.62 433.061C236.32 430.521 233.46 426.521 233.72 423.381C233.98 420.241 236.36 409.931 232.55 408.991C228.74 408.051 223.57 408.871 223.57 408.871Z" fill="white" stroke="#263238" stroke-linecap="round" stroke-linejoin="round"/>
<path d="M222.6 411.521C223.164 412.045 223.519 412.756 223.6 413.521C223.9 415.881 224.6 410.311 228.6 410.881C232.6 411.451 231.17 414.541 231.84 414.801C232.2 414.941 232.28 413.801 232.52 412.661C232.6 407.151 232.89 396.661 233.92 392.191C235.34 385.921 237.06 374.711 236.21 370.881C236.21 370.881 243.3 363.061 244.06 335.931L223.84 335.681L223.5 363.081C223.5 363.081 217.79 370.201 219.86 384.381C221.33 394.581 222.22 405.971 222.6 411.521Z" fill="#999999" stroke="#263238" stroke-linecap="round" stroke-linejoin="round"/>
<path d="M235.47 430.441C235.47 430.441 231.57 426.921 227.9 427.041" stroke="#263238" stroke-linecap="round" stroke-linejoin="round"/>
<path d="M250.58 376.191C248.628 380.01 248.269 384.447 249.58 388.531C251.74 395.751 248.27 404.021 252.95 407.001C257.63 409.981 270.45 408.561 266.77 397.731C263.09 386.901 264.47 379.961 260.15 377.431C255.83 374.901 250.58 376.191 250.58 376.191Z" fill="white" stroke="#263238" stroke-linecap="round" stroke-linejoin="round"/>
<path d="M272.88 309.971L257.1 311.141L247.62 318.411C247.62 318.411 246.97 331.311 251.13 339.851L253.49 348.141C252.271 351.367 251.796 354.826 252.1 358.261C252.47 364.331 253.99 369.071 252.1 374.211C251.379 376.201 251.079 378.319 251.22 380.431C251.477 380.785 251.67 381.181 251.79 381.601C252.6 384.221 254.01 378.921 257.46 379.311C260.91 379.701 259.22 382.381 260 382.421C262 376.471 271.51 347.621 267.58 340.091C267.58 340.091 273.98 333.141 275.68 324.651C276.69 319.58 275.686 314.314 272.88 309.971V309.971Z" fill="#999999" stroke="#263238" stroke-linecap="round" stroke-linejoin="round"/>
<path d="M266.84 205.261C266.84 205.261 272.73 198.101 267.5 193.681C267.5 193.681 264.5 180.331 255.28 183.481C246.06 186.631 247.16 188.951 247.16 188.951C247.16 188.951 236.84 189.301 237.69 194.881C238.54 200.461 240.48 200.001 240.48 200.001C240.48 200.001 237.68 201.291 238.71 205.541C239.74 209.791 244.35 209.441 244.35 209.441L266.84 205.261Z" fill="#263238"/>
<path d="M282.71 242.701C285.259 244.153 287.717 245.759 290.07 247.511C290.07 247.511 289.69 250.871 295.17 256.841C300.65 262.811 303.17 274.121 303.17 274.121C300.38 279.021 300.95 279.601 300.73 283.301C300.51 287.001 299.44 289.241 300.2 291.781C300.96 294.321 303.44 292.831 303.44 292.831C306.81 292.831 308.81 286.511 308.81 286.511C308.81 286.511 310.55 276.911 307.68 263.901C306.004 256.191 303.38 248.718 299.87 241.651C299.87 241.651 293.97 234.651 291.73 232.531C289.02 230.021 279.99 223.531 279.99 223.531L277.42 241.261C279.211 241.631 280.978 242.112 282.71 242.701V242.701Z" fill="#999999" stroke="#263238" stroke-linecap="round" stroke-linejoin="round"/>
<path d="M281.1 243.261L280.83 244.711C282.349 241.886 283.53 238.892 284.35 235.791C285.261 232.355 285.033 228.716 283.7 225.421C283.08 224.041 281.33 221.971 280.06 223.681C281.135 227.953 281.653 232.346 281.6 236.751C281.568 238.929 281.401 241.103 281.1 243.261V243.261Z" fill="white" stroke="#263238" stroke-linecap="round" stroke-linejoin="round"/>
<path d="M280.39 245.511L280.82 244.671L281.1 243.261C281.401 241.104 281.568 238.929 281.6 236.751C281.67 232.331 281.166 227.921 280.1 223.631C280.099 223.651 280.099 223.671 280.1 223.691C279.26 224.901 280.77 228.531 280.95 229.791C281.276 232.445 281.357 235.123 281.19 237.791C281 239.831 281.33 243.671 280.39 245.511Z" fill="white" stroke="#263238" stroke-linecap="round" stroke-linejoin="round"/>
<path d="M292.42 247.531C292.42 247.531 296.12 248.641 297.86 244.001" stroke="#263238" stroke-linecap="round" stroke-linejoin="round"/>
<path d="M305.26 279.411C304.587 280.79 304.115 282.258 303.86 283.771C303.49 286.121 302.81 288.591 300.63 286.771" stroke="#263238" stroke-linecap="round" stroke-linejoin="round"/>
<path d="M226.89 305.351C226.89 305.351 221.82 315.351 221.76 338.081C221.76 338.081 229.36 341.321 236.58 338.271C243.8 335.221 246.24 338.621 246.24 338.621L247.46 330.991C247.46 330.991 246.77 314.131 261.36 315.441C275.95 316.751 273.98 329.981 273.98 329.981C273.98 329.981 280.98 311.421 275.66 303.491C270.34 295.561 226.89 305.351 226.89 305.351Z" fill="#263238" stroke="#263238" stroke-linecap="round" stroke-linejoin="round"/>
<path d="M246.76 315.531C245.76 318.151 245.1 322.181 245.7 328.271" stroke="#7F7F7F" stroke-linecap="round" stroke-linejoin="round"/>
<path d="M249.87 311.051C249.297 311.423 248.802 311.902 248.41 312.461" stroke="#7F7F7F" stroke-linecap="round" stroke-linejoin="round"/>
<path d="M280.1 223.631C280.096 223.611 280.096 223.591 280.1 223.571C255.15 213.301 234.17 225.771 227.43 230.571C230.2 231.151 233.01 233.571 234.67 237.341C238.15 245.271 235.95 250.251 233.96 256.341C234.648 250.664 233.309 244.927 230.18 240.141C229.1 238.521 227.56 236.901 225.73 236.581L228.85 260.861L224.23 307.311C224.23 307.311 226.15 314.971 248.48 307.611C270.81 300.251 277.68 307.981 277.68 307.981L275.25 286.371C274.743 281.889 274.898 277.358 275.71 272.921L280.88 244.641L281.1 243.261C281.401 241.103 281.568 238.929 281.6 236.751C281.671 232.331 281.166 227.921 280.1 223.631Z" fill="white" stroke="#263238" stroke-linecap="round" stroke-linejoin="round"/>
<path opacity="0.7" d="M249.25 302.181C250.54 298.671 253.71 296.121 257.17 294.701C260.716 293.448 264.417 292.688 268.17 292.441C263.072 290.104 257.506 288.968 251.9 289.121C250.51 289.121 248.9 289.211 247.95 288.221C247.511 287.671 247.258 286.997 247.228 286.294C247.197 285.591 247.39 284.897 247.78 284.311C248.583 283.162 249.602 282.181 250.78 281.421C259.229 275.023 265.855 266.525 270 256.771C264.446 265.356 256.942 272.507 248.1 277.641C249.987 272.848 251.88 268.051 253.78 263.251L238.39 277.401C238.239 277.582 238.051 277.729 237.839 277.833C237.627 277.936 237.396 277.994 237.16 278.001C236.42 277.901 236.16 276.941 236.16 276.191C236 269.472 237.141 262.786 239.52 256.501C240.027 255.441 240.281 254.276 240.26 253.101C240.233 252.514 239.987 251.958 239.57 251.544C239.154 251.129 238.597 250.885 238.01 250.861C239.384 248.615 240.137 246.044 240.19 243.411L236.94 245.661C236.94 248.971 235.94 251.911 234.85 255.091C234.69 255.564 234.53 256.044 234.37 256.531C234.331 256.648 234.25 256.746 234.143 256.807C234.036 256.868 233.91 256.887 233.79 256.861C233.738 256.847 233.687 256.827 233.64 256.801C233.64 257.061 233.59 257.321 233.56 257.581C232.9 262.761 231.31 267.761 229.94 272.801C228.653 277.568 227.563 282.381 226.67 287.241L224.67 307.101C224.748 307.34 224.842 307.574 224.95 307.801C225.01 307.901 225.08 307.971 225.14 308.071C225.549 308.525 226.037 308.901 226.58 309.181C229.29 310.621 235.24 311.451 248.24 307.181C255.89 304.651 261.75 303.881 266.16 303.961L266.48 303.891C260.836 302.571 255.043 301.997 249.25 302.181V302.181Z" fill="#5E4BCB"/>
<path d="M270.43 256.081C266.714 264.775 261.143 272.553 254.108 278.869C247.073 285.186 238.742 289.89 229.7 292.651" stroke="#263238" stroke-linecap="round" stroke-linejoin="round"/>
<path d="M268.42 291.541C255.798 288.337 242.44 289.866 230.87 295.841" stroke="#263238" stroke-linecap="round" stroke-linejoin="round"/>
<path d="M240.88 238.261C241.2 241.186 240.882 244.145 239.948 246.935C239.014 249.724 237.486 252.279 235.47 254.421" stroke="#263238" stroke-linecap="round" stroke-linejoin="round"/>
<path d="M272.58 231.481C275.791 236.185 277.426 241.788 277.25 247.481" stroke="#263238" stroke-linecap="round" stroke-linejoin="round"/>
<path d="M246.24 217.921C246.24 217.921 245.45 230.921 253.55 231.031C263.88 231.161 263.45 219.361 263.45 219.361L246.24 217.921Z" fill="#999999" stroke="#263238" stroke-linecap="round" stroke-linejoin="round"/>
<path d="M245.15 204.471C245.15 204.471 244.61 215.971 246.42 219.001C248.23 222.031 253.29 226.441 257.26 226.491C261.23 226.541 266.26 221.111 266.54 218.941C266.82 216.771 266.75 202.361 266.75 202.361C266.75 202.361 266.31 191.061 257.75 190.951C249.19 190.841 245.16 197.631 245.15 204.471Z" fill="#999999" stroke="#263238" stroke-linecap="round" stroke-linejoin="round"/>
<path d="M266.77 205.611C267.023 205.443 267.31 205.332 267.611 205.287C267.912 205.242 268.219 205.264 268.51 205.351C269.84 205.801 270.38 207.741 269.71 209.671C269.536 210.374 269.158 211.009 268.625 211.499C268.091 211.988 267.425 212.309 266.71 212.421C266.77 210.071 266.77 207.541 266.77 205.611Z" fill="#999999" stroke="#263238" stroke-linecap="round" stroke-linejoin="round"/>
<path d="M253.24 205.581C253.24 206.271 252.87 206.831 252.42 206.821C251.97 206.811 251.63 206.251 251.64 205.561C251.65 204.871 252.01 204.301 252.46 204.311C252.91 204.321 253.25 204.881 253.24 205.581Z" fill="#263238"/>
<path d="M260.44 216.581C260.503 217.949 260.399 219.319 260.13 220.661V220.661C260.13 220.741 260.13 220.821 260.07 220.911C259.948 221.322 259.748 221.706 259.48 222.041V222.041C259.226 222.378 258.885 222.64 258.494 222.798C258.103 222.957 257.677 223.006 257.26 222.941C256.894 222.841 256.558 222.655 256.278 222.399C255.998 222.144 255.783 221.826 255.65 221.471V221.471C255.427 220.978 255.292 220.45 255.25 219.911C255.24 219.798 255.24 219.684 255.25 219.571C255.191 218.689 255.327 217.804 255.65 216.981L260.44 216.581Z" fill="#263238" stroke="#263238" stroke-linecap="round" stroke-linejoin="round"/>
<path d="M255.57 216.981L259.84 217.111C259.84 217.111 260.39 216.931 260.35 216.471C260.332 216.365 260.295 216.263 260.24 216.171V216.111C259.98 215.774 259.634 215.512 259.24 215.351C258.671 215.213 258.085 215.159 257.5 215.191C257.355 215.228 257.215 215.278 257.08 215.341C256.385 215.674 255.844 216.261 255.57 216.981V216.981Z" fill="white" stroke="#263238" stroke-linecap="round" stroke-linejoin="round"/>
<path d="M255.2 219.801C255.2 219.801 255.2 219.601 255.34 219.651C255.48 219.701 257.05 221.111 257.86 221.171C260.11 221.171 259.86 219.871 259.86 219.901C260.033 220.085 260.129 220.328 260.13 220.581C260.12 220.846 260.057 221.106 259.945 221.346C259.834 221.587 259.676 221.802 259.48 221.981C259.228 222.236 258.925 222.433 258.59 222.561C258.213 222.673 257.816 222.696 257.429 222.628C257.042 222.561 256.676 222.404 256.36 222.171C256.072 221.955 255.828 221.687 255.64 221.381C255.471 221.175 255.345 220.936 255.269 220.681C255.194 220.425 255.17 220.156 255.2 219.891V219.801Z" fill="white" stroke="#263238" stroke-linecap="round" stroke-linejoin="round"/>
<path d="M262.32 205.491C262.32 206.191 261.94 206.751 261.5 206.741C261.06 206.731 260.71 206.171 260.71 205.471C260.71 204.771 261.09 204.221 261.53 204.221C261.97 204.221 262.33 204.801 262.32 205.491Z" fill="#263238"/>
<path d="M259.43 202.841C259.43 202.841 262.1 200.541 264.15 201.661" stroke="#263238" stroke-linecap="round" stroke-linejoin="round"/>
<path d="M255.01 202.791C255.01 202.791 252.41 200.411 250.32 201.481" stroke="#263238" stroke-linecap="round" stroke-linejoin="round"/>
<path d="M235.44 250.021C233.63 257.091 231.52 267.661 231.52 267.661L239.69 260.661C239.69 260.661 242.94 251.961 245.84 249.381C246.95 248.381 248 242.741 249.51 243.431C251.02 244.121 250.04 247.631 250.04 247.631C251.101 247.859 252.136 248.194 253.13 248.631C254.13 249.141 256.57 258.561 255.38 259.391C254.19 260.221 252.88 257.001 252.16 260.701C251.44 264.401 244.99 267.701 244.99 267.701C244.99 267.701 233.99 282.701 229.27 285.191C224.55 287.681 219.45 288.941 218.1 275.781C217.368 267.264 217.989 258.684 219.94 250.361C219.94 250.361 217.12 235.951 225.11 232.361C233.1 228.771 237.43 242.261 235.44 250.021Z" fill="#999999" stroke="#263238" stroke-linecap="round" stroke-linejoin="round"/>
<path d="M226.4 272.321L232.02 267.101" stroke="#263238" stroke-linecap="round" stroke-linejoin="round"/>
<path d="M245.46 249.931L250.28 247.661" stroke="#263238" stroke-linecap="round" stroke-linejoin="round"/>
<path d="M222.84 251.461C222.84 251.461 224.6 254.381 227.5 254.781" stroke="#263238" stroke-linecap="round" stroke-linejoin="round"/>
<path d="M244.5 268.111C244.91 268.381 244.72 268.991 244.44 269.381C243.925 270.111 243.371 270.812 242.78 271.481C242.15 272.181 241.83 272.481 241.24 272.411C240.65 272.341 239.03 271.271 236.59 267.771C235.81 266.651 235.03 263.491 236.17 262.321C237.31 261.151 240.72 258.961 239.83 259.891C238.1 261.721 239.1 264.661 244.5 268.111Z" fill="#263238" stroke="#263238" stroke-linecap="round" stroke-linejoin="round"/>
<path d="M236.97 268.341C235.958 267.254 235.134 266.007 234.53 264.651C233.96 263.651 234.59 263.041 235.22 262.391L236.51 261.221C237.51 260.391 238.13 260.361 238.45 261.221L238.69 261.761C239.188 262.789 239.865 263.72 240.69 264.511L241.08 264.931C241.181 265.054 241.257 265.196 241.301 265.349C241.346 265.503 241.359 265.663 241.339 265.821C241.32 265.98 241.268 266.132 241.187 266.27C241.106 266.407 240.998 266.527 240.87 266.621L238.61 268.771C238.476 268.857 238.325 268.915 238.168 268.94C238.01 268.965 237.849 268.957 237.695 268.917C237.541 268.876 237.397 268.804 237.272 268.705C237.147 268.606 237.044 268.482 236.97 268.341Z" fill="white" stroke="#263238" stroke-linecap="round" stroke-linejoin="round"/>
<path d="M236 267.261L235.33 267.531L234.47 266.251L235.02 265.711C235.02 265.711 235.51 266.491 236 267.261Z" fill="white" stroke="#263238" stroke-linecap="round" stroke-linejoin="round"/>
<path d="M259.1 202.991C259.1 202.991 258.95 208.601 260.23 210.871C260.96 212.151 259.37 213.181 258.64 213.391C257.91 213.601 255.18 212.521 255.45 211.121" stroke="#263238" stroke-width="0.75" stroke-linecap="round" stroke-linejoin="round"/>
<path d="M266.75 202.361L263.19 194.961L259.1 195.631L251.8 194.331L248.66 197.441L247.04 198.191L245.11 205.471L243.14 199.831L243.99 193.631L251.87 188.881L258.56 186.911L265.2 191.831L267.46 197.311L268.43 199.861L266.75 202.361Z" fill="#263238"/>
<path d="M245.6 214.091C245.907 212.397 246.79 210.86 248.1 209.741C247.265 208.677 246.862 207.339 246.97 205.991C247.083 204.659 247.066 203.32 246.92 201.991C246.886 201.666 246.741 201.362 246.51 201.131C245.98 200.691 245.12 201.131 244.88 201.771C244.45 202.931 245.02 205.681 245 206.971C244.96 209.359 245.161 211.744 245.6 214.091V214.091Z" fill="#263238"/>
<path d="M249.21 212.131C249.34 214.051 249.73 214.431 251.37 215.431C252.198 215.926 253.132 216.218 254.094 216.284C255.057 216.35 256.022 216.188 256.91 215.811C257.394 215.531 257.933 215.361 258.49 215.311C259.121 215.451 259.733 215.67 260.31 215.961C260.959 216.092 261.633 216.011 262.232 215.73C262.832 215.449 263.325 214.984 263.64 214.401C264.242 213.518 264.557 212.47 264.54 211.401C263.83 213.071 261.42 212.851 260 211.721C260.67 212.251 257.81 213.051 257.54 213.031C256.54 212.961 255.94 212.471 254.87 212.511C252.41 212.621 250.97 214.371 249.21 212.131Z" fill="#263238"/>
<path d="M242.69 204.631C243.132 204.531 243.594 204.557 244.022 204.707C244.45 204.858 244.827 205.126 245.11 205.481C245.11 206.761 245.04 209.131 245.11 211.571C245.042 211.618 244.968 211.655 244.89 211.681C243.55 212.101 241.97 210.871 241.36 208.921C240.75 206.971 241.36 205.051 242.69 204.631Z" fill="#999999" stroke="#263238" stroke-linecap="round" stroke-linejoin="round"/>
<path d="M246.42 219.001C248.22 222.001 253.29 226.441 257.26 226.491C259.08 226.491 261.11 225.381 262.82 223.941C262.296 225.994 261.146 227.832 259.53 229.201C258.799 229.514 258.015 229.684 257.22 229.701C253.3 229.651 248.32 225.351 246.46 222.331C246.289 221.085 246.209 219.829 246.22 218.571C246.278 218.718 246.345 218.862 246.42 219.001V219.001Z" fill="#263238"/>
<path d="M201.68 407.561C199.9 407.701 198.77 409.781 199.04 411.561C199.462 413.317 200.467 414.878 201.89 415.991C202.689 416.826 203.703 417.424 204.82 417.721C205.381 417.847 205.969 417.774 206.484 417.515C206.998 417.256 207.406 416.827 207.64 416.301C208.201 416.758 208.892 417.028 209.614 417.073C210.337 417.119 211.055 416.937 211.669 416.553C212.283 416.169 212.762 415.603 213.038 414.934C213.314 414.265 213.374 413.526 213.21 412.821C213.787 412.571 214.297 412.189 214.698 411.706C215.1 411.222 215.382 410.651 215.521 410.038C215.661 409.425 215.654 408.787 215.501 408.178C215.348 407.568 215.054 407.003 214.642 406.528C214.229 406.053 213.711 405.682 213.129 405.445C212.547 405.208 211.917 405.112 211.291 405.164C210.664 405.216 210.059 405.415 209.523 405.744C208.988 406.074 208.538 406.525 208.21 407.061C210.28 403.701 200.94 402.851 201.68 407.561Z" stroke="#263238" stroke-linecap="round" stroke-linejoin="round"/>
<path d="M286.81 202.751C285.41 201.371 282.46 201.641 280.81 202.701C279.991 203.253 279.375 204.059 279.057 204.995C278.739 205.93 278.737 206.944 279.05 207.881C278.689 207.823 278.318 207.883 277.994 208.053C277.67 208.222 277.409 208.492 277.25 208.821C277.1 209.164 277.069 209.548 277.163 209.911C277.258 210.274 277.471 210.594 277.77 210.821C277.18 210.978 276.646 211.299 276.231 211.747C275.817 212.195 275.538 212.752 275.428 213.353C275.318 213.954 275.381 214.573 275.61 215.14C275.838 215.706 276.223 216.195 276.72 216.551L274.19 217.441C274.575 217.827 275.068 218.086 275.604 218.184C276.14 218.283 276.693 218.215 277.19 217.991C277.189 218.287 277.278 218.576 277.445 218.821C277.611 219.066 277.848 219.254 278.123 219.362C278.399 219.47 278.701 219.493 278.989 219.427C279.277 219.36 279.539 219.209 279.74 218.991C279.913 219.163 280.131 219.282 280.369 219.337C280.607 219.391 280.855 219.378 281.085 219.299C281.316 219.22 281.52 219.078 281.675 218.89C281.829 218.701 281.928 218.473 281.96 218.231C282.482 219.023 283.274 219.598 284.188 219.85C285.103 220.103 286.077 220.015 286.932 219.604C287.787 219.192 288.463 218.485 288.836 217.613C289.209 216.741 289.253 215.763 288.96 214.861C290.47 214.151 291.29 213.511 291.17 211.241C291.05 208.971 288.22 207.711 288.26 207.621C288.92 206.121 288.15 204.051 286.81 202.751Z" fill="white" stroke="#263238" stroke-linecap="round" stroke-linejoin="round"/>
<path d="M248.23 251.421C249.95 250.061 252.06 249.321 254.34 251.421" stroke="#263238" stroke-linecap="round" stroke-linejoin="round"/>
<path d="M249.1 254.321C250.64 252.991 252.77 252.321 254.91 254.431" stroke="#263238" stroke-linecap="round" stroke-linejoin="round"/>
<path d="M250.04 257.161C251.45 256.011 254.32 255.381 255.51 257.281" stroke="#263238" stroke-linecap="round" stroke-linejoin="round"/>
<path d="M305.03 282.801L303.73 283.871" stroke="#263238" stroke-linecap="round" stroke-linejoin="round"/>
<path d="M300.28 290.401C302.18 290.301 304.4 289.621 305.28 287.931C305.769 287.191 306.168 286.395 306.47 285.561" stroke="#263238" stroke-linecap="round" stroke-linejoin="round"/>
<path d="M300.41 292.191C303.52 291.791 306.21 290.391 307.31 287.461" stroke="#263238" stroke-linecap="round" stroke-linejoin="round"/>
<path d="M253.39 333.991C253.911 334.399 254.344 334.909 254.66 335.49C254.976 336.072 255.17 336.712 255.23 337.371C255.336 338.692 255.577 339.999 255.95 341.271C256.148 341.903 256.533 342.46 257.055 342.869C257.576 343.277 258.209 343.519 258.87 343.561" stroke="#263238" stroke-linecap="round" stroke-linejoin="round"/>
<path d="M225.97 363.651C225.511 364.265 225.217 364.986 225.115 365.745C225.013 366.505 225.107 367.278 225.387 367.991C225.668 368.704 226.126 369.333 226.718 369.82C227.309 370.307 228.016 370.634 228.77 370.771" stroke="#263238" stroke-linecap="round" stroke-linejoin="round"/>
<path d="M225.73 371.951C225.56 372.482 225.525 373.048 225.628 373.596C225.731 374.144 225.968 374.658 226.32 375.091" stroke="#263238" stroke-linecap="round" stroke-linejoin="round"/>
<path d="M267.64 339.161C267.64 339.161 265.97 343.411 263.4 344.051" stroke="#263238" stroke-linecap="round" stroke-linejoin="round"/>
<path d="M235.56 366.561C235.56 366.561 234.79 374.191 230.5 375.941" stroke="#263238" stroke-linecap="round" stroke-linejoin="round"/>
<path opacity="0.8" d="M198.08 127.994C196.42 127.084 195.66 127.844 195.08 127.084C194.5 126.324 196.74 124.364 192.2 122.394C192.2 122.394 191.9 118.154 185.7 118.004C179.5 117.854 181.16 122.244 179.49 123.304C177.82 124.364 177.38 122.694 175.71 123.754C174.04 124.814 174.8 126.934 173.44 127.234C172.08 127.534 170.26 125.874 168.6 126.934C166.94 127.994 166.94 128.934 166.18 128.934C165.42 128.934 163.91 128.324 163 128.934C162.09 129.544 161 130.294 161 130.294H199.29C199.395 129.829 199.331 129.342 199.109 128.92C198.888 128.499 198.523 128.17 198.08 127.994V127.994Z" fill="white"/>
</svg>
