<svg width="264" height="38" viewBox="0 0 264 38" fill="none" xmlns="http://www.w3.org/2000/svg">
<path d="M19 0L24.0256 12.0829L37.0701 13.1287L27.1315 21.6421L30.1679 34.3713L19 27.55L7.83208 34.3713L10.8685 21.6421L0.929926 13.1287L13.9744 12.0829L19 0Z" fill="#E8844E"/>
<path d="M75.5 0L80.3933 12.0829L93.0945 13.1287L83.4175 21.6421L86.374 34.3713L75.5 27.55L64.626 34.3713L67.5825 21.6421L57.9055 13.1287L70.6067 12.0829L75.5 0Z" fill="#E8844E"/>
<path d="M132 0L137.026 12.0829L150.07 13.1287L140.132 21.6421L143.168 34.3713L132 27.55L120.832 34.3713L123.868 21.6421L113.93 13.1287L126.974 12.0829L132 0Z" fill="#E8844E"/>
<path d="M188.5 0L193.393 12.0829L206.095 13.1287L196.418 21.6421L199.374 34.3713L188.5 27.55L177.626 34.3713L180.582 21.6421L170.905 13.1287L183.607 12.0829L188.5 0Z" fill="#E8844E"/>
<path d="M245 0L250.026 12.0829L263.07 13.1287L253.132 21.6421L256.168 34.3713L245 27.55L233.832 34.3713L236.868 21.6421L226.93 13.1287L239.974 12.0829L245 0Z" fill="#E8844E"/>
</svg>
